<svg version="1.1" id="Layer_1" xmlns="http://www.w3.org/2000/svg" xmlns:xlink="http://www.w3.org/1999/xlink" x="0px" y="0px"
	 width="100%" viewBox="0 0 2480 1200" enable-background="new 0 0 2480 1200" xml:space="preserve">
<path fill="#000000" opacity="1.000000" stroke="none" 
	d="
M2359.000000,1201.000000 
	C1572.666626,1201.000000 786.833313,1201.000000 1.000000,1201.000000 
	C1.000000,801.000000 1.000000,401.000000 1.000000,1.000000 
	C827.666687,1.000000 1654.333374,1.000000 2481.000000,1.000000 
	C2481.000000,401.000000 2481.000000,801.000000 2481.000000,1201.000000 
	C2440.500000,1201.000000 2400.000000,1201.000000 2359.000000,1201.000000 
M1145.000000,599.500000 
	C1145.000000,665.926392 1145.000000,732.352844 1145.000000,798.711975 
	C1208.975952,798.711975 1272.378906,798.711975 1335.713745,798.711975 
	C1335.713745,666.689880 1335.713745,534.955933 1335.713745,403.288025 
	C1272.024048,403.288025 1208.621094,403.288025 1145.000000,403.288025 
	C1145.000000,468.550446 1145.000000,533.525208 1145.000000,599.500000 
z"/>
<path fill="#FFFFFF" opacity="1.000000" stroke="none" 
	d="
M1145.000000,599.000000 
	C1145.000000,533.525208 1145.000000,468.550446 1145.000000,403.288025 
	C1208.621094,403.288025 1272.024048,403.288025 1335.713745,403.288025 
	C1335.713745,534.955933 1335.713745,666.689880 1335.713745,798.711975 
	C1272.378906,798.711975 1208.975952,798.711975 1145.000000,798.711975 
	C1145.000000,732.352844 1145.000000,665.926392 1145.000000,599.000000 
M1211.248291,620.515015 
	C1211.174438,619.773132 1211.127930,618.387634 1211.022705,618.383240 
	C1208.235474,618.265015 1205.442261,618.289307 1202.649902,618.289307 
	C1202.318359,618.691833 1201.986694,619.094421 1201.655029,619.496948 
	C1208.514893,620.406006 1202.296631,624.297607 1204.871216,627.060974 
	C1205.767456,625.261658 1206.577759,623.842651 1207.197144,622.344727 
	C1208.263550,619.765259 1209.831909,619.341553 1212.585205,621.564758 
	C1212.226318,623.012695 1211.867554,624.460632 1211.538940,625.786194 
	C1216.321045,627.619385 1219.446655,626.052673 1222.593140,623.638306 
	C1221.265625,627.287231 1224.033936,626.435669 1225.791504,626.445496 
	C1234.487793,626.493896 1243.184326,626.467529 1252.461304,626.467529 
	C1251.757446,619.779968 1257.336426,620.498718 1262.134277,619.041931 
	C1254.587036,616.438354 1251.004761,618.802307 1250.088013,624.827698 
	C1248.810913,623.535400 1247.848267,622.561157 1246.885498,621.586975 
	C1246.090088,622.448425 1245.294556,623.309937 1244.267578,624.422119 
	C1243.993774,624.093384 1243.545166,623.554810 1243.096680,623.016296 
	C1245.353027,621.542725 1247.609375,620.069153 1249.737183,618.679504 
	C1244.318237,618.679504 1238.699707,618.679504 1232.962280,618.679504 
	C1232.069214,622.370605 1230.813843,625.874451 1225.464722,623.731262 
	C1225.813110,621.924072 1226.157959,620.135437 1226.502808,618.346863 
	C1226.204102,618.227112 1225.905518,618.107361 1225.606812,617.987610 
	C1224.414185,619.656433 1223.221558,621.325195 1221.240234,622.462646 
	C1221.385620,621.112793 1221.531006,619.763000 1221.677002,618.408508 
	C1215.854858,617.854126 1215.854858,617.854126 1211.248291,620.515015 
M1261.500732,586.562500 
	C1260.532227,583.194641 1259.563721,579.826782 1258.280640,575.862305 
	C1252.848267,566.023071 1233.659058,565.498596 1227.293091,570.919617 
	C1225.768311,571.662292 1223.945190,572.089294 1222.768799,573.200867 
	C1216.817749,578.824707 1216.008057,585.982300 1216.739868,594.067688 
	C1217.018921,595.831543 1217.086914,597.660706 1217.610107,599.348877 
	C1221.904297,613.206482 1241.037231,616.680481 1252.490601,610.130066 
	C1261.141846,604.130920 1263.446533,595.850098 1261.500732,586.562500 
M1256.593872,633.372620 
	C1260.175903,633.372620 1263.757935,633.372620 1267.339844,633.372620 
	C1267.481689,632.865112 1267.623413,632.357544 1267.765259,631.850037 
	C1266.172363,631.287109 1264.582031,630.244873 1262.986450,630.236755 
	C1249.585938,630.168457 1236.184204,630.249756 1222.784546,630.426819 
	C1221.666016,630.441589 1220.561157,631.484802 1219.449951,632.050171 
	C1220.514038,632.526001 1221.571167,633.394409 1222.643188,633.413208 
	C1229.050415,633.525574 1235.467407,633.601868 1241.866943,633.340637 
	C1244.210205,633.245056 1246.514526,632.193481 1248.836548,631.578064 
	C1248.740479,631.792542 1248.644409,632.007019 1248.548340,632.221558 
	C1250.931641,632.497070 1253.314941,632.772644 1256.593872,633.372620 
M1273.244263,618.058777 
	C1266.512329,617.020020 1267.518311,622.529053 1265.767456,626.451965 
	C1268.330566,626.451965 1270.771729,627.171021 1272.174194,626.271240 
	C1273.956177,625.128052 1275.073364,622.757996 1276.061157,620.715759 
	C1276.279907,620.263367 1274.758667,618.969482 1273.244263,618.058777 
M1213.306396,630.694336 
	C1213.228882,630.702271 1213.151489,630.710205 1213.073975,630.718201 
	C1213.128662,630.873718 1213.136108,631.089600 1213.245483,631.174988 
	C1213.985474,631.752869 1214.746948,632.303101 1215.501465,632.862305 
	C1215.634888,631.693787 1215.191528,631.852478 1214.803711,631.765076 
	C1214.351929,631.663269 1213.948730,631.346130 1213.306396,630.694336 
z"/>
<path fill="#19A44B" opacity="1.000000" stroke="none" 
	d="
M1222.028931,622.993958 
	C1223.221558,621.325195 1224.414185,619.656433 1225.606812,617.987610 
	C1225.905518,618.107361 1226.204102,618.227112 1226.502808,618.346863 
	C1226.157959,620.135437 1225.813110,621.924072 1225.464722,623.731262 
	C1230.813843,625.874451 1232.069214,622.370605 1232.962280,618.679504 
	C1238.699707,618.679504 1244.318237,618.679504 1249.737183,618.679504 
	C1247.609375,620.069153 1245.353027,621.542725 1243.096680,623.016296 
	C1243.545166,623.554810 1243.993774,624.093384 1244.267578,624.422119 
	C1245.294556,623.309937 1246.090088,622.448425 1246.885498,621.586975 
	C1247.848267,622.561157 1248.810913,623.535400 1250.088013,624.827698 
	C1251.004761,618.802307 1254.587036,616.438354 1262.134277,619.041931 
	C1257.336426,620.498718 1251.757446,619.779968 1252.461304,626.467529 
	C1243.184326,626.467529 1234.487793,626.493896 1225.791504,626.445496 
	C1224.033936,626.435669 1221.265625,627.287231 1222.319824,623.299377 
	C1222.046387,622.960449 1222.028931,622.993958 1222.028931,622.993958 
z"/>
<path fill="#A7D21E" opacity="1.000000" stroke="none" 
	d="
M1251.827759,610.470459 
	C1241.037231,616.680481 1221.904297,613.206482 1217.610107,599.348877 
	C1217.086914,597.660706 1217.018921,595.831543 1217.093994,594.097900 
	C1220.261353,597.959656 1223.074463,601.791199 1225.970581,606.019104 
	C1226.514282,606.569702 1226.976074,606.720337 1227.435425,606.878601 
	C1243.435181,612.389343 1251.219727,609.020691 1257.952637,593.694397 
	C1258.067383,593.433350 1258.446899,593.288696 1258.766724,593.486145 
	C1256.889282,598.414734 1254.942871,602.944824 1253.010498,607.480896 
	C1252.590576,608.466492 1252.220703,609.473389 1251.827759,610.470459 
z"/>
<path fill="#A7D21E" opacity="1.000000" stroke="none" 
	d="
M1256.145996,633.210388 
	C1253.314941,632.772644 1250.931641,632.497070 1248.548340,632.221558 
	C1248.644409,632.007019 1248.740479,631.792542 1248.836548,631.578064 
	C1246.514526,632.193481 1244.210205,633.245056 1241.866943,633.340637 
	C1235.467407,633.601868 1229.050415,633.525574 1222.643188,633.413208 
	C1221.571167,633.394409 1220.514038,632.526001 1219.449951,632.050171 
	C1220.561157,631.484802 1221.666016,630.441589 1222.784546,630.426819 
	C1236.184204,630.249756 1249.585938,630.168457 1262.986450,630.236755 
	C1264.582031,630.244873 1266.172363,631.287109 1267.765259,631.850037 
	C1267.623413,632.357544 1267.481689,632.865112 1267.339844,633.372620 
	C1263.757935,633.372620 1260.175903,633.372620 1256.145996,633.210388 
z"/>
<path fill="#A7D21E" opacity="1.000000" stroke="none" 
	d="
M1227.864868,570.979370 
	C1233.659058,565.498596 1252.848267,566.023071 1258.179932,576.393616 
	C1257.914551,577.086731 1257.749756,577.248596 1257.311768,577.312866 
	C1256.674561,577.134216 1256.310425,577.053162 1255.985596,576.973328 
	C1256.024902,576.974487 1256.034180,577.052490 1255.985596,576.717285 
	C1254.614380,575.596069 1253.291626,574.809998 1251.845703,573.688965 
	C1243.307495,569.301208 1235.324463,570.385803 1227.950928,575.761414 
	C1225.659302,577.432007 1223.956909,579.910889 1221.865845,581.725525 
	C1223.786255,577.947327 1225.825562,574.463379 1227.864868,570.979370 
z"/>
<path fill="#19A44B" opacity="1.000000" stroke="none" 
	d="
M1227.578979,570.949463 
	C1225.825562,574.463379 1223.786255,577.947327 1221.873779,581.705261 
	C1222.000488,581.979248 1222.043945,581.986328 1221.688721,582.052246 
	C1220.857422,583.749878 1220.381104,585.381653 1219.912354,587.480347 
	C1220.107788,594.925476 1223.104614,600.683472 1228.970093,606.476746 
	C1227.011841,605.934204 1226.449707,605.778442 1225.887573,605.622742 
	C1223.074463,601.791199 1220.261353,597.959656 1217.292725,593.875122 
	C1216.008057,585.982300 1216.817749,578.824707 1222.768799,573.200867 
	C1223.945190,572.089294 1225.768311,571.662292 1227.578979,570.949463 
z"/>
<path fill="#19A44B" opacity="1.000000" stroke="none" 
	d="
M1252.159180,610.300293 
	C1252.220703,609.473389 1252.590576,608.466492 1253.010498,607.480896 
	C1254.942871,602.944824 1256.889282,598.414734 1258.776855,593.073730 
	C1257.212524,587.873840 1255.710938,583.479736 1254.184937,579.094055 
	C1253.818726,578.041077 1253.372070,577.016052 1253.269287,575.782349 
	C1254.395386,576.075195 1255.214844,576.563843 1256.034180,577.052490 
	C1256.034180,577.052490 1256.024902,576.974487 1256.103271,577.253052 
	C1256.769531,578.073059 1257.357422,578.614624 1258.095703,579.455261 
	C1259.227783,581.812805 1260.209229,583.871338 1261.190796,585.929810 
	C1263.446533,595.850098 1261.141846,604.130920 1252.159180,610.300293 
z"/>
<path fill="#19A44B" opacity="1.000000" stroke="none" 
	d="
M1273.641479,618.060913 
	C1274.758667,618.969482 1276.279907,620.263367 1276.061157,620.715759 
	C1275.073364,622.757996 1273.956177,625.128052 1272.174194,626.271240 
	C1270.771729,627.171021 1268.330566,626.451965 1265.767456,626.451965 
	C1267.518311,622.529053 1266.512329,617.020020 1273.641479,618.060913 
z"/>
<path fill="#19A44B" opacity="1.000000" stroke="none" 
	d="
M1222.064209,622.950317 
	C1219.446655,626.052673 1216.321045,627.619385 1211.538940,625.786194 
	C1211.867554,624.460632 1212.226318,623.012695 1212.293945,621.285583 
	C1212.002563,621.006409 1211.992798,621.035034 1211.992798,621.035034 
	C1215.854858,617.854126 1215.854858,617.854126 1221.677002,618.408508 
	C1221.531006,619.763000 1221.385620,621.112793 1221.634521,622.728271 
	C1222.028931,622.993958 1222.046387,622.960449 1222.064209,622.950317 
z"/>
<path fill="#19A44B" opacity="1.000000" stroke="none" 
	d="
M1212.016357,621.001709 
	C1209.831909,619.341553 1208.263550,619.765259 1207.197144,622.344727 
	C1206.577759,623.842651 1205.767456,625.261658 1204.871216,627.060974 
	C1202.296631,624.297607 1208.514893,620.406006 1201.655029,619.496948 
	C1201.986694,619.094421 1202.318359,618.691833 1202.649902,618.289307 
	C1205.442261,618.289307 1208.235474,618.265015 1211.022705,618.383240 
	C1211.127930,618.387634 1211.174438,619.773132 1211.620605,620.775024 
	C1211.992798,621.035034 1212.002563,621.006409 1212.016357,621.001709 
z"/>
<path fill="#A7D21E" opacity="1.000000" stroke="none" 
	d="
M1261.345703,586.246155 
	C1260.209229,583.871338 1259.227783,581.812805 1258.087524,579.155884 
	C1257.814209,578.175110 1257.699585,577.792786 1257.584961,577.410461 
	C1257.749756,577.248596 1257.914551,577.086731 1258.337158,576.691895 
	C1259.563721,579.826782 1260.532227,583.194641 1261.345703,586.246155 
z"/>
<path fill="#A7D21E" opacity="1.000000" stroke="none" 
	d="
M1213.415405,630.908325 
	C1213.948730,631.346130 1214.351929,631.663269 1214.803711,631.765076 
	C1215.191528,631.852478 1215.634888,631.693787 1215.501465,632.862305 
	C1214.746948,632.303101 1213.985474,631.752869 1213.245483,631.174988 
	C1213.136108,631.089600 1213.128662,630.873718 1213.073975,630.718201 
	C1213.151489,630.710205 1213.228882,630.702271 1213.415405,630.908325 
z"/>
<path fill="#FFFFFF" opacity="1.000000" stroke="none" 
	d="
M1252.962402,575.978149 
	C1253.372070,577.016052 1253.818726,578.041077 1254.184937,579.094055 
	C1255.710938,583.479736 1257.212524,587.873840 1258.712891,592.677368 
	C1258.446899,593.288696 1258.067383,593.433350 1257.952637,593.694397 
	C1251.219727,609.020691 1243.435181,612.389343 1227.435425,606.878601 
	C1226.976074,606.720337 1226.514282,606.569702 1225.970581,606.019104 
	C1226.449707,605.778442 1227.011841,605.934204 1228.970093,606.476746 
	C1223.104614,600.683472 1220.107788,594.925476 1220.220215,587.532104 
	C1221.028320,585.406738 1221.536133,583.696533 1222.043945,581.986328 
	C1222.043945,581.986328 1222.000488,581.979248 1221.992676,581.999512 
	C1223.956909,579.910889 1225.659302,577.432007 1227.950928,575.761414 
	C1235.324463,570.385803 1243.307495,569.301208 1251.859863,573.675964 
	C1251.997070,573.997864 1252.020752,573.967834 1251.715576,573.948547 
	C1251.009155,573.877136 1250.607910,573.825012 1250.024658,573.489136 
	C1249.289429,573.210205 1248.736084,573.215027 1248.182739,573.219910 
	C1248.647095,573.647766 1249.111450,574.075562 1249.821045,574.768005 
	C1251.048340,575.358093 1252.030396,575.683533 1253.000488,576.000488 
	C1252.988525,575.991943 1252.962402,575.978149 1252.962402,575.978149 
M1241.425049,599.953552 
	C1241.790771,595.585083 1242.156372,591.216614 1242.559692,586.399475 
	C1246.363037,586.528625 1250.543579,586.835327 1251.640991,581.605408 
	C1228.217285,581.184570 1231.117554,580.243591 1228.373779,586.462097 
	C1230.965576,586.462097 1233.370483,586.462097 1236.192505,586.462097 
	C1236.192505,589.851013 1236.398071,592.826782 1236.138794,595.761414 
	C1235.836670,599.181091 1236.921753,600.792297 1241.425049,599.953552 
z"/>
<path fill="#FFFFFF" opacity="1.000000" stroke="none" 
	d="
M1255.985596,576.717285 
	C1255.214844,576.563843 1254.395386,576.075195 1253.269287,575.782349 
	C1252.962402,575.978149 1252.988525,575.991943 1253.166992,575.707214 
	C1252.903931,574.937561 1252.462402,574.452698 1252.020752,573.967834 
	C1252.020752,573.967834 1251.997070,573.997864 1251.982910,574.010864 
	C1253.291626,574.809998 1254.614380,575.596069 1255.985596,576.717285 
z"/>
<path fill="#FFFFFF" opacity="1.000000" stroke="none" 
	d="
M1257.311768,577.312866 
	C1257.699585,577.792786 1257.814209,578.175110 1257.937012,578.856812 
	C1257.357422,578.614624 1256.769531,578.073059 1256.063965,577.251831 
	C1256.310425,577.053162 1256.674561,577.134216 1257.311768,577.312866 
z"/>
<path fill="#A7D21E" opacity="1.000000" stroke="none" 
	d="
M1221.688721,582.052246 
	C1221.536133,583.696533 1221.028320,585.406738 1220.212646,587.065186 
	C1220.381104,585.381653 1220.857422,583.749878 1221.688721,582.052246 
z"/>
<path fill="#19A44B" opacity="1.000000" stroke="none" 
	d="
M1240.963623,600.040466 
	C1236.921753,600.792297 1235.836670,599.181091 1236.138794,595.761414 
	C1236.398071,592.826782 1236.192505,589.851013 1236.192505,586.462097 
	C1233.370483,586.462097 1230.965576,586.462097 1228.373779,586.462097 
	C1231.117554,580.243591 1228.217285,581.184570 1251.640991,581.605408 
	C1250.543579,586.835327 1246.363037,586.528625 1242.559692,586.399475 
	C1242.156372,591.216614 1241.790771,595.585083 1240.963623,600.040466 
z"/>
<path fill="#19A44B" opacity="1.000000" stroke="none" 
	d="
M1251.715576,573.948547 
	C1252.462402,574.452698 1252.903931,574.937561 1253.179077,575.715759 
	C1252.030396,575.683533 1251.048340,575.358093 1249.978149,574.584900 
	C1249.890137,574.137207 1250.206665,573.772949 1250.206665,573.772949 
	C1250.607910,573.825012 1251.009155,573.877136 1251.715576,573.948547 
z"/>
<path fill="#19A44B" opacity="1.000000" stroke="none" 
	d="
M1249.732910,574.320312 
	C1249.111450,574.075562 1248.647095,573.647766 1248.182739,573.219910 
	C1248.736084,573.215027 1249.289429,573.210205 1250.024658,573.489136 
	C1250.206665,573.772949 1249.890137,574.137207 1249.732910,574.320312 
z"/>
</svg>