<svg id="svg" version="1.1" xmlns="http://www.w3.org/2000/svg" xmlns:xlink="http://www.w3.org/1999/xlink" width="400" height="400" viewBox="0, 0, 400,400"><g id="svgg"><path id="path0" d="M0.000 200.000 L 0.000 400.000 200.000 400.000 L 400.000 400.000 400.000 200.000 L 400.000 0.000 200.000 0.000 L 0.000 0.000 0.000 200.000 M103.800 145.577 C 105.888 145.784,108.156 146.279,109.200 146.758 C 110.190 147.211,111.430 147.586,111.956 147.591 C 112.482 147.596,113.652 147.943,114.556 148.362 C 120.487 151.110,122.722 152.281,123.695 153.148 L 124.800 154.132 124.800 163.079 C 124.800 173.261,124.499 174.145,121.876 171.663 C 119.446 169.364,118.961 168.969,117.900 168.427 C 117.295 168.118,116.800 167.724,116.800 167.551 C 116.800 167.379,115.990 166.879,115.000 166.441 C 114.010 166.003,113.200 165.471,113.200 165.258 C 113.200 165.045,112.485 164.750,111.612 164.602 C 110.738 164.454,109.613 164.013,109.112 163.622 C 108.610 163.230,106.956 162.695,105.436 162.432 C 103.916 162.169,102.170 161.695,101.556 161.377 C 99.997 160.571,90.647 160.570,88.719 161.376 C 87.961 161.693,86.094 162.168,84.570 162.431 C 83.047 162.695,81.368 163.248,80.840 163.660 C 80.312 164.072,79.187 164.521,78.340 164.656 C 77.493 164.791,76.800 165.068,76.800 165.271 C 76.800 165.473,76.125 165.945,75.299 166.320 C 73.475 167.147,71.810 168.296,70.692 169.500 C 70.232 169.995,69.690 170.400,69.487 170.400 C 68.970 170.400,64.450 175.249,64.173 176.100 C 64.048 176.485,63.794 176.800,63.609 176.800 C 63.423 176.800,62.879 177.610,62.400 178.600 C 61.921 179.590,61.379 180.400,61.196 180.400 C 61.013 180.400,60.747 180.932,60.604 181.581 C 60.461 182.231,60.026 183.176,59.636 183.681 C 59.246 184.187,58.707 185.500,58.437 186.600 C 58.168 187.700,57.645 189.050,57.274 189.600 C 56.262 191.101,56.262 208.899,57.274 210.400 C 57.645 210.950,58.167 212.300,58.435 213.400 C 58.703 214.500,59.254 215.878,59.661 216.462 C 60.067 217.046,60.400 217.779,60.400 218.090 C 60.400 218.402,60.935 219.365,61.589 220.229 C 62.243 221.093,62.783 221.954,62.789 222.142 C 62.814 222.900,68.941 229.600,69.609 229.600 C 69.799 229.600,70.190 229.932,70.477 230.338 C 71.074 231.181,78.327 235.600,79.113 235.600 C 79.399 235.600,80.368 235.976,81.268 236.435 C 82.168 236.894,84.095 237.451,85.552 237.674 C 87.008 237.896,89.183 238.331,90.384 238.639 C 91.585 238.948,93.662 239.200,95.000 239.200 C 96.338 239.200,98.415 238.948,99.616 238.639 C 100.817 238.331,102.985 237.897,104.432 237.676 C 105.880 237.455,107.767 236.897,108.626 236.437 C 109.485 235.977,110.482 235.600,110.840 235.600 C 111.199 235.600,111.924 235.260,112.453 234.844 C 112.981 234.429,114.040 233.797,114.807 233.441 C 116.639 232.589,119.171 230.749,121.216 228.785 C 123.044 227.029,123.159 226.986,124.119 227.700 C 124.711 228.140,124.795 229.241,124.820 236.929 C 124.849 245.614,124.684 246.800,123.447 246.800 C 123.197 246.800,122.778 247.144,122.515 247.564 C 122.253 247.984,121.445 248.455,120.719 248.611 C 119.994 248.766,119.086 249.224,118.702 249.628 C 118.317 250.032,117.327 250.488,116.502 250.640 C 115.676 250.792,114.597 251.229,114.106 251.611 C 113.614 251.994,112.186 252.434,110.934 252.591 C 109.681 252.747,108.251 253.141,107.755 253.466 C 105.105 255.203,85.338 255.193,81.516 253.454 C 80.792 253.124,79.179 252.653,77.931 252.405 C 76.683 252.158,75.461 251.715,75.216 251.420 C 74.972 251.125,74.166 250.770,73.426 250.631 C 72.686 250.493,71.658 250.050,71.141 249.648 C 70.623 249.245,69.512 248.692,68.672 248.418 C 67.832 248.144,67.047 247.668,66.929 247.360 C 66.811 247.052,66.493 246.800,66.222 246.800 C 64.718 246.800,55.683 238.981,52.707 235.103 C 50.839 232.670,50.266 231.881,48.985 229.977 C 48.223 228.846,47.600 227.696,47.600 227.422 C 47.600 227.148,47.247 226.604,46.815 226.214 C 46.383 225.823,45.815 224.850,45.552 224.052 C 45.289 223.253,44.759 222.150,44.374 221.600 C 43.990 221.050,43.555 219.899,43.408 219.042 C 43.262 218.184,42.880 217.084,42.560 216.596 C 42.241 216.108,41.731 214.199,41.427 212.354 C 41.124 210.509,40.656 208.460,40.387 207.800 C 39.639 205.961,39.739 193.900,40.522 191.600 C 40.859 190.610,41.325 188.540,41.557 187.000 C 41.790 185.460,42.344 183.487,42.790 182.615 C 43.235 181.744,43.600 180.688,43.600 180.270 C 43.600 179.851,43.952 178.854,44.383 178.054 C 44.814 177.255,45.435 175.925,45.763 175.100 C 46.091 174.275,46.529 173.600,46.736 173.600 C 46.944 173.600,47.219 173.180,47.348 172.666 C 47.476 172.153,48.081 171.080,48.691 170.283 C 49.301 169.485,50.250 168.194,50.800 167.413 C 51.350 166.632,52.314 165.410,52.941 164.697 C 53.569 163.984,54.520 162.835,55.055 162.145 C 57.344 159.189,65.264 153.271,70.000 150.977 C 71.650 150.179,73.630 149.207,74.400 148.818 C 75.170 148.430,76.790 147.882,78.000 147.602 C 79.210 147.322,80.676 146.852,81.259 146.557 C 83.567 145.390,96.302 144.837,103.800 145.577 M130.953 158.001 L 132.400 159.602 132.406 171.101 C 132.412 181.725,132.683 185.059,133.367 182.904 C 133.708 181.831,137.688 177.753,138.712 177.428 C 139.160 177.286,139.620 176.925,139.735 176.625 C 139.850 176.326,140.632 175.860,141.472 175.590 C 142.312 175.320,143.289 174.847,143.643 174.539 C 144.238 174.021,148.923 173.038,153.234 172.528 C 156.594 172.130,158.933 174.317,157.495 176.512 C 157.168 177.010,156.769 178.198,156.608 179.151 C 156.447 180.105,156.012 181.188,155.641 181.559 C 155.269 181.931,154.727 182.812,154.434 183.517 C 154.142 184.223,153.655 184.800,153.351 184.800 C 153.048 184.800,152.800 185.056,152.800 185.368 C 152.800 186.079,148.122 190.800,147.417 190.800 C 147.132 190.800,146.675 191.069,146.402 191.398 C 146.128 191.727,145.161 192.202,144.253 192.454 C 143.344 192.705,141.880 193.234,141.000 193.630 C 140.120 194.025,137.933 194.472,136.140 194.622 C 132.021 194.968,132.400 192.524,132.398 218.750 L 132.396 240.200 131.178 241.500 C 130.097 242.653,129.717 242.800,127.819 242.800 L 125.679 242.800 125.524 235.700 C 125.439 231.795,125.521 228.008,125.708 227.284 C 125.894 226.560,125.954 222.330,125.841 217.884 C 125.728 213.438,125.659 209.260,125.688 208.600 C 125.765 206.806,125.740 173.365,125.655 164.400 C 125.614 160.110,125.585 156.555,125.591 156.500 C 125.685 155.494,129.705 156.620,130.953 158.001 M93.000 172.467 C 93.660 172.818,95.010 173.236,96.000 173.396 C 97.642 173.662,99.301 174.351,102.600 176.136 C 103.260 176.494,104.393 177.065,105.117 177.406 C 105.842 177.746,106.530 178.273,106.646 178.577 C 106.763 178.880,107.250 179.232,107.729 179.360 C 109.579 179.853,116.800 187.599,116.800 189.089 C 116.800 189.370,116.983 189.600,117.206 189.600 C 117.430 189.600,117.925 190.275,118.306 191.100 C 118.688 191.925,119.211 192.736,119.470 192.903 C 119.728 193.070,120.160 193.880,120.428 194.703 C 120.697 195.526,121.245 196.623,121.648 197.141 C 122.050 197.658,122.497 198.738,122.640 199.541 C 122.784 200.343,123.147 201.283,123.447 201.628 C 124.943 203.348,125.246 209.814,123.861 210.445 C 122.579 211.029,113.367 210.310,111.779 209.502 C 111.131 209.172,109.520 208.775,108.200 208.619 C 106.880 208.463,105.250 208.017,104.577 207.627 C 103.905 207.237,102.708 206.797,101.918 206.648 C 101.128 206.500,100.058 206.051,99.541 205.650 C 99.023 205.250,98.099 204.800,97.487 204.650 C 96.874 204.500,96.069 204.023,95.698 203.589 C 95.326 203.155,94.768 202.800,94.456 202.800 C 93.792 202.800,87.200 196.125,87.200 195.452 C 87.200 195.199,86.840 194.768,86.400 194.493 C 85.960 194.218,85.600 193.753,85.600 193.459 C 85.600 193.165,85.256 192.613,84.837 192.233 C 84.417 191.853,83.839 190.978,83.554 190.288 C 83.268 189.599,82.730 188.730,82.358 188.358 C 81.986 187.986,81.551 187.088,81.392 186.363 C 81.233 185.638,80.855 184.798,80.552 184.495 C 80.249 184.192,79.908 183.462,79.795 182.872 C 79.681 182.282,79.309 180.990,78.967 180.000 C 77.402 175.466,77.320 172.860,78.716 172.000 C 79.844 171.306,91.535 171.688,93.000 172.467 M170.700 199.167 C 174.445 202.178,171.871 205.999,168.017 203.149 C 166.134 201.757,162.400 202.057,162.400 203.600 C 162.400 204.014,162.220 204.464,162.000 204.600 C 161.064 205.178,162.113 210.516,163.312 211.278 C 163.991 211.709,167.504 211.679,167.776 211.239 C 167.898 211.041,167.369 210.507,166.599 210.053 C 164.929 209.067,164.572 206.764,165.974 206.014 C 167.059 205.433,171.306 205.497,172.140 206.107 C 173.497 207.099,172.915 213.611,171.400 214.386 C 170.740 214.724,170.106 215.124,169.992 215.275 C 169.013 216.568,163.233 216.833,162.039 215.639 C 161.621 215.221,160.922 214.766,160.485 214.627 C 158.081 213.864,156.451 208.732,157.236 204.400 C 158.349 198.261,165.916 195.320,170.700 199.167 M295.700 198.716 C 296.085 199.050,296.400 199.539,296.400 199.802 C 296.400 200.066,296.829 201.088,297.354 202.075 C 297.878 203.061,298.439 204.468,298.600 205.201 C 298.761 205.934,299.231 207.088,299.645 207.767 C 300.059 208.445,300.398 209.273,300.399 209.606 C 300.399 209.939,300.760 210.884,301.200 211.704 C 302.675 214.457,302.014 216.170,299.571 215.927 C 298.578 215.829,298.121 215.485,297.544 214.405 C 296.123 211.746,291.346 211.419,290.133 213.898 C 289.306 215.588,287.604 216.448,286.479 215.744 C 285.438 215.092,285.374 212.503,286.364 211.163 C 286.816 210.552,287.378 209.189,287.615 208.133 C 287.852 207.077,288.280 205.940,288.566 205.606 C 288.853 205.273,289.294 204.152,289.546 203.115 C 290.662 198.523,293.305 196.634,295.700 198.716 M311.769 198.366 C 312.430 199.096,312.419 199.209,311.542 200.733 C 310.650 202.282,310.642 202.379,311.293 203.745 L 311.967 205.157 310.762 206.170 C 309.600 207.149,309.560 207.291,309.625 210.292 C 309.700 213.747,309.193 215.293,307.772 215.940 C 306.036 216.731,305.200 214.998,305.200 210.608 C 305.200 207.432,305.090 206.824,304.400 206.200 C 303.318 205.221,303.393 203.635,304.600 202.000 C 305.150 201.255,305.600 200.333,305.600 199.951 C 305.600 197.940,310.293 196.735,311.769 198.366 M328.090 198.300 C 329.171 199.533,329.096 214.504,328.003 215.597 C 325.784 217.816,324.446 214.737,324.875 208.400 C 325.046 205.870,325.177 202.584,325.165 201.098 C 325.145 198.634,325.226 198.362,326.072 198.023 C 327.358 197.507,327.400 197.513,328.090 198.300 M184.600 204.249 C 184.600 205.598,184.431 205.884,183.305 206.447 C 180.914 207.642,180.800 207.857,180.800 211.195 C 180.800 215.192,179.859 216.761,178.030 215.815 C 176.303 214.922,175.910 213.439,176.064 208.394 C 176.222 203.216,176.706 202.423,179.744 202.372 C 180.655 202.356,181.760 202.195,182.200 202.013 C 183.537 201.461,184.600 202.451,184.600 204.249 M194.236 201.995 C 195.722 202.013,198.400 205.544,198.400 207.484 C 198.400 210.430,197.829 210.967,194.961 210.714 C 191.997 210.453,190.640 210.816,192.099 211.481 C 192.692 211.751,193.294 211.786,193.637 211.569 C 196.805 209.563,199.164 212.455,196.399 214.953 C 191.284 219.574,184.000 212.497,187.104 205.922 C 188.281 203.429,191.136 201.445,193.000 201.826 C 193.440 201.916,193.996 201.992,194.236 201.995 M210.532 203.310 C 212.893 205.172,213.779 209.382,212.038 210.469 C 211.346 210.902,211.330 211.027,211.871 211.853 C 212.448 212.732,212.291 214.400,211.631 214.400 C 211.458 214.400,210.831 214.850,210.238 215.400 C 208.576 216.940,205.598 216.825,203.653 215.145 C 197.093 209.480,203.777 197.981,210.532 203.310 M224.573 202.163 C 228.979 204.004,229.708 216.000,225.414 216.000 C 223.962 216.000,223.547 214.820,223.469 210.468 L 223.400 206.600 222.000 206.600 L 220.600 206.600 220.400 210.641 C 220.173 215.236,219.750 216.108,217.843 215.920 C 216.007 215.740,215.612 214.550,215.612 209.200 C 215.612 203.304,215.912 202.633,218.611 202.507 C 219.705 202.455,221.140 202.246,221.800 202.041 C 222.460 201.836,223.051 201.653,223.113 201.634 C 223.175 201.615,223.832 201.853,224.573 202.163 M260.468 203.491 L 261.965 205.000 262.073 209.895 C 262.206 215.945,262.307 215.817,257.092 216.179 L 253.184 216.449 251.592 214.742 C 248.838 211.789,250.617 207.174,254.476 207.261 C 255.550 207.285,256.542 207.191,256.681 207.053 C 256.820 206.914,255.845 206.800,254.516 206.800 C 250.622 206.800,250.028 204.812,253.283 202.669 C 255.743 201.049,258.339 201.346,260.468 203.491 M340.513 202.151 C 342.731 203.100,344.223 205.003,343.769 206.302 C 343.290 207.669,341.962 207.921,340.208 206.976 C 337.601 205.572,336.353 206.761,336.741 210.277 C 336.915 211.854,338.412 212.214,340.098 211.085 C 343.662 208.695,345.710 212.146,342.319 214.826 C 338.938 217.499,335.391 216.643,333.010 212.582 C 329.882 207.243,335.184 199.871,340.513 202.151 M354.520 202.141 C 357.299 203.302,358.000 204.951,358.000 210.324 C 358.000 215.880,357.896 216.062,354.729 216.023 C 353.558 216.008,351.780 216.103,350.777 216.232 C 347.617 216.641,344.413 211.815,346.626 209.978 C 346.971 209.692,347.522 208.937,347.851 208.301 C 348.338 207.360,348.689 207.156,349.725 207.212 C 351.698 207.319,352.558 207.225,352.268 206.935 C 352.123 206.789,351.169 206.702,350.149 206.740 C 347.101 206.856,346.235 205.262,348.300 203.335 C 350.224 201.540,352.182 201.164,354.520 202.141 M240.798 203.137 C 241.424 203.762,242.153 205.067,242.418 206.037 C 242.919 207.863,243.502 207.501,243.572 205.322 C 243.610 204.139,245.172 202.472,246.383 202.322 C 248.184 202.099,249.028 205.077,247.665 206.846 C 247.261 207.371,246.726 208.839,246.477 210.109 C 245.195 216.632,241.553 218.057,239.773 212.732 L 239.061 210.600 238.564 212.532 C 237.062 218.367,233.205 216.510,231.637 209.196 C 231.390 208.045,230.897 206.610,230.541 206.008 C 229.516 204.273,230.241 202.636,232.105 202.477 C 233.759 202.337,234.249 202.937,234.752 205.719 L 235.055 207.400 236.228 205.433 C 238.452 201.702,239.058 201.397,240.798 203.137 M275.626 202.414 C 276.658 202.966,276.667 205.666,275.643 207.353 C 275.227 208.039,274.759 209.230,274.604 210.000 C 274.449 210.770,273.985 212.120,273.574 213.000 C 273.163 213.880,272.644 215.326,272.421 216.214 C 271.571 219.597,267.689 221.729,265.505 220.011 C 264.498 219.219,264.557 217.200,265.589 217.200 C 267.335 217.200,268.102 213.914,266.837 211.847 C 266.417 211.161,265.859 209.795,265.597 208.812 C 265.336 207.828,264.869 206.663,264.561 206.223 C 263.182 204.254,264.201 202.254,266.473 202.473 C 267.664 202.587,267.884 202.816,268.647 204.737 C 269.115 205.913,269.867 207.245,270.319 207.697 L 271.141 208.519 271.394 206.960 C 271.891 203.886,272.039 203.565,273.311 202.789 C 274.826 201.865,274.653 201.893,275.626 202.414 M321.986 202.774 C 323.027 204.719,321.877 206.800,319.761 206.800 C 318.738 206.800,318.400 208.031,318.400 211.761 C 318.400 215.753,315.595 217.742,314.115 214.800 C 313.435 213.449,313.435 204.951,314.115 203.600 C 314.892 202.057,321.245 201.390,321.986 202.774 M292.684 206.400 C 292.433 207.359,292.926 207.741,293.983 207.405 C 294.750 207.162,294.750 207.150,293.980 206.380 C 293.012 205.412,292.942 205.413,292.684 206.400 M191.600 206.772 C 190.623 207.058,190.630 207.071,191.929 207.370 C 193.348 207.697,193.843 207.516,193.416 206.827 C 193.125 206.355,193.037 206.352,191.600 206.772 M206.411 206.785 C 205.904 207.105,205.916 207.193,206.492 207.414 C 207.282 207.717,208.112 207.305,207.783 206.772 C 207.495 206.307,207.162 206.310,206.411 206.785 M206.483 210.682 C 206.097 210.828,206.079 211.014,206.414 211.417 C 206.740 211.810,207.133 211.854,207.857 211.578 C 208.404 211.370,209.320 211.200,209.893 211.200 C 210.465 211.200,210.858 211.135,210.767 211.056 C 210.454 210.787,207.002 210.485,206.483 210.682 M255.000 211.200 C 255.136 211.420,255.676 211.600,256.200 211.600 C 256.724 211.600,257.264 211.420,257.400 211.200 C 257.547 210.961,257.063 210.800,256.200 210.800 C 255.337 210.800,254.853 210.961,255.000 211.200 M350.800 211.200 C 350.800 211.420,351.329 211.600,351.976 211.600 C 352.623 211.600,353.264 211.420,353.400 211.200 C 353.547 210.962,353.071 210.800,352.224 210.800 C 351.441 210.800,350.800 210.980,350.800 211.200 M160.600 230.271 C 161.700 230.380,163.410 230.452,164.400 230.432 C 165.390 230.411,168.776 230.338,171.925 230.270 C 178.227 230.134,178.400 230.199,178.400 232.685 C 178.400 234.520,177.387 235.651,176.162 235.185 C 175.604 234.973,173.664 234.800,171.850 234.800 C 169.655 234.800,168.297 234.613,167.787 234.240 C 167.131 233.760,166.907 233.760,166.222 234.240 C 165.163 234.981,159.366 234.974,158.022 234.230 C 157.303 233.832,156.803 233.798,156.134 234.103 C 154.886 234.672,154.000 233.873,154.000 232.180 C 154.000 230.228,154.969 229.450,156.972 229.794 C 157.867 229.947,159.500 230.162,160.600 230.271 M211.486 230.550 C 211.753 230.798,212.011 231.541,212.059 232.200 C 212.267 235.063,209.828 236.408,208.117 234.374 C 207.291 233.393,207.017 233.290,206.130 233.627 C 204.598 234.209,202.932 231.486,204.019 230.177 C 204.568 229.516,210.702 229.822,211.486 230.550 M225.400 229.965 C 226.687 229.870,227.927 229.894,232.800 230.111 L 237.400 230.316 238.270 231.832 L 239.140 233.347 239.996 231.896 C 241.226 229.813,242.719 229.418,247.176 229.997 C 249.733 230.329,250.967 230.339,251.544 230.030 C 252.715 229.403,253.790 229.501,254.811 230.328 L 255.710 231.057 254.368 232.311 C 252.896 233.687,249.700 234.913,248.040 234.739 C 247.458 234.678,246.444 234.851,245.786 235.123 C 244.814 235.525,244.235 235.512,242.708 235.052 C 241.101 234.569,240.759 234.567,240.364 235.043 C 239.752 235.781,237.850 235.750,236.356 234.977 C 235.365 234.465,234.899 234.437,233.729 234.823 C 232.947 235.082,231.583 235.196,230.699 235.077 C 229.814 234.958,228.649 235.029,228.109 235.234 C 227.424 235.495,226.592 235.425,225.350 235.004 C 224.372 234.672,223.066 234.400,222.448 234.400 C 220.950 234.400,220.007 233.307,220.282 231.888 C 220.574 230.383,221.890 229.497,223.400 229.791 C 224.060 229.919,224.960 229.997,225.400 229.965 M270.545 230.500 C 272.913 232.652,270.766 236.327,267.773 235.245 C 266.990 234.961,264.875 234.736,263.074 234.744 C 257.504 234.769,256.473 234.166,257.777 231.645 C 258.618 230.019,259.068 229.821,260.218 230.575 C 261.112 231.161,261.286 231.162,262.158 230.591 C 262.717 230.225,263.507 230.061,264.058 230.198 C 264.576 230.327,265.720 230.263,266.600 230.057 C 269.049 229.481,269.477 229.529,270.545 230.500 M302.047 230.488 C 302.555 231.436,302.300 234.660,301.667 235.293 C 301.102 235.858,298.898 234.943,297.691 233.643 L 296.782 232.663 295.491 233.632 C 294.290 234.533,293.812 234.608,288.600 234.712 C 285.350 234.777,282.613 235.020,282.078 235.291 C 281.408 235.631,280.848 235.642,280.029 235.333 C 279.409 235.099,277.996 234.995,276.890 235.101 C 274.610 235.320,273.774 234.505,273.939 232.227 C 274.136 229.514,277.917 229.210,280.093 231.733 L 281.187 233.000 282.508 231.454 L 283.828 229.908 287.214 230.141 C 289.076 230.269,290.780 230.392,291.000 230.414 C 291.220 230.436,292.570 230.295,294.000 230.100 C 298.940 229.428,301.547 229.553,302.047 230.488 M310.948 230.121 C 312.579 229.952,313.422 230.054,314.104 230.500 C 314.903 231.024,315.142 231.032,315.794 230.555 C 316.801 229.819,317.307 229.855,318.228 230.729 C 318.973 231.436,319.017 231.432,319.683 230.586 C 320.452 229.608,327.098 229.338,328.007 230.247 C 329.206 231.446,327.344 234.026,325.972 233.065 C 325.172 232.505,325.043 232.538,324.206 233.511 L 323.303 234.561 315.833 234.676 C 311.724 234.740,308.037 234.966,307.639 235.179 C 306.309 235.891,304.480 233.358,304.868 231.342 C 305.063 230.328,306.708 229.585,307.821 230.008 C 308.316 230.196,309.723 230.247,310.948 230.121 M347.845 231.449 L 349.089 232.907 350.793 231.253 C 352.740 229.363,353.093 229.286,354.546 230.429 C 358.311 233.390,352.095 237.103,346.963 234.959 C 345.118 234.188,341.535 234.245,340.101 235.068 C 338.986 235.708,338.900 235.700,338.084 234.884 C 337.347 234.147,337.062 234.090,335.987 234.464 C 332.933 235.529,329.756 234.182,330.260 232.035 C 330.667 230.302,331.017 230.202,336.838 230.148 C 339.918 230.119,342.564 229.967,342.719 229.810 C 343.499 229.016,346.619 230.014,347.845 231.449 M183.949 230.538 C 186.158 233.201,183.208 236.408,180.781 233.981 L 179.962 233.162 181.215 231.581 C 182.536 229.913,183.215 229.654,183.949 230.538 M192.200 230.370 C 192.640 230.543,193.509 230.508,194.131 230.292 C 194.873 230.035,195.561 230.036,196.131 230.296 C 196.675 230.544,197.372 230.554,197.993 230.324 C 200.450 229.415,201.592 231.732,199.660 233.704 C 198.710 234.673,189.397 235.185,188.278 234.330 C 185.243 232.011,188.361 228.862,192.200 230.370 M217.682 230.700 C 219.305 232.576,218.501 234.800,216.200 234.800 C 213.505 234.800,213.083 231.945,215.577 230.589 C 216.901 229.869,216.965 229.872,217.682 230.700 " stroke="none" fill="#fbfbfb" fill-rule="evenodd"></path><path id="path1" d="M88.400 148.033 C 81.460 153.530,72.571 163.905,73.773 165.106 C 73.880 165.213,75.460 164.553,77.284 163.638 C 80.616 161.967,82.787 161.227,87.600 160.123 C 91.506 159.227,102.164 159.610,105.290 160.759 C 106.550 161.221,107.820 161.600,108.114 161.600 C 109.922 161.600,118.656 166.860,121.901 169.902 C 123.626 171.521,123.603 171.614,123.714 162.605 L 123.810 154.761 121.970 153.581 C 120.958 152.931,119.945 152.400,119.719 152.400 C 119.493 152.400,118.879 152.074,118.354 151.676 C 117.829 151.277,116.590 150.722,115.600 150.441 C 114.610 150.161,113.434 149.698,112.986 149.412 C 112.538 149.127,110.776 148.605,109.070 148.253 C 107.364 147.900,105.597 147.413,105.144 147.170 C 104.689 146.927,101.242 146.630,97.460 146.510 L 90.600 146.290 88.400 148.033 M128.432 158.561 C 127.628 159.530,128.039 241.358,128.849 241.514 C 131.073 241.942,131.200 240.613,131.200 216.826 C 131.200 191.857,130.811 194.190,135.100 193.412 C 145.543 191.518,150.619 188.199,154.407 180.791 C 156.597 176.505,156.604 173.992,154.424 174.003 C 150.171 174.024,140.800 176.514,140.800 177.624 C 140.800 177.801,140.401 178.073,139.914 178.227 C 138.783 178.586,134.595 182.756,134.239 183.878 C 133.851 185.100,133.145 185.557,131.988 185.335 L 130.976 185.140 131.136 173.523 C 131.304 161.353,131.107 159.434,129.593 158.489 C 129.039 158.142,128.766 158.159,128.432 158.561 M48.277 173.700 C 47.907 174.415,47.439 175.270,47.237 175.600 C 46.378 177.000,44.831 180.773,44.202 183.000 C 43.829 184.320,43.379 185.580,43.200 185.800 C 41.238 188.222,41.365 210.371,43.364 214.363 C 43.650 214.934,44.101 216.300,44.368 217.400 C 44.634 218.500,45.094 219.773,45.389 220.229 C 45.684 220.685,46.139 221.765,46.400 222.629 C 46.661 223.493,47.295 224.514,47.809 224.898 L 48.744 225.595 49.572 223.383 C 50.027 222.166,50.401 220.952,50.402 220.685 C 50.404 220.418,50.653 219.725,50.955 219.145 C 51.258 218.565,51.825 217.129,52.216 215.953 C 53.086 213.333,54.774 209.471,55.168 209.200 C 55.328 209.090,55.228 207.470,54.946 205.600 C 54.224 200.804,54.281 198.229,55.227 192.943 C 55.957 188.866,55.985 188.245,55.466 187.661 C 55.143 187.298,54.607 186.100,54.276 185.000 C 53.945 183.900,53.325 182.190,52.899 181.200 C 52.472 180.210,51.529 177.825,50.804 175.900 C 49.325 171.973,49.217 171.880,48.277 173.700 M79.839 173.924 C 79.505 174.570,79.311 175.178,79.409 175.275 C 79.506 175.372,79.853 176.850,80.180 178.560 C 81.046 183.089,84.081 189.382,87.710 194.176 C 89.269 196.234,94.611 201.463,95.827 202.120 C 103.310 206.162,112.886 208.927,120.600 209.274 L 123.400 209.400 123.520 207.965 C 123.586 207.175,123.352 205.735,123.000 204.765 C 122.648 203.794,122.103 202.180,121.788 201.178 C 121.473 200.176,120.717 198.466,120.108 197.378 L 119.000 195.400 115.200 195.369 C 103.643 195.275,93.478 191.369,86.891 184.492 C 81.281 178.634,80.245 174.236,85.501 178.585 C 86.985 179.814,88.408 180.986,88.663 181.191 C 92.225 184.049,105.255 187.600,112.183 187.600 C 114.505 187.600,114.267 186.954,110.661 183.472 C 104.055 177.092,94.617 173.275,84.523 172.901 L 80.447 172.749 79.839 173.924 M164.434 199.195 C 164.808 199.414,165.547 199.423,166.234 199.217 C 167.310 198.896,167.262 198.867,165.600 198.847 C 164.312 198.831,163.981 198.930,164.434 199.195 M292.643 200.233 C 291.964 202.000,294.508 205.043,295.425 203.560 C 295.928 202.746,295.105 200.485,294.146 200.048 C 292.904 199.482,292.932 199.479,292.643 200.233 M168.069 200.516 C 167.535 201.161,168.852 202.108,169.784 201.751 C 170.577 201.447,170.560 201.210,169.700 200.557 C 168.814 199.885,168.598 199.879,168.069 200.516 M160.667 200.667 C 160.520 200.813,160.400 201.353,160.400 201.867 C 160.400 202.522,160.170 202.800,159.629 202.800 C 157.908 202.800,158.088 209.844,159.851 211.481 C 160.373 211.965,160.800 212.640,160.800 212.981 C 160.800 213.420,161.201 213.600,162.176 213.600 C 163.922 213.600,164.358 212.972,162.826 212.665 C 162.138 212.528,161.559 212.100,161.405 211.616 C 161.263 211.167,160.909 210.800,160.620 210.800 C 158.808 210.800,159.212 204.360,161.147 202.407 C 162.300 201.242,162.546 200.788,162.114 200.622 C 161.354 200.331,160.992 200.342,160.667 200.667 M306.592 202.080 C 306.435 203.026,306.149 204.100,305.957 204.468 C 305.724 204.910,305.774 205.191,306.103 205.301 C 306.446 205.415,306.628 206.695,306.689 209.433 C 306.738 211.615,306.783 213.546,306.789 213.724 C 306.795 213.902,306.980 213.936,307.200 213.800 C 307.420 213.664,307.600 211.950,307.600 209.992 C 307.600 206.863,307.704 206.334,308.461 205.629 C 309.189 204.951,309.240 204.730,308.794 204.193 C 308.504 203.844,308.161 202.907,308.032 202.112 C 307.696 200.041,306.933 200.024,306.592 202.080 M290.816 204.157 C 290.616 204.683,290.554 205.504,290.679 205.980 C 290.834 206.574,290.585 207.184,289.886 207.923 C 289.240 208.605,288.765 209.689,288.591 210.879 C 288.408 212.124,288.094 212.817,287.658 212.932 C 287.296 213.029,287.495 213.128,288.100 213.154 C 288.738 213.181,289.200 212.990,289.200 212.700 C 289.200 212.425,289.828 211.495,290.594 210.634 C 291.649 209.449,291.883 208.941,291.554 208.544 C 291.274 208.207,291.219 207.161,291.399 205.610 C 291.689 203.110,291.445 202.502,290.816 204.157 M238.647 204.623 C 238.250 205.656,238.362 207.530,238.838 207.824 C 239.597 208.292,240.472 207.027,240.184 205.879 C 239.829 204.464,238.975 203.766,238.647 204.623 M178.618 204.715 C 178.240 205.094,178.382 213.542,178.771 213.782 C 179.284 214.099,179.711 212.581,179.393 211.577 C 178.563 208.964,180.220 205.200,182.200 205.200 C 182.750 205.200,183.200 205.065,183.199 204.900 C 183.198 204.556,178.949 204.385,178.618 204.715 M194.531 204.719 C 194.189 204.930,194.213 205.204,194.623 205.764 C 195.137 206.467,195.198 206.472,195.442 205.835 C 195.757 205.015,195.185 204.315,194.531 204.719 M204.606 204.790 C 204.291 205.300,204.946 205.604,205.553 205.229 C 205.954 204.981,205.931 204.859,205.446 204.673 C 205.105 204.542,204.727 204.595,204.606 204.790 M208.606 204.790 C 208.283 205.313,209.204 205.756,209.662 205.298 C 209.918 205.042,209.841 204.824,209.440 204.671 C 209.102 204.541,208.727 204.595,208.606 204.790 M223.895 204.639 C 223.748 204.785,223.892 205.281,224.214 205.742 C 224.629 206.333,224.800 207.688,224.800 210.375 C 224.800 213.494,224.891 214.067,225.311 213.586 C 226.667 212.030,225.278 203.255,223.895 204.639 M232.722 204.603 C 232.587 204.822,232.579 205.901,232.705 207.000 C 232.903 208.726,232.974 208.854,233.224 207.934 C 233.540 206.766,233.118 203.962,232.722 204.603 M258.534 204.672 C 258.227 204.785,258.174 205.213,258.379 205.926 C 258.949 207.914,258.272 208.792,256.113 208.863 L 254.200 208.926 256.159 209.163 C 258.554 209.453,259.193 210.224,258.518 212.012 C 258.133 213.031,258.155 213.285,258.643 213.472 C 259.659 213.862,259.799 213.259,259.662 209.069 C 259.529 204.954,259.377 204.361,258.534 204.672 M266.559 204.668 C 266.244 204.782,266.233 205.335,266.522 206.598 C 267.003 208.698,267.600 208.589,267.600 206.400 C 267.600 204.814,267.341 204.384,266.559 204.668 M316.300 204.676 C 315.426 204.904,315.413 205.677,316.253 207.303 L 316.906 208.566 317.353 207.183 C 317.692 206.135,318.128 205.694,319.157 205.361 C 321.194 204.703,318.589 204.077,316.300 204.676 M326.679 204.693 C 326.406 205.170,326.358 212.437,326.622 213.270 C 327.176 215.014,327.600 213.247,327.600 209.200 C 327.600 205.392,327.253 203.693,326.679 204.693 M340.198 204.803 C 339.885 205.310,341.004 205.768,341.624 205.385 C 341.961 205.177,341.939 205.007,341.543 204.756 C 340.828 204.303,340.500 204.314,340.198 204.803 M354.236 204.742 C 354.105 204.953,354.154 205.548,354.345 206.063 C 354.960 207.727,354.141 208.741,352.045 208.908 L 350.200 209.056 352.109 209.128 C 354.391 209.214,355.295 210.396,354.467 212.213 C 354.085 213.050,354.114 213.269,354.629 213.467 C 355.701 213.878,355.863 213.129,355.628 208.832 C 355.417 204.972,354.947 203.591,354.236 204.742 M188.657 206.300 C 187.979 210.403,188.505 213.205,189.950 213.188 C 190.856 213.177,190.904 213.120,190.300 212.768 C 189.527 212.317,189.380 210.759,190.001 209.598 C 190.269 209.097,190.269 208.766,190.001 208.601 C 189.138 208.067,189.534 205.268,190.500 205.082 C 191.179 204.951,191.094 204.896,190.152 204.854 C 189.008 204.805,188.884 204.924,188.657 206.300 M217.487 205.613 C 217.875 207.096,218.988 207.296,219.488 205.973 C 219.922 204.822,219.905 204.800,218.603 204.800 C 217.465 204.800,217.305 204.916,217.487 205.613 M244.847 207.300 C 244.885 209.290,244.957 209.555,245.200 208.600 C 245.655 206.813,245.655 204.800,245.200 204.800 C 244.971 204.800,244.820 205.868,244.847 207.300 M296.648 206.000 C 296.484 206.770,296.157 207.900,295.922 208.510 C 295.468 209.689,296.316 211.200,297.431 211.200 C 297.710 211.200,298.149 211.838,298.406 212.618 C 298.774 213.734,298.988 213.942,299.408 213.594 C 299.996 213.105,299.466 210.858,298.634 210.317 C 298.396 210.162,297.918 208.812,297.573 207.317 C 296.958 204.657,296.939 204.630,296.648 206.000 M334.643 206.500 C 334.116 210.856,334.565 213.203,335.925 213.188 C 336.812 213.178,336.884 213.108,336.335 212.788 C 334.785 211.883,334.939 205.843,336.528 205.202 C 337.305 204.889,337.261 204.848,336.125 204.825 C 334.918 204.801,334.838 204.892,334.643 206.500 M273.100 205.828 C 272.935 205.996,272.816 207.048,272.836 208.167 C 272.871 210.154,272.881 210.170,273.259 208.857 C 273.683 207.383,273.576 205.344,273.100 205.828 M202.800 209.120 C 202.800 211.040,202.966 212.400,203.200 212.400 C 203.420 212.400,203.600 212.028,203.600 211.574 C 203.600 211.119,203.777 210.417,203.993 210.013 C 204.256 209.522,204.238 208.836,203.938 207.939 C 203.112 205.466,202.800 205.789,202.800 209.120 M210.678 206.255 C 210.278 206.656,210.335 208.713,210.754 208.972 C 211.209 209.253,211.619 207.164,211.242 206.489 C 211.084 206.208,210.831 206.103,210.678 206.255 M166.800 207.145 C 166.800 207.334,167.250 207.403,167.800 207.298 C 168.350 207.193,168.800 207.038,168.800 206.953 C 168.800 206.869,168.350 206.800,167.800 206.800 C 167.250 206.800,166.800 206.955,166.800 207.145 M170.247 207.712 C 169.576 208.206,169.547 208.428,169.983 209.749 C 170.567 211.519,170.163 212.219,168.250 212.751 C 166.545 213.224,167.838 213.795,169.788 213.429 C 171.410 213.124,171.955 211.492,171.350 208.747 C 171.027 207.278,170.943 207.199,170.247 207.712 M252.576 210.953 C 252.185 212.509,252.687 214.192,253.372 213.623 C 253.760 213.301,253.821 212.780,253.590 211.757 C 253.169 209.891,252.897 209.675,252.576 210.953 M348.576 210.953 C 348.185 212.509,348.687 214.192,349.372 213.623 C 349.760 213.301,349.821 212.780,349.590 211.757 C 349.169 209.891,348.897 209.675,348.576 210.953 M234.667 210.667 C 234.283 211.051,234.350 212.901,234.772 213.568 C 235.387 214.540,237.200 213.063,237.200 211.591 C 237.200 210.424,235.522 209.812,234.667 210.667 M242.100 210.660 C 241.348 210.971,241.499 212.985,242.332 213.739 C 243.019 214.360,243.095 214.343,243.568 213.460 C 244.542 211.640,243.685 210.006,242.100 210.660 M268.800 211.632 C 268.800 212.837,270.234 215.591,270.865 215.597 C 271.278 215.602,271.695 212.529,271.405 211.617 C 271.263 211.168,270.903 210.800,270.606 210.800 C 270.309 210.800,269.781 210.691,269.433 210.557 C 268.935 210.366,268.800 210.595,268.800 211.632 M340.483 212.670 C 340.084 212.831,340.074 213.007,340.436 213.444 C 340.790 213.870,341.040 213.899,341.449 213.560 C 342.349 212.812,341.675 212.192,340.483 212.670 M268.833 216.560 C 268.527 216.929,268.468 217.392,268.679 217.769 C 268.976 218.301,269.079 218.286,269.473 217.654 C 270.082 216.679,269.525 215.727,268.833 216.560 M266.800 218.800 C 266.334 219.101,266.451 219.189,267.324 219.194 C 267.972 219.197,268.343 219.031,268.200 218.800 C 267.893 218.303,267.569 218.303,266.800 218.800 M122.346 229.500 C 121.106 230.874,117.107 233.957,115.600 234.701 C 115.050 234.972,114.330 235.372,114.000 235.588 C 112.739 236.417,108.138 238.337,106.800 238.593 C 106.030 238.740,104.590 239.162,103.600 239.531 C 100.967 240.510,89.052 240.495,86.200 239.508 C 85.100 239.128,83.165 238.538,81.900 238.197 C 80.635 237.856,79.600 237.403,79.600 237.189 C 79.600 236.975,79.138 236.800,78.573 236.800 C 76.462 236.800,81.108 244.334,87.349 251.033 L 89.555 253.400 95.677 253.370 C 101.969 253.339,109.549 252.074,112.455 250.572 C 113.063 250.257,113.811 250.000,114.117 250.000 C 114.933 250.000,122.621 246.098,123.215 245.382 C 123.659 244.847,123.814 238.842,123.619 229.700 C 123.596 228.619,123.198 228.557,122.346 229.500 " stroke="none" fill="#26719e" fill-rule="evenodd"></path><path id="path2" d="M84.800 146.820 C 81.684 147.549,77.302 148.902,75.704 149.629 C 74.772 150.053,73.861 150.400,73.681 150.400 C 72.930 150.400,66.709 153.821,64.427 155.489 C 57.943 160.228,52.758 165.651,50.143 170.430 L 49.286 171.996 50.860 176.098 C 51.725 178.354,52.780 181.010,53.203 182.000 C 53.626 182.990,54.187 184.567,54.451 185.505 C 55.309 188.561,56.843 188.812,57.595 186.020 C 57.835 185.128,58.620 183.273,59.340 181.899 C 60.549 179.592,61.083 178.732,63.747 174.800 C 64.720 173.363,67.322 170.846,71.286 167.505 C 72.762 166.261,73.625 165.196,73.799 164.403 C 74.355 161.874,82.192 152.995,87.900 148.427 C 88.835 147.678,89.600 146.916,89.600 146.733 C 89.600 146.323,86.698 146.375,84.800 146.820 M82.274 176.659 C 81.464 177.469,83.545 180.998,86.891 184.492 C 93.274 191.157,101.962 194.641,114.261 195.469 C 119.911 195.849,120.006 195.656,116.663 190.600 C 114.716 187.655,114.655 187.614,112.269 187.606 C 105.195 187.584,92.242 184.063,88.663 181.191 C 88.408 180.986,86.998 179.825,85.530 178.610 C 82.702 176.270,82.678 176.256,82.274 176.659 M53.704 212.100 C 53.041 213.695,52.366 215.450,52.204 216.000 C 52.043 216.550,51.666 217.540,51.367 218.200 C 51.068 218.860,50.475 220.480,50.050 221.800 C 49.625 223.120,49.056 224.745,48.785 225.411 C 47.426 228.749,58.395 241.280,66.975 246.191 C 70.590 248.260,73.085 249.500,74.651 250.005 C 75.503 250.280,76.382 250.647,76.605 250.822 C 77.171 251.267,86.535 253.600,87.753 253.600 C 89.399 253.600,89.246 253.110,86.756 250.393 C 83.748 247.112,79.502 241.223,78.205 238.534 C 77.130 236.305,76.396 235.618,72.400 233.106 C 69.161 231.069,63.802 225.772,61.791 222.620 C 59.990 219.796,58.000 216.076,58.000 215.532 C 58.000 214.822,55.530 209.200,55.218 209.200 C 55.049 209.200,54.368 210.505,53.704 212.100 " stroke="none" fill="#87b319" fill-rule="evenodd"></path><path id="path3" d="M85.459 145.663 C 83.731 145.861,81.841 146.263,81.259 146.557 C 80.676 146.852,79.210 147.322,78.000 147.602 C 76.790 147.882,75.170 148.430,74.400 148.818 C 73.630 149.207,71.650 150.179,70.000 150.977 C 65.264 153.271,57.344 159.189,55.055 162.145 C 54.520 162.835,53.569 163.984,52.941 164.697 C 52.314 165.410,51.350 166.632,50.800 167.413 C 50.250 168.194,49.301 169.485,48.691 170.283 C 48.081 171.080,47.476 172.153,47.348 172.666 C 47.219 173.180,46.944 173.600,46.736 173.600 C 46.529 173.600,46.091 174.275,45.763 175.100 C 45.435 175.925,44.814 177.255,44.383 178.054 C 43.952 178.854,43.600 179.851,43.600 180.270 C 43.600 180.688,43.235 181.744,42.790 182.615 C 42.344 183.487,41.790 185.460,41.557 187.000 C 41.325 188.540,40.859 190.610,40.522 191.600 C 39.739 193.900,39.639 205.961,40.387 207.800 C 40.656 208.460,41.124 210.509,41.427 212.354 C 41.731 214.199,42.241 216.108,42.560 216.596 C 42.880 217.084,43.262 218.184,43.408 219.042 C 43.555 219.899,43.990 221.050,44.374 221.600 C 44.759 222.150,45.289 223.253,45.552 224.052 C 45.815 224.850,46.383 225.823,46.815 226.214 C 47.247 226.604,47.600 227.148,47.600 227.422 C 47.600 227.696,48.223 228.846,48.985 229.977 C 50.266 231.881,50.839 232.670,52.707 235.103 C 55.683 238.981,64.718 246.800,66.222 246.800 C 66.493 246.800,66.811 247.052,66.929 247.360 C 67.047 247.668,67.832 248.144,68.672 248.418 C 69.512 248.692,70.623 249.245,71.141 249.648 C 71.658 250.050,72.686 250.493,73.426 250.631 C 74.166 250.770,74.972 251.125,75.216 251.420 C 75.461 251.715,76.683 252.158,77.931 252.405 C 79.179 252.653,80.792 253.124,81.516 253.454 C 85.338 255.193,105.105 255.203,107.755 253.466 C 108.251 253.141,109.681 252.747,110.934 252.591 C 112.186 252.434,113.614 251.994,114.106 251.611 C 114.597 251.229,115.676 250.792,116.502 250.640 C 117.327 250.488,118.317 250.032,118.702 249.628 C 119.086 249.224,119.994 248.766,120.719 248.611 C 121.445 248.455,122.253 247.984,122.515 247.564 C 122.778 247.144,123.197 246.800,123.447 246.800 C 124.684 246.800,124.849 245.614,124.820 236.929 C 124.795 229.241,124.711 228.140,124.119 227.700 C 123.159 226.986,123.044 227.029,121.216 228.785 C 119.171 230.749,116.639 232.589,114.807 233.441 C 114.040 233.797,112.981 234.429,112.453 234.844 C 111.924 235.260,111.199 235.600,110.840 235.600 C 110.482 235.600,109.485 235.977,108.626 236.437 C 107.767 236.897,105.880 237.455,104.432 237.676 C 102.985 237.897,100.817 238.331,99.616 238.639 C 98.415 238.948,96.338 239.200,95.000 239.200 C 93.662 239.200,91.585 238.948,90.384 238.639 C 89.183 238.331,87.008 237.896,85.552 237.674 C 84.095 237.451,82.168 236.894,81.268 236.435 C 80.368 235.976,79.399 235.600,79.113 235.600 C 78.327 235.600,71.074 231.181,70.477 230.338 C 70.190 229.932,69.799 229.600,69.609 229.600 C 68.941 229.600,62.814 222.900,62.789 222.142 C 62.783 221.954,62.243 221.093,61.589 220.229 C 60.935 219.365,60.400 218.402,60.400 218.090 C 60.400 217.779,60.067 217.046,59.661 216.462 C 59.254 215.878,58.703 214.500,58.435 213.400 C 58.167 212.300,57.645 210.950,57.274 210.400 C 56.262 208.899,56.262 191.101,57.274 189.600 C 57.645 189.050,58.168 187.700,58.437 186.600 C 58.707 185.500,59.246 184.187,59.636 183.681 C 60.026 183.176,60.461 182.231,60.604 181.581 C 60.747 180.932,61.013 180.400,61.196 180.400 C 61.379 180.400,61.921 179.590,62.400 178.600 C 62.879 177.610,63.423 176.800,63.609 176.800 C 63.794 176.800,64.048 176.485,64.173 176.100 C 64.450 175.249,68.970 170.400,69.487 170.400 C 69.690 170.400,70.232 169.995,70.692 169.500 C 71.810 168.296,73.475 167.147,75.299 166.320 C 76.125 165.945,76.800 165.473,76.800 165.271 C 76.800 165.068,77.493 164.791,78.340 164.656 C 79.187 164.521,80.312 164.072,80.840 163.660 C 81.368 163.248,83.047 162.695,84.570 162.431 C 86.094 162.168,87.961 161.693,88.719 161.376 C 90.647 160.570,99.997 160.571,101.556 161.377 C 102.170 161.695,103.916 162.169,105.436 162.432 C 106.956 162.695,108.610 163.230,109.112 163.622 C 109.613 164.013,110.738 164.454,111.612 164.602 C 112.485 164.750,113.200 165.045,113.200 165.258 C 113.200 165.471,114.010 166.003,115.000 166.441 C 115.990 166.879,116.800 167.379,116.800 167.551 C 116.800 167.724,117.295 168.118,117.900 168.427 C 118.961 168.969,119.446 169.364,121.876 171.663 C 124.499 174.145,124.800 173.261,124.800 163.079 L 124.800 154.132 123.695 153.148 C 122.722 152.281,120.487 151.110,114.556 148.362 C 113.652 147.943,112.482 147.596,111.956 147.591 C 111.430 147.586,110.190 147.211,109.200 146.758 C 106.068 145.323,93.510 144.744,85.459 145.663 M102.000 145.976 C 108.618 146.680,119.011 150.388,123.100 153.504 L 124.400 154.495 124.400 162.833 C 124.400 172.542,124.149 173.230,121.572 170.571 C 117.494 166.363,109.786 162.550,101.800 160.788 C 99.699 160.324,90.243 160.333,88.200 160.801 C 82.531 162.098,77.148 164.094,75.515 165.505 C 75.138 165.831,74.546 165.988,74.198 165.855 C 73.212 165.476,65.499 172.197,63.473 175.200 C 60.927 178.973,60.002 180.509,58.876 182.832 C 58.174 184.279,57.600 185.764,57.600 186.132 C 57.600 186.499,57.285 187.117,56.900 187.505 C 56.092 188.320,56.051 188.831,55.843 200.800 L 55.693 209.400 56.901 212.600 C 60.429 221.941,65.668 228.872,72.400 233.106 C 73.830 234.005,75.502 235.133,76.115 235.613 C 76.818 236.163,77.545 236.403,78.083 236.262 C 78.572 236.135,79.854 236.459,81.080 237.020 C 82.259 237.559,83.443 238.002,83.712 238.005 C 83.980 238.007,85.640 238.365,87.400 238.800 C 98.227 241.475,111.370 237.928,121.111 229.702 C 124.329 226.985,124.400 227.147,124.400 237.244 L 124.400 245.590 122.700 246.686 C 118.825 249.186,113.616 251.347,108.400 252.619 C 106.970 252.967,105.179 253.410,104.420 253.602 C 101.705 254.290,92.252 254.546,90.566 253.978 C 89.705 253.687,88.536 253.494,87.968 253.548 C 86.865 253.653,77.283 251.354,76.605 250.822 C 76.382 250.647,75.503 250.280,74.651 250.005 C 73.079 249.498,70.554 248.243,66.975 246.188 C 62.187 243.439,54.836 236.769,52.050 232.645 C 49.968 229.563,48.431 226.992,48.416 226.564 C 48.407 226.325,47.968 225.932,47.440 225.691 C 46.859 225.426,46.286 224.651,45.988 223.727 C 45.718 222.887,45.256 221.750,44.961 221.200 C 38.341 208.841,40.105 181.556,48.071 173.109 C 48.806 172.330,49.726 171.086,50.114 170.346 C 52.673 165.463,60.317 157.933,66.800 153.909 C 68.678 152.743,73.273 150.400,73.681 150.400 C 73.861 150.400,74.772 150.053,75.704 149.629 C 78.174 148.506,82.984 147.182,86.200 146.740 C 87.740 146.529,89.630 146.209,90.400 146.028 C 92.354 145.571,97.959 145.546,102.000 145.976 M125.591 156.500 C 125.585 156.555,125.614 160.110,125.655 164.400 C 125.740 173.365,125.765 206.806,125.688 208.600 C 125.659 209.260,125.728 213.438,125.841 217.884 C 125.954 222.330,125.894 226.560,125.708 227.284 C 125.521 228.008,125.439 231.795,125.524 235.700 L 125.679 242.800 127.819 242.800 C 129.717 242.800,130.097 242.653,131.178 241.500 L 132.396 240.200 132.398 218.750 C 132.400 192.524,132.021 194.968,136.140 194.622 C 137.933 194.472,140.120 194.025,141.000 193.630 C 141.880 193.234,143.344 192.705,144.253 192.454 C 145.161 192.202,146.128 191.727,146.402 191.398 C 146.675 191.069,147.132 190.800,147.417 190.800 C 148.122 190.800,152.800 186.079,152.800 185.368 C 152.800 185.056,153.048 184.800,153.351 184.800 C 153.655 184.800,154.142 184.223,154.434 183.517 C 154.727 182.812,155.269 181.931,155.641 181.559 C 156.012 181.188,156.447 180.105,156.608 179.151 C 156.769 178.198,157.168 177.010,157.495 176.512 C 158.933 174.317,156.594 172.130,153.234 172.528 C 148.923 173.038,144.238 174.021,143.643 174.539 C 143.289 174.847,142.312 175.320,141.472 175.590 C 140.632 175.860,139.850 176.326,139.735 176.625 C 139.620 176.925,139.160 177.286,138.712 177.428 C 137.688 177.753,133.708 181.831,133.367 182.904 C 132.683 185.059,132.412 181.725,132.406 171.101 L 132.400 159.602 130.953 158.001 C 129.705 156.620,125.685 155.494,125.591 156.500 M130.304 158.100 C 131.867 159.769,132.000 160.886,132.000 172.377 C 132.000 184.258,132.292 186.094,133.742 183.328 C 136.185 178.667,143.391 174.476,150.484 173.590 C 156.656 172.820,157.591 173.412,156.543 177.425 C 154.251 186.202,145.834 192.877,135.400 194.193 C 134.300 194.332,133.085 194.537,132.700 194.650 C 132.044 194.841,132.000 196.251,132.000 216.967 L 132.000 239.080 130.797 240.740 C 129.507 242.521,128.489 242.819,127.515 241.700 C 126.977 241.083,126.904 236.146,126.895 200.000 C 126.885 156.310,126.847 157.200,128.739 157.200 C 129.136 157.200,129.840 157.605,130.304 158.100 M78.716 172.000 C 77.320 172.860,77.402 175.466,78.967 180.000 C 79.309 180.990,79.681 182.282,79.795 182.872 C 79.908 183.462,80.249 184.192,80.552 184.495 C 80.855 184.798,81.233 185.638,81.392 186.363 C 81.551 187.088,81.986 187.986,82.358 188.358 C 82.730 188.730,83.268 189.599,83.554 190.288 C 83.839 190.978,84.417 191.853,84.837 192.233 C 85.256 192.613,85.600 193.165,85.600 193.459 C 85.600 193.753,85.960 194.218,86.400 194.493 C 86.840 194.768,87.200 195.199,87.200 195.452 C 87.200 196.125,93.792 202.800,94.456 202.800 C 94.768 202.800,95.326 203.155,95.698 203.589 C 96.069 204.023,96.874 204.500,97.487 204.650 C 98.099 204.800,99.023 205.250,99.541 205.650 C 100.058 206.051,101.128 206.500,101.918 206.648 C 102.708 206.797,103.905 207.237,104.577 207.627 C 105.250 208.017,106.880 208.463,108.200 208.619 C 109.520 208.775,111.131 209.172,111.779 209.502 C 113.367 210.310,122.579 211.029,123.861 210.445 C 125.246 209.814,124.943 203.348,123.447 201.628 C 123.147 201.283,122.784 200.343,122.640 199.541 C 122.497 198.738,122.050 197.658,121.648 197.141 C 121.245 196.623,120.697 195.526,120.428 194.703 C 120.160 193.880,119.728 193.070,119.470 192.903 C 119.211 192.736,118.688 191.925,118.306 191.100 C 117.925 190.275,117.430 189.600,117.206 189.600 C 116.983 189.600,116.800 189.370,116.800 189.089 C 116.800 187.599,109.579 179.853,107.729 179.360 C 107.250 179.232,106.763 178.880,106.646 178.577 C 106.530 178.273,105.842 177.746,105.117 177.406 C 104.393 177.065,103.260 176.494,102.600 176.136 C 99.301 174.351,97.642 173.662,96.000 173.396 C 95.010 173.236,93.660 172.818,93.000 172.467 C 91.535 171.688,79.844 171.306,78.716 172.000 M93.600 173.408 C 99.783 174.973,105.805 178.096,110.163 182.000 C 113.193 184.714,113.454 185.013,114.002 186.400 C 114.306 187.170,114.671 187.890,114.813 188.000 C 115.286 188.367,118.060 192.572,118.636 193.794 C 118.948 194.458,119.736 195.720,120.388 196.600 C 121.040 197.480,121.865 199.100,122.222 200.200 C 122.578 201.300,123.126 202.770,123.438 203.466 C 124.454 205.733,124.636 209.447,123.753 209.909 C 122.983 210.311,115.195 209.891,114.409 209.405 C 114.188 209.269,112.341 208.813,110.304 208.392 C 106.660 207.639,101.093 205.909,100.237 205.263 C 99.997 205.082,99.170 204.689,98.400 204.389 C 91.947 201.879,82.208 189.602,80.005 181.200 C 79.745 180.210,79.258 178.546,78.921 177.503 C 78.093 174.934,78.472 172.997,79.913 172.432 C 81.747 171.713,88.923 172.225,93.600 173.408 M162.133 197.980 C 156.304 200.465,155.072 212.909,160.485 214.627 C 160.922 214.766,161.621 215.221,162.039 215.639 C 163.233 216.833,169.013 216.568,169.992 215.275 C 170.106 215.124,170.740 214.724,171.400 214.386 C 172.915 213.611,173.497 207.099,172.140 206.107 C 171.306 205.497,167.059 205.433,165.974 206.014 C 164.572 206.764,164.929 209.067,166.599 210.053 C 167.369 210.507,167.898 211.041,167.776 211.239 C 167.504 211.679,163.991 211.709,163.312 211.278 C 162.113 210.516,161.064 205.178,162.000 204.600 C 162.220 204.464,162.400 204.014,162.400 203.600 C 162.400 202.057,166.134 201.757,168.017 203.149 C 170.504 204.988,172.400 204.421,172.400 201.838 C 172.400 198.843,165.867 196.388,162.133 197.980 M292.521 197.925 C 291.579 198.508,289.994 201.272,289.546 203.115 C 289.294 204.152,288.853 205.273,288.566 205.606 C 288.280 205.940,287.852 207.077,287.615 208.133 C 287.378 209.189,286.816 210.552,286.364 211.163 C 285.374 212.503,285.438 215.092,286.479 215.744 C 287.604 216.448,289.306 215.588,290.133 213.898 C 291.346 211.419,296.123 211.746,297.544 214.405 C 298.121 215.485,298.578 215.829,299.571 215.927 C 302.014 216.170,302.675 214.457,301.200 211.704 C 300.760 210.884,300.399 209.939,300.399 209.606 C 300.398 209.273,300.059 208.445,299.645 207.767 C 299.231 207.088,298.761 205.934,298.600 205.201 C 298.439 204.468,297.878 203.061,297.354 202.075 C 296.829 201.088,296.400 200.066,296.400 199.802 C 296.400 198.671,293.547 197.291,292.521 197.925 M306.654 198.429 C 306.074 198.885,305.600 199.570,305.600 199.951 C 305.600 200.333,305.150 201.255,304.600 202.000 C 303.393 203.635,303.318 205.221,304.400 206.200 C 305.090 206.824,305.200 207.432,305.200 210.608 C 305.200 214.998,306.036 216.731,307.772 215.940 C 309.193 215.293,309.700 213.747,309.625 210.292 C 309.560 207.291,309.600 207.149,310.762 206.170 L 311.967 205.157 311.293 203.745 C 310.642 202.379,310.650 202.282,311.542 200.733 C 313.149 197.940,309.477 196.208,306.654 198.429 M326.072 198.023 C 325.226 198.362,325.145 198.634,325.165 201.098 C 325.177 202.584,325.046 205.870,324.875 208.400 C 324.446 214.737,325.784 217.816,328.003 215.597 C 328.780 214.820,328.821 214.354,328.764 206.888 C 328.694 197.742,328.485 197.055,326.072 198.023 M169.783 199.869 C 171.605 201.323,171.739 202.800,170.049 202.800 C 169.416 202.800,168.682 202.539,168.417 202.220 C 166.695 200.146,162.773 200.887,161.264 203.572 C 158.249 208.936,163.363 215.014,168.338 211.982 C 169.826 211.074,169.461 209.543,167.692 209.277 C 166.854 209.151,166.160 207.512,166.626 206.758 C 166.950 206.234,171.293 206.745,171.694 207.354 C 172.320 208.304,172.031 212.650,171.300 213.276 C 164.415 219.177,154.700 211.016,158.744 202.729 C 160.753 198.612,166.381 197.155,169.783 199.869 M310.519 198.740 C 311.176 198.999,311.150 199.107,310.219 199.982 C 309.086 201.046,308.968 201.902,309.682 203.876 C 310.120 205.087,310.083 205.267,309.282 205.828 C 308.490 206.383,308.399 206.799,308.387 209.923 C 308.364 216.334,306.239 216.723,306.149 210.333 C 306.110 207.622,305.934 206.515,305.449 205.948 C 304.559 204.910,304.619 204.447,306.002 201.660 C 307.516 198.609,308.528 197.954,310.519 198.740 M294.695 199.412 C 295.176 199.748,295.743 200.603,295.956 201.312 C 296.304 202.468,297.880 206.512,298.797 208.600 C 300.835 213.241,300.846 213.286,300.143 214.063 C 299.207 215.098,298.968 215.007,297.974 213.240 C 296.410 210.456,289.600 210.415,289.600 213.190 C 289.600 213.577,287.238 214.977,287.002 214.729 C 286.596 214.304,286.729 212.832,287.267 211.800 C 287.611 211.140,288.124 209.880,288.407 209.000 C 288.690 208.120,289.146 207.040,289.421 206.600 C 289.696 206.160,290.048 205.170,290.203 204.400 C 290.560 202.626,292.703 198.800,293.340 198.800 C 293.605 198.800,294.215 199.075,294.695 199.412 M327.572 199.700 C 327.542 200.664,326.875 202.502,326.828 201.750 C 326.813 201.503,326.688 200.738,326.550 200.050 C 326.352 199.060,326.435 198.800,326.950 198.800 C 327.366 198.800,327.590 199.124,327.572 199.700 M182.200 202.013 C 181.760 202.195,180.655 202.356,179.744 202.372 C 176.706 202.423,176.222 203.216,176.064 208.394 C 175.910 213.439,176.303 214.922,178.030 215.815 C 179.859 216.761,180.800 215.192,180.800 211.195 C 180.800 207.857,180.914 207.642,183.305 206.447 C 185.715 205.243,184.657 200.998,182.200 202.013 M191.400 201.931 C 184.045 204.404,185.305 216.400,192.920 216.400 C 195.917 216.400,199.038 213.198,197.520 211.680 C 196.961 211.121,194.457 211.049,193.637 211.569 C 193.294 211.786,192.692 211.751,192.099 211.481 C 190.640 210.816,191.997 210.453,194.961 210.714 C 197.829 210.967,198.400 210.430,198.400 207.484 C 198.400 205.544,195.722 202.013,194.236 201.995 C 193.996 201.992,193.440 201.916,193.000 201.826 C 192.560 201.736,191.840 201.783,191.400 201.931 M205.788 201.936 C 198.798 204.210,199.931 216.400,207.132 216.400 C 208.739 216.400,209.382 216.193,210.238 215.400 C 210.831 214.850,211.458 214.400,211.631 214.400 C 212.291 214.400,212.448 212.732,211.871 211.853 C 211.330 211.027,211.346 210.902,212.038 210.469 C 212.883 209.941,213.098 207.235,212.432 205.485 C 211.615 203.335,207.782 201.287,205.788 201.936 M221.800 202.041 C 221.140 202.246,219.705 202.455,218.611 202.507 C 215.912 202.633,215.612 203.304,215.612 209.200 C 215.612 214.550,216.007 215.740,217.843 215.920 C 219.750 216.108,220.173 215.236,220.400 210.641 L 220.600 206.600 222.000 206.600 L 223.400 206.600 223.469 210.468 C 223.564 215.813,224.897 217.503,227.200 215.200 C 228.544 213.856,228.380 206.345,226.960 204.256 C 226.143 203.053,223.768 201.435,223.113 201.634 C 223.051 201.653,222.460 201.836,221.800 202.041 M253.283 202.669 C 250.028 204.812,250.622 206.800,254.516 206.800 C 255.845 206.800,256.820 206.914,256.681 207.053 C 256.542 207.191,255.550 207.285,254.476 207.261 C 250.617 207.174,248.838 211.789,251.592 214.742 L 253.184 216.449 257.092 216.179 C 262.307 215.817,262.206 215.945,262.073 209.895 L 261.965 205.000 260.468 203.491 C 258.339 201.346,255.743 201.049,253.283 202.669 M336.861 202.027 C 332.635 203.720,330.787 208.787,333.010 212.582 C 335.391 216.643,338.938 217.499,342.319 214.826 C 345.710 212.146,343.662 208.695,340.098 211.085 C 338.412 212.214,336.915 211.854,336.741 210.277 C 336.353 206.761,337.601 205.572,340.208 206.976 C 343.156 208.564,345.207 206.324,342.977 203.953 C 341.051 201.905,338.876 201.220,336.861 202.027 M350.200 201.980 C 346.347 203.565,346.311 206.885,350.149 206.740 C 351.169 206.702,352.123 206.789,352.268 206.935 C 352.558 207.225,351.698 207.319,349.725 207.212 C 348.689 207.156,348.338 207.360,347.851 208.301 C 347.522 208.937,346.971 209.692,346.626 209.978 C 344.413 211.815,347.617 216.641,350.777 216.232 C 351.780 216.103,353.558 216.008,354.729 216.023 C 357.896 216.062,358.000 215.880,358.000 210.324 C 358.000 203.392,354.880 200.055,350.200 201.980 M238.100 202.733 C 237.715 203.136,236.872 204.351,236.228 205.433 L 235.055 207.400 234.752 205.719 C 234.249 202.937,233.759 202.337,232.105 202.477 C 230.241 202.636,229.516 204.273,230.541 206.008 C 230.897 206.610,231.390 208.045,231.637 209.196 C 233.205 216.510,237.062 218.367,238.564 212.532 L 239.061 210.600 239.773 212.732 C 241.553 218.057,245.195 216.632,246.477 210.109 C 246.726 208.839,247.261 207.371,247.665 206.846 C 249.028 205.077,248.184 202.099,246.383 202.322 C 245.172 202.472,243.610 204.139,243.572 205.322 C 243.502 207.501,242.919 207.863,242.418 206.037 C 241.585 202.997,239.425 201.345,238.100 202.733 M273.311 202.789 C 272.039 203.565,271.891 203.886,271.394 206.960 L 271.141 208.519 270.319 207.697 C 269.867 207.245,269.115 205.913,268.647 204.737 C 267.884 202.816,267.664 202.587,266.473 202.473 C 264.201 202.254,263.182 204.254,264.561 206.223 C 264.869 206.663,265.336 207.828,265.597 208.812 C 265.859 209.795,266.417 211.161,266.837 211.847 C 268.102 213.914,267.335 217.200,265.589 217.200 C 264.557 217.200,264.498 219.219,265.505 220.011 C 267.689 221.729,271.571 219.597,272.421 216.214 C 272.644 215.326,273.163 213.880,273.574 213.000 C 273.985 212.120,274.449 210.770,274.604 210.000 C 274.759 209.230,275.227 208.039,275.643 207.353 C 276.667 205.666,276.658 202.966,275.626 202.414 C 274.653 201.893,274.826 201.865,273.311 202.789 M316.609 202.363 C 313.911 202.684,313.612 203.367,313.612 209.200 C 313.612 214.574,314.004 215.740,315.871 215.922 C 317.660 216.097,318.400 214.880,318.400 211.761 C 318.400 208.031,318.738 206.800,319.761 206.800 C 321.877 206.800,323.027 204.719,321.986 202.774 C 321.547 201.953,320.632 201.884,316.609 202.363 M183.594 204.710 C 183.599 205.406,183.314 205.677,182.386 205.863 C 180.581 206.224,180.000 207.356,180.000 210.515 C 180.000 214.011,179.479 215.177,178.368 214.171 C 177.702 213.568,177.600 212.909,177.600 209.200 C 177.600 204.315,178.104 203.296,180.281 203.774 C 180.994 203.930,181.709 203.808,182.205 203.446 C 183.112 202.783,183.584 203.213,183.594 204.710 M194.735 203.759 C 196.714 205.008,197.679 206.518,197.524 208.122 L 197.400 209.400 194.214 209.473 C 190.937 209.549,189.766 210.126,190.263 211.420 C 190.505 212.051,193.200 213.730,193.200 213.251 C 193.200 212.539,195.028 212.080,195.933 212.564 L 196.822 213.040 195.911 213.893 C 194.139 215.553,191.457 215.873,190.363 214.556 C 190.110 214.250,189.674 214.000,189.394 214.000 C 187.218 214.000,187.197 205.238,189.372 204.411 C 189.845 204.231,190.473 203.795,190.765 203.442 C 191.522 202.530,192.973 202.646,194.735 203.759 M209.372 203.900 C 212.980 206.078,212.954 210.147,209.335 209.581 C 205.208 208.935,203.484 210.238,205.744 212.294 C 206.908 213.353,207.146 213.429,207.806 212.946 C 208.845 212.186,211.200 212.224,211.200 213.000 C 211.200 213.330,211.020 213.600,210.800 213.600 C 210.580 213.600,210.015 213.985,209.545 214.455 C 208.291 215.709,206.000 215.603,204.323 214.213 C 198.891 209.712,203.479 200.342,209.372 203.900 M225.172 203.920 C 227.011 205.455,227.585 212.415,226.004 213.996 C 224.730 215.270,224.414 214.538,224.406 210.300 C 224.394 203.106,219.612 202.913,219.372 210.096 C 219.311 211.913,219.248 213.515,219.231 213.655 C 219.214 213.795,218.667 213.987,218.016 214.083 C 216.557 214.297,216.566 214.336,216.724 208.551 L 216.848 204.000 218.544 204.000 C 219.477 204.000,220.436 204.196,220.675 204.435 C 220.988 204.748,221.318 204.584,221.855 203.848 C 222.817 202.528,223.523 202.543,225.172 203.920 M259.202 203.945 C 262.538 206.730,261.146 216.361,257.776 213.813 C 256.636 212.950,256.000 213.073,256.000 214.157 C 256.000 215.441,255.169 215.682,253.543 214.871 C 251.852 214.026,250.832 211.511,251.792 210.551 C 252.117 210.226,252.542 209.675,252.737 209.327 C 252.962 208.925,253.850 208.620,255.160 208.494 C 257.499 208.270,258.349 207.400,257.600 206.000 C 257.118 205.099,255.760 204.962,254.231 205.659 C 252.956 206.239,251.692 205.453,252.444 204.547 C 252.694 204.246,253.124 204.000,253.400 204.000 C 253.676 204.000,254.126 203.730,254.400 203.400 C 255.245 202.382,257.657 202.656,259.202 203.945 M340.103 203.300 C 342.594 204.697,342.848 205.032,341.999 205.801 C 341.265 206.466,341.162 206.467,340.184 205.827 C 337.870 204.310,335.905 205.742,335.858 208.980 C 335.810 212.258,338.024 214.037,340.113 212.399 C 341.695 211.160,343.585 212.388,342.100 213.690 C 340.079 215.462,337.900 215.811,336.400 214.604 C 336.070 214.339,335.493 214.013,335.117 213.880 C 332.694 213.022,333.077 205.505,335.610 204.195 C 336.264 203.856,336.800 203.404,336.800 203.190 C 336.800 202.633,339.047 202.708,340.103 203.300 M355.143 203.900 C 357.308 205.715,357.366 214.400,355.212 214.400 C 353.737 214.400,351.760 213.107,352.703 212.758 C 354.048 212.260,354.516 211.029,353.656 210.250 C 352.489 209.195,350.000 209.702,350.000 210.995 C 350.000 211.985,350.908 213.600,351.464 213.600 C 352.153 213.600,352.166 215.051,351.479 215.314 C 350.686 215.619,348.583 214.597,347.851 213.552 C 346.334 211.386,347.949 208.950,351.246 208.428 C 353.481 208.075,354.089 207.514,353.620 206.236 C 353.247 205.220,351.925 204.968,350.362 205.616 C 349.445 205.995,349.071 205.991,348.595 205.596 C 347.928 205.042,348.454 204.000,349.400 204.000 C 349.676 204.000,350.126 203.730,350.400 203.400 C 351.231 202.399,353.656 202.654,355.143 203.900 M241.242 206.574 C 242.185 210.119,243.781 210.244,244.237 206.809 C 244.566 204.326,244.784 204.031,246.101 204.283 C 247.239 204.501,247.509 205.131,246.778 205.862 C 246.546 206.094,246.099 207.385,245.785 208.731 C 245.090 211.713,243.686 214.800,243.026 214.800 C 242.184 214.800,240.909 213.059,240.639 211.540 C 240.140 208.742,238.297 208.432,237.829 211.068 C 237.374 213.631,237.171 214.031,236.116 214.432 C 235.055 214.835,234.041 214.078,234.013 212.860 C 234.006 212.564,233.740 211.754,233.421 211.060 C 232.102 208.186,231.575 205.090,232.274 204.318 C 233.143 203.358,233.969 204.372,233.987 206.424 C 234.016 209.674,236.586 209.799,237.407 206.591 C 237.631 205.716,238.051 204.578,238.341 204.062 L 238.868 203.125 239.839 204.036 C 240.372 204.538,241.004 205.680,241.242 206.574 M268.159 206.436 C 268.883 210.959,272.356 210.766,272.404 206.200 C 272.415 205.142,272.783 204.679,274.060 204.119 C 275.366 203.546,275.876 204.628,274.934 205.972 C 274.617 206.426,274.090 207.822,273.764 209.075 C 273.437 210.329,273.013 211.544,272.822 211.777 C 272.630 212.010,272.206 213.229,271.878 214.487 C 270.886 218.298,267.953 220.932,266.421 219.388 C 265.859 218.822,265.881 218.697,266.650 218.081 C 268.924 216.259,269.239 212.950,267.404 210.149 C 267.093 209.676,266.496 208.271,266.076 207.027 L 265.313 204.766 266.156 204.176 C 267.225 203.427,267.778 204.051,268.159 206.436 M321.123 204.484 C 321.210 204.942,320.815 205.350,319.926 205.722 C 317.898 206.570,317.519 207.289,317.411 210.496 C 317.287 214.170,317.402 213.879,315.989 214.087 L 314.777 214.265 314.889 209.232 L 315.000 204.200 316.400 203.944 C 318.891 203.487,320.979 203.726,321.123 204.484 M328.000 209.169 C 328.000 213.981,327.636 215.260,326.530 214.342 C 325.827 213.759,325.776 204.784,326.470 204.090 C 327.582 202.978,328.000 204.364,328.000 209.169 M292.504 204.500 C 290.502 207.042,292.969 210.231,295.207 207.993 C 296.136 207.064,295.524 205.216,294.022 204.412 C 293.049 203.891,292.981 203.895,292.504 204.500 M192.000 205.484 C 189.618 206.360,189.791 208.800,192.236 208.800 C 194.379 208.800,195.237 207.602,194.177 206.089 C 193.552 205.197,193.113 205.074,192.000 205.484 M205.435 206.137 L 204.269 207.069 205.135 207.935 C 206.215 209.015,207.627 209.041,208.856 208.001 L 209.800 207.202 208.678 206.201 C 207.294 204.967,206.906 204.959,205.435 206.137 M293.980 206.380 C 294.750 207.150,294.750 207.162,293.983 207.405 C 292.926 207.741,292.433 207.359,292.684 206.400 C 292.942 205.413,293.012 205.412,293.980 206.380 M193.416 206.827 C 193.843 207.516,193.348 207.697,191.929 207.370 C 190.630 207.071,190.623 207.058,191.600 206.772 C 193.037 206.352,193.125 206.355,193.416 206.827 M207.783 206.772 C 208.112 207.305,207.282 207.717,206.492 207.414 C 205.916 207.193,205.904 207.105,206.411 206.785 C 207.162 206.310,207.495 206.307,207.783 206.772 M254.900 210.012 C 253.874 210.425,253.811 210.747,254.472 212.197 C 255.007 213.372,256.938 213.287,257.882 212.048 C 259.145 210.388,257.225 209.078,254.900 210.012 M210.767 211.056 C 210.858 211.135,210.465 211.200,209.893 211.200 C 209.320 211.200,208.404 211.370,207.857 211.578 C 207.133 211.854,206.740 211.810,206.414 211.417 C 205.716 210.576,209.815 210.236,210.767 211.056 M257.400 211.200 C 257.264 211.420,256.724 211.600,256.200 211.600 C 255.676 211.600,255.136 211.420,255.000 211.200 C 254.853 210.961,255.337 210.800,256.200 210.800 C 257.063 210.800,257.547 210.961,257.400 211.200 M353.400 211.200 C 353.264 211.420,352.623 211.600,351.976 211.600 C 351.329 211.600,350.800 211.420,350.800 211.200 C 350.800 210.980,351.441 210.800,352.224 210.800 C 353.071 210.800,353.547 210.962,353.400 211.200 M154.672 230.186 C 153.086 231.771,154.273 234.951,156.134 234.103 C 156.803 233.798,157.303 233.832,158.022 234.230 C 159.366 234.974,165.163 234.981,166.222 234.240 C 166.907 233.760,167.131 233.760,167.787 234.240 C 168.297 234.613,169.655 234.800,171.850 234.800 C 173.664 234.800,175.604 234.973,176.162 235.185 C 177.387 235.651,178.400 234.520,178.400 232.685 C 178.400 230.199,178.227 230.134,171.925 230.270 C 168.776 230.338,165.390 230.411,164.400 230.432 C 162.404 230.474,159.455 230.220,156.972 229.794 C 155.713 229.577,155.191 229.666,154.672 230.186 M204.019 230.177 C 202.932 231.486,204.598 234.209,206.130 233.627 C 207.017 233.290,207.291 233.393,208.117 234.374 C 209.828 236.408,212.267 235.063,212.059 232.200 C 211.931 230.439,211.347 230.124,207.736 229.865 C 205.241 229.686,204.366 229.759,204.019 230.177 M221.349 230.167 C 219.405 231.560,220.142 234.400,222.448 234.400 C 223.066 234.400,224.372 234.672,225.350 235.004 C 226.592 235.425,227.424 235.495,228.109 235.234 C 228.649 235.029,229.814 234.958,230.699 235.077 C 231.583 235.196,232.947 235.082,233.729 234.823 C 234.899 234.437,235.365 234.465,236.356 234.977 C 237.850 235.750,239.752 235.781,240.364 235.043 C 240.759 234.567,241.101 234.569,242.708 235.052 C 244.235 235.512,244.814 235.525,245.786 235.123 C 246.444 234.851,247.458 234.678,248.040 234.739 C 249.700 234.913,252.896 233.687,254.368 232.311 L 255.710 231.057 254.811 230.328 C 253.790 229.501,252.715 229.403,251.544 230.030 C 250.967 230.339,249.733 230.329,247.176 229.997 C 242.719 229.418,241.226 229.813,239.996 231.896 L 239.140 233.347 238.270 231.832 L 237.400 230.316 232.800 230.111 C 227.927 229.894,226.687 229.870,225.400 229.965 C 224.960 229.997,224.060 229.919,223.400 229.791 C 222.635 229.642,221.892 229.778,221.349 230.167 M266.600 230.057 C 265.720 230.263,264.576 230.327,264.058 230.198 C 263.507 230.061,262.717 230.225,262.158 230.591 C 261.286 231.162,261.112 231.161,260.218 230.575 C 259.068 229.821,258.618 230.019,257.777 231.645 C 256.473 234.166,257.504 234.769,263.074 234.744 C 264.875 234.736,266.990 234.961,267.773 235.245 C 270.766 236.327,272.913 232.652,270.545 230.500 C 269.477 229.529,269.049 229.481,266.600 230.057 M294.000 230.100 C 292.570 230.295,291.220 230.436,291.000 230.414 C 290.780 230.392,289.076 230.269,287.214 230.141 L 283.828 229.908 282.508 231.454 L 281.187 233.000 280.093 231.733 C 277.917 229.210,274.136 229.514,273.939 232.227 C 273.774 234.505,274.610 235.320,276.890 235.101 C 277.996 234.995,279.409 235.099,280.029 235.333 C 280.848 235.642,281.408 235.631,282.078 235.291 C 282.613 235.020,285.350 234.777,288.600 234.712 C 293.812 234.608,294.290 234.533,295.491 233.632 L 296.782 232.663 297.691 233.643 C 300.100 236.238,301.961 236.015,302.291 233.093 C 302.686 229.584,301.346 229.100,294.000 230.100 M305.964 230.143 C 305.438 230.405,304.945 230.945,304.868 231.342 C 304.480 233.358,306.309 235.891,307.639 235.179 C 308.037 234.966,311.724 234.740,315.833 234.676 L 323.303 234.561 324.206 233.511 C 325.043 232.538,325.172 232.505,325.972 233.065 C 327.344 234.026,329.206 231.446,328.007 230.247 C 327.098 229.338,320.452 229.608,319.683 230.586 C 319.017 231.432,318.973 231.436,318.228 230.729 C 317.307 229.855,316.801 229.819,315.794 230.555 C 315.142 231.032,314.903 231.024,314.104 230.500 C 313.422 230.054,312.579 229.952,310.948 230.121 C 309.723 230.247,308.316 230.196,307.821 230.008 C 307.253 229.792,306.569 229.842,305.964 230.143 M342.719 229.810 C 342.564 229.967,339.918 230.119,336.838 230.148 C 331.017 230.202,330.667 230.302,330.260 232.035 C 329.756 234.182,332.933 235.529,335.987 234.464 C 337.062 234.090,337.347 234.147,338.084 234.884 C 338.900 235.700,338.986 235.708,340.101 235.068 C 341.535 234.245,345.118 234.188,346.963 234.959 C 352.095 237.103,358.311 233.390,354.546 230.429 C 353.093 229.286,352.740 229.363,350.793 231.253 L 349.089 232.907 347.845 231.449 C 346.619 230.014,343.499 229.016,342.719 229.810 M181.215 231.581 L 179.962 233.162 180.781 233.981 C 182.497 235.697,185.106 234.632,184.660 232.398 C 184.097 229.587,183.000 229.327,181.215 231.581 M187.751 230.466 C 186.724 230.963,187.056 233.396,188.278 234.330 C 189.397 235.185,198.710 234.673,199.660 233.704 C 201.592 231.732,200.450 229.415,197.993 230.324 C 197.372 230.554,196.675 230.544,196.131 230.296 C 195.561 230.036,194.873 230.035,194.131 230.292 C 193.509 230.508,192.640 230.543,192.200 230.370 C 191.075 229.928,188.757 229.978,187.751 230.466 M215.577 230.589 C 213.083 231.945,213.505 234.800,216.200 234.800 C 218.501 234.800,219.305 232.576,217.682 230.700 C 216.965 229.872,216.901 229.869,215.577 230.589 M223.600 232.000 C 223.600 233.282,223.044 233.612,222.643 232.567 C 222.231 231.495,222.372 230.800,223.000 230.800 C 223.400 230.800,223.600 231.200,223.600 232.000 M227.438 233.045 C 226.994 234.201,226.251 233.041,226.595 231.729 C 226.885 230.623,226.899 230.618,227.297 231.478 C 227.520 231.961,227.584 232.666,227.438 233.045 M301.200 232.000 C 301.200 232.660,301.051 233.200,300.869 233.200 C 300.687 233.200,300.618 232.660,300.715 232.000 C 300.812 231.340,300.960 230.800,301.045 230.800 C 301.130 230.800,301.200 231.340,301.200 232.000 M322.000 231.124 C 322.000 231.301,321.736 231.796,321.413 232.224 C 320.850 232.967,320.825 232.954,320.813 231.900 C 320.804 231.183,321.009 230.800,321.400 230.800 C 321.730 230.800,322.000 230.946,322.000 231.124 M183.388 233.219 C 182.859 234.075,182.099 233.150,182.548 232.198 C 182.985 231.272,183.007 231.268,183.300 232.059 C 183.466 232.507,183.505 233.029,183.388 233.219 M243.987 232.900 C 243.994 233.065,243.730 233.200,243.400 233.200 C 243.015 233.200,242.800 232.814,242.800 232.124 C 242.800 231.089,243.942 231.836,243.987 232.900 M317.502 233.260 C 316.667 233.776,315.995 233.197,316.496 232.394 C 316.922 231.713,316.991 231.708,317.444 232.327 C 317.785 232.793,317.802 233.075,317.502 233.260 M195.432 233.148 C 195.290 233.377,194.906 233.462,194.577 233.336 C 194.108 233.156,194.081 232.984,194.453 232.536 C 194.982 231.898,195.864 232.449,195.432 233.148 M217.361 233.263 C 217.258 233.429,216.906 233.462,216.577 233.336 C 216.107 233.155,216.081 232.984,216.454 232.534 C 216.949 231.938,217.771 232.600,217.361 233.263 M259.857 232.600 C 260.390 233.133,260.344 233.200,259.441 233.200 C 258.702 233.200,258.488 233.036,258.655 232.600 C 258.782 232.270,258.969 232.000,259.071 232.000 C 259.174 232.000,259.527 232.270,259.857 232.600 M287.800 232.800 C 287.945 233.034,287.530 233.200,286.800 233.200 C 286.070 233.200,285.655 233.034,285.800 232.800 C 285.936 232.580,286.386 232.400,286.800 232.400 C 287.214 232.400,287.664 232.580,287.800 232.800 M313.200 233.047 C 313.200 233.131,312.649 233.200,311.976 233.200 C 311.303 233.200,310.849 233.044,310.967 232.854 C 311.166 232.531,313.200 232.707,313.200 233.047 " stroke="none" fill="#a0c8c0" fill-rule="evenodd"></path><path id="path4" d="M90.684 146.118 C 89.756 146.519,90.768 146.604,96.684 146.625 C 102.242 146.644,104.194 146.793,105.600 147.307 C 106.590 147.668,108.473 148.173,109.784 148.428 C 111.095 148.683,112.535 149.125,112.984 149.411 C 113.433 149.697,114.610 150.161,115.600 150.441 C 116.590 150.722,117.829 151.277,118.354 151.676 C 118.879 152.074,119.493 152.400,119.719 152.400 C 119.945 152.400,120.958 152.931,121.970 153.581 L 123.810 154.761 123.714 162.605 C 123.603 171.614,123.626 171.521,121.901 169.902 C 118.656 166.860,109.922 161.600,108.114 161.600 C 107.820 161.600,106.550 161.221,105.290 160.759 C 98.336 158.203,85.322 159.589,76.987 163.773 C 74.354 165.095,73.611 165.629,74.129 165.828 C 74.530 165.982,75.123 165.844,75.515 165.505 C 77.148 164.094,82.531 162.098,88.200 160.801 C 90.243 160.333,99.699 160.324,101.800 160.788 C 109.786 162.550,117.494 166.363,121.572 170.571 C 124.149 173.230,124.400 172.542,124.400 162.833 L 124.400 154.495 123.100 153.504 C 116.091 148.163,96.360 143.667,90.684 146.118 M127.452 158.100 C 126.566 159.508,126.627 240.680,127.515 241.700 C 128.489 242.819,129.507 242.521,130.797 240.740 L 132.000 239.080 132.000 216.967 C 132.000 196.251,132.044 194.841,132.700 194.650 C 133.085 194.537,134.300 194.332,135.400 194.193 C 145.834 192.877,154.251 186.202,156.543 177.425 C 157.591 173.412,156.656 172.820,150.484 173.590 C 143.391 174.476,136.185 178.667,133.742 183.328 C 132.292 186.094,132.000 184.258,132.000 172.377 C 132.000 165.468,131.838 160.825,131.573 160.126 C 131.003 158.619,129.628 157.200,128.739 157.200 C 128.343 157.200,127.764 157.605,127.452 158.100 M130.808 160.423 C 131.164 161.502,131.253 165.061,131.136 173.523 L 130.976 185.140 131.988 185.335 C 133.145 185.557,133.851 185.100,134.239 183.878 C 134.595 182.756,138.783 178.586,139.914 178.227 C 140.401 178.073,140.800 177.801,140.800 177.624 C 140.800 176.514,150.171 174.024,154.424 174.003 C 156.604 173.992,156.597 176.505,154.407 180.791 C 150.619 188.199,145.543 191.518,135.100 193.412 C 130.811 194.190,131.200 191.857,131.200 216.826 C 131.200 240.613,131.073 241.942,128.849 241.514 C 128.039 241.358,127.628 159.530,128.432 158.561 C 129.092 157.767,130.224 158.654,130.808 160.423 M47.689 173.500 C 39.916 183.398,38.449 209.044,44.961 221.200 C 45.256 221.750,45.714 222.876,45.980 223.703 C 46.246 224.530,46.825 225.399,47.266 225.635 C 48.403 226.244,48.765 225.665,47.758 224.849 C 47.296 224.474,46.683 223.454,46.398 222.583 C 46.112 221.712,45.648 220.640,45.365 220.200 C 45.083 219.760,44.634 218.500,44.368 217.400 C 44.101 216.300,43.650 214.934,43.364 214.363 C 41.365 210.371,41.238 188.222,43.200 185.800 C 43.379 185.580,43.829 184.320,44.202 183.000 C 44.825 180.794,46.357 177.050,47.230 175.600 C 48.180 174.023,49.198 172.000,49.042 172.000 C 48.946 172.000,48.337 172.675,47.689 173.500 M79.913 172.432 C 78.472 172.997,78.093 174.934,78.921 177.503 C 79.258 178.546,79.745 180.210,80.005 181.200 C 82.208 189.602,91.947 201.879,98.400 204.389 C 99.170 204.689,99.997 205.082,100.237 205.263 C 101.093 205.909,106.660 207.639,110.304 208.392 C 112.341 208.813,114.188 209.269,114.409 209.405 C 115.195 209.891,122.983 210.311,123.753 209.909 C 124.634 209.448,124.455 205.741,123.441 203.466 C 123.131 202.770,122.611 201.375,122.285 200.366 C 121.636 198.355,119.667 195.000,119.331 195.335 C 119.216 195.451,119.587 196.413,120.158 197.473 C 121.101 199.226,122.172 202.016,123.244 205.519 C 123.466 206.244,123.592 207.414,123.524 208.119 L 123.400 209.400 120.600 209.274 C 112.886 208.927,103.310 206.162,95.827 202.120 C 90.041 198.995,81.681 186.407,80.180 178.560 C 79.853 176.850,79.506 175.372,79.409 175.275 C 79.311 175.178,79.505 174.570,79.839 173.924 L 80.447 172.749 84.523 172.901 C 94.103 173.256,102.688 176.541,109.710 182.540 C 110.913 183.569,112.398 185.131,113.009 186.012 C 114.258 187.816,114.682 187.880,113.927 186.152 C 113.422 184.996,113.052 184.588,110.163 182.000 C 102.588 175.215,86.110 170.003,79.913 172.432 M56.000 188.466 C 56.000 188.575,55.643 190.630,55.206 193.032 C 54.295 198.045,54.232 200.838,54.926 205.524 C 55.638 210.330,56.028 209.108,55.735 202.992 C 55.572 199.609,55.666 196.098,55.995 193.241 C 56.278 190.785,56.395 188.662,56.255 188.521 C 56.115 188.381,56.000 188.356,56.000 188.466 M163.357 198.717 C 156.554 201.004,155.922 211.342,162.394 214.490 C 165.021 215.768,169.030 215.221,171.300 213.276 C 172.031 212.650,172.320 208.304,171.694 207.354 C 171.293 206.745,166.950 206.234,166.626 206.758 C 166.160 207.512,166.854 209.151,167.692 209.277 C 169.461 209.543,169.826 211.074,168.338 211.982 C 163.363 215.014,158.249 208.936,161.264 203.572 C 162.773 200.887,166.695 200.146,168.417 202.220 C 169.228 203.198,171.200 202.971,171.200 201.900 C 171.200 199.749,166.256 197.742,163.357 198.717 M307.902 198.831 C 306.094 199.884,304.419 204.746,305.449 205.948 C 305.934 206.515,306.110 207.622,306.149 210.333 C 306.239 216.723,308.364 216.334,308.387 209.923 C 308.399 206.799,308.490 206.383,309.282 205.828 C 310.083 205.267,310.120 205.087,309.682 203.876 C 308.968 201.902,309.086 201.046,310.219 199.982 C 311.586 198.698,309.720 197.772,307.902 198.831 M166.234 199.217 C 165.547 199.423,164.808 199.414,164.434 199.195 C 163.981 198.930,164.312 198.831,165.600 198.847 C 167.262 198.867,167.310 198.896,166.234 199.217 M291.672 200.900 C 291.019 202.055,290.358 203.630,290.203 204.400 C 290.048 205.170,289.696 206.160,289.421 206.600 C 289.146 207.040,288.690 208.120,288.407 209.000 C 288.124 209.880,287.611 211.140,287.267 211.800 C 286.729 212.832,286.596 214.304,287.002 214.729 C 287.238 214.977,289.600 213.577,289.600 213.190 C 289.600 212.183,291.254 211.200,292.950 211.200 C 296.147 211.200,297.029 211.558,297.974 213.240 C 298.968 215.007,299.207 215.098,300.143 214.063 C 300.846 213.286,300.835 213.241,298.797 208.600 C 297.880 206.512,296.304 202.468,295.956 201.312 C 295.574 200.042,294.281 198.800,293.340 198.800 C 293.075 198.800,292.325 199.745,291.672 200.900 M326.550 200.050 C 326.688 200.738,326.813 201.503,326.828 201.750 C 326.875 202.502,327.542 200.664,327.572 199.700 C 327.590 199.124,327.366 198.800,326.950 198.800 C 326.435 198.800,326.352 199.060,326.550 200.050 M294.146 200.048 C 295.105 200.485,295.928 202.746,295.425 203.560 C 294.508 205.043,291.964 202.000,292.643 200.233 C 292.932 199.479,292.904 199.482,294.146 200.048 M169.700 200.557 C 170.560 201.210,170.577 201.447,169.784 201.751 C 168.852 202.108,167.535 201.161,168.069 200.516 C 168.598 199.879,168.814 199.885,169.700 200.557 M162.114 200.622 C 162.546 200.788,162.300 201.242,161.147 202.407 C 159.212 204.360,158.808 210.800,160.620 210.800 C 160.909 210.800,161.263 211.167,161.405 211.616 C 161.559 212.100,162.138 212.528,162.826 212.665 C 164.358 212.972,163.922 213.600,162.176 213.600 C 161.201 213.600,160.800 213.420,160.800 212.981 C 160.800 212.640,160.373 211.965,159.851 211.481 C 158.088 209.844,157.908 202.800,159.629 202.800 C 160.170 202.800,160.400 202.522,160.400 201.867 C 160.400 200.496,160.879 200.148,162.114 200.622 M308.032 202.112 C 308.161 202.907,308.504 203.844,308.794 204.193 C 309.240 204.730,309.189 204.951,308.461 205.629 C 307.704 206.334,307.600 206.863,307.600 209.992 C 307.600 211.950,307.420 213.664,307.200 213.800 C 306.980 213.936,306.795 213.902,306.789 213.724 C 306.783 213.546,306.738 211.615,306.689 209.433 C 306.628 206.695,306.446 205.415,306.103 205.301 C 305.774 205.191,305.724 204.910,305.957 204.468 C 306.149 204.100,306.435 203.026,306.592 202.080 C 306.933 200.024,307.696 200.041,308.032 202.112 M182.205 203.446 C 181.709 203.808,180.994 203.930,180.281 203.774 C 178.104 203.296,177.600 204.315,177.600 209.200 C 177.600 212.909,177.702 213.568,178.368 214.171 C 179.479 215.177,180.000 214.011,180.000 210.515 C 180.000 207.356,180.581 206.224,182.386 205.863 C 183.314 205.677,183.599 205.406,183.594 204.710 C 183.584 203.213,183.112 202.783,182.205 203.446 M190.765 203.442 C 190.473 203.795,189.845 204.231,189.372 204.411 C 187.197 205.238,187.218 214.000,189.394 214.000 C 189.674 214.000,190.110 214.250,190.363 214.556 C 191.457 215.873,194.139 215.553,195.911 213.893 L 196.822 213.040 195.933 212.564 C 195.028 212.080,193.200 212.539,193.200 213.251 C 193.200 213.730,190.505 212.051,190.263 211.420 C 189.766 210.126,190.937 209.549,194.214 209.473 L 197.400 209.400 197.524 208.122 C 197.825 205.009,192.516 201.332,190.765 203.442 M204.551 203.910 C 201.138 206.166,201.020 211.477,204.323 214.213 C 206.000 215.603,208.291 215.709,209.545 214.455 C 210.015 213.985,210.580 213.600,210.800 213.600 C 211.020 213.600,211.200 213.330,211.200 213.000 C 211.200 212.224,208.845 212.186,207.806 212.946 C 207.146 213.429,206.908 213.353,205.744 212.294 C 203.484 210.238,205.208 208.935,209.335 209.581 C 212.954 210.147,212.980 206.078,209.372 203.900 C 207.121 202.541,206.621 202.542,204.551 203.910 M221.855 203.848 C 221.318 204.584,220.988 204.748,220.675 204.435 C 220.436 204.196,219.477 204.000,218.544 204.000 L 216.848 204.000 216.724 208.551 C 216.566 214.336,216.557 214.297,218.016 214.083 C 218.667 213.987,219.214 213.795,219.231 213.655 C 219.248 213.515,219.311 211.913,219.372 210.096 C 219.612 202.913,224.394 203.106,224.406 210.300 C 224.414 214.538,224.730 215.270,226.004 213.996 C 227.585 212.415,227.011 205.455,225.172 203.920 C 223.523 202.543,222.817 202.528,221.855 203.848 M254.400 203.400 C 254.126 203.730,253.676 204.000,253.400 204.000 C 253.124 204.000,252.694 204.246,252.444 204.547 C 251.692 205.453,252.956 206.239,254.231 205.659 C 255.760 204.962,257.118 205.099,257.600 206.000 C 258.349 207.400,257.499 208.270,255.160 208.494 C 253.850 208.620,252.962 208.925,252.737 209.327 C 252.542 209.675,252.117 210.226,251.792 210.551 C 250.832 211.511,251.852 214.026,253.543 214.871 C 255.169 215.682,256.000 215.441,256.000 214.157 C 256.000 213.073,256.636 212.950,257.776 213.813 C 261.146 216.361,262.538 206.730,259.202 203.945 C 257.657 202.656,255.245 202.382,254.400 203.400 M336.800 203.190 C 336.800 203.404,336.264 203.856,335.610 204.195 C 333.077 205.505,332.694 213.022,335.117 213.880 C 335.493 214.013,336.070 214.339,336.400 214.604 C 337.900 215.811,340.079 215.462,342.100 213.690 C 343.585 212.388,341.695 211.160,340.113 212.399 C 338.024 214.037,335.810 212.258,335.858 208.980 C 335.905 205.742,337.870 204.310,340.184 205.827 C 341.724 206.835,343.353 205.516,341.886 204.448 C 339.706 202.862,336.800 202.143,336.800 203.190 M350.400 203.400 C 350.126 203.730,349.676 204.000,349.400 204.000 C 348.454 204.000,347.928 205.042,348.595 205.596 C 349.071 205.991,349.445 205.995,350.362 205.616 C 351.925 204.968,353.247 205.220,353.620 206.236 C 354.089 207.514,353.481 208.075,351.246 208.428 C 347.949 208.950,346.334 211.386,347.851 213.552 C 348.583 214.597,350.686 215.619,351.479 215.314 C 352.166 215.051,352.153 213.600,351.464 213.600 C 350.908 213.600,350.000 211.985,350.000 210.995 C 350.000 209.702,352.489 209.195,353.656 210.250 C 354.516 211.029,354.048 212.260,352.703 212.758 C 351.760 213.107,353.737 214.400,355.212 214.400 C 357.366 214.400,357.308 205.715,355.143 203.900 C 353.656 202.654,351.231 202.399,350.400 203.400 M238.341 204.062 C 238.051 204.578,237.631 205.716,237.407 206.591 C 236.586 209.799,234.016 209.674,233.987 206.424 C 233.969 204.372,233.143 203.358,232.274 204.318 C 231.575 205.090,232.102 208.186,233.421 211.060 C 233.740 211.754,234.006 212.564,234.013 212.860 C 234.041 214.078,235.055 214.835,236.116 214.432 C 237.171 214.031,237.374 213.631,237.829 211.068 C 238.297 208.432,240.140 208.742,240.639 211.540 C 240.909 213.059,242.184 214.800,243.026 214.800 C 243.686 214.800,245.090 211.713,245.785 208.731 C 246.099 207.385,246.546 206.094,246.778 205.862 C 247.509 205.131,247.239 204.501,246.101 204.283 C 244.784 204.031,244.566 204.326,244.237 206.809 C 243.781 210.244,242.185 210.119,241.242 206.574 C 241.004 205.680,240.372 204.538,239.839 204.036 L 238.868 203.125 238.341 204.062 M291.399 205.610 C 291.219 207.161,291.274 208.207,291.554 208.544 C 291.883 208.941,291.649 209.449,290.594 210.634 C 289.828 211.495,289.200 212.425,289.200 212.700 C 289.200 212.990,288.738 213.181,288.100 213.154 C 287.495 213.128,287.296 213.029,287.658 212.932 C 288.094 212.817,288.408 212.124,288.591 210.879 C 288.765 209.689,289.240 208.605,289.886 207.923 C 290.585 207.184,290.834 206.574,290.679 205.980 C 290.451 205.108,290.966 203.200,291.429 203.200 C 291.566 203.200,291.553 204.285,291.399 205.610 M266.156 204.176 L 265.313 204.766 266.076 207.027 C 266.496 208.271,267.093 209.676,267.404 210.149 C 269.239 212.950,268.924 216.259,266.650 218.081 C 265.881 218.697,265.859 218.822,266.421 219.388 C 267.953 220.932,270.886 218.298,271.878 214.487 C 272.206 213.229,272.630 212.010,272.822 211.777 C 273.013 211.544,273.437 210.329,273.764 209.075 C 274.090 207.822,274.617 206.426,274.934 205.972 C 275.876 204.628,275.366 203.546,274.060 204.119 C 272.783 204.679,272.415 205.142,272.404 206.200 C 272.356 210.766,268.883 210.959,268.159 206.436 C 267.778 204.051,267.225 203.427,266.156 204.176 M316.400 203.944 L 315.000 204.200 314.889 209.232 L 314.777 214.265 315.989 214.087 C 317.402 213.879,317.287 214.170,317.411 210.496 C 317.519 207.289,317.898 206.570,319.926 205.722 C 322.898 204.479,320.387 203.213,316.400 203.944 M326.470 204.090 C 325.776 204.784,325.827 213.759,326.530 214.342 C 327.636 215.260,328.000 213.981,328.000 209.169 C 328.000 204.364,327.582 202.978,326.470 204.090 M240.184 205.879 C 240.472 207.027,239.597 208.292,238.838 207.824 C 238.362 207.530,238.250 205.656,238.647 204.623 C 238.975 203.766,239.829 204.464,240.184 205.879 M294.022 204.412 C 295.524 205.216,296.136 207.064,295.207 207.993 C 292.969 210.231,290.502 207.042,292.504 204.500 C 292.981 203.895,293.049 203.891,294.022 204.412 M183.199 204.900 C 183.200 205.065,182.750 205.200,182.200 205.200 C 180.220 205.200,178.563 208.964,179.393 211.577 C 179.711 212.581,179.284 214.099,178.771 213.782 C 178.382 213.542,178.240 205.094,178.618 204.715 C 178.949 204.385,183.198 204.556,183.199 204.900 M195.442 205.835 C 195.198 206.472,195.137 206.467,194.623 205.764 C 194.213 205.204,194.189 204.930,194.531 204.719 C 195.185 204.315,195.757 205.015,195.442 205.835 M205.553 205.229 C 204.946 205.604,204.291 205.300,204.606 204.790 C 204.727 204.595,205.105 204.542,205.446 204.673 C 205.931 204.859,205.954 204.981,205.553 205.229 M209.662 205.298 C 209.204 205.756,208.283 205.313,208.606 204.790 C 208.727 204.595,209.102 204.541,209.440 204.671 C 209.841 204.824,209.918 205.042,209.662 205.298 M225.611 208.804 C 225.766 211.890,225.686 213.155,225.311 213.586 C 224.891 214.067,224.800 213.494,224.800 210.375 C 224.800 207.688,224.629 206.333,224.214 205.742 C 223.574 204.828,223.810 204.306,224.780 204.490 C 225.276 204.585,225.442 205.445,225.611 208.804 M233.224 207.934 C 232.974 208.854,232.903 208.726,232.705 207.000 C 232.579 205.901,232.587 204.822,232.722 204.603 C 233.118 203.962,233.540 206.766,233.224 207.934 M259.662 209.069 C 259.799 213.259,259.659 213.862,258.643 213.472 C 258.155 213.285,258.133 213.031,258.518 212.012 C 259.193 210.224,258.554 209.453,256.159 209.163 L 254.200 208.926 256.113 208.863 C 258.272 208.792,258.949 207.914,258.379 205.926 C 258.174 205.213,258.227 204.785,258.534 204.672 C 259.377 204.361,259.529 204.954,259.662 209.069 M267.600 206.400 C 267.600 208.589,267.003 208.698,266.522 206.598 C 266.233 205.335,266.244 204.782,266.559 204.668 C 267.341 204.384,267.600 204.814,267.600 206.400 M319.557 204.667 C 320.468 204.911,320.449 204.944,319.157 205.361 C 318.128 205.694,317.692 206.135,317.353 207.183 L 316.906 208.566 316.253 207.303 C 314.977 204.834,316.284 203.791,319.557 204.667 M327.600 209.200 C 327.600 213.247,327.176 215.014,326.622 213.270 C 326.358 212.437,326.406 205.170,326.679 204.693 C 327.253 203.693,327.600 205.392,327.600 209.200 M341.543 204.756 C 341.939 205.007,341.961 205.177,341.624 205.385 C 341.004 205.768,339.885 205.310,340.198 204.803 C 340.500 204.314,340.828 204.303,341.543 204.756 M355.628 208.832 C 355.863 213.129,355.701 213.878,354.629 213.467 C 354.114 213.269,354.085 213.050,354.467 212.213 C 355.295 210.396,354.391 209.214,352.109 209.128 L 350.200 209.056 352.045 208.908 C 354.141 208.741,354.960 207.727,354.345 206.063 C 353.957 205.013,354.236 204.279,354.937 204.511 C 355.228 204.607,355.485 206.212,355.628 208.832 M190.500 205.082 C 189.534 205.268,189.138 208.067,190.001 208.601 C 190.269 208.766,190.269 209.097,190.001 209.598 C 189.380 210.759,189.527 212.317,190.300 212.768 C 190.904 213.120,190.856 213.177,189.950 213.188 C 188.505 213.205,187.979 210.403,188.657 206.300 C 188.884 204.924,189.008 204.805,190.152 204.854 C 191.094 204.896,191.179 204.951,190.500 205.082 M219.488 205.973 C 218.988 207.296,217.875 207.096,217.487 205.613 C 217.305 204.916,217.465 204.800,218.603 204.800 C 219.905 204.800,219.922 204.822,219.488 205.973 M245.553 206.100 C 245.448 208.980,244.897 209.917,244.847 207.300 C 244.820 205.868,244.971 204.800,245.200 204.800 C 245.420 204.800,245.579 205.385,245.553 206.100 M298.634 210.317 C 299.466 210.858,299.996 213.105,299.408 213.594 C 298.988 213.942,298.774 213.734,298.406 212.618 C 298.149 211.838,297.710 211.200,297.431 211.200 C 296.316 211.200,295.468 209.689,295.922 208.510 C 296.157 207.900,296.484 206.770,296.648 206.000 C 296.939 204.630,296.958 204.657,297.573 207.317 C 297.918 208.812,298.396 210.162,298.634 210.317 M336.528 205.202 C 334.939 205.843,334.785 211.883,336.335 212.788 C 336.884 213.108,336.812 213.178,335.925 213.188 C 334.837 213.200,334.437 212.074,334.437 209.000 C 334.437 205.728,334.813 204.799,336.125 204.825 C 337.261 204.848,337.305 204.889,336.528 205.202 M194.177 206.089 C 195.237 207.602,194.379 208.800,192.236 208.800 C 190.564 208.800,189.628 207.245,190.726 206.291 C 192.205 205.004,193.370 204.936,194.177 206.089 M208.678 206.201 L 209.800 207.202 208.856 208.001 C 207.627 209.041,206.215 209.015,205.135 207.935 L 204.269 207.069 205.435 206.137 C 206.906 204.959,207.294 204.967,208.678 206.201 M273.259 208.857 C 272.881 210.170,272.871 210.154,272.836 208.167 C 272.816 207.048,272.935 205.996,273.100 205.828 C 273.576 205.344,273.683 207.383,273.259 208.857 M203.938 207.939 C 204.238 208.836,204.256 209.522,203.993 210.013 C 203.777 210.417,203.600 211.119,203.600 211.574 C 203.600 212.028,203.420 212.400,203.200 212.400 C 202.966 212.400,202.800 211.040,202.800 209.120 C 202.800 205.789,203.112 205.466,203.938 207.939 M211.318 208.095 C 211.203 208.698,210.949 209.092,210.754 208.972 C 210.335 208.713,210.278 206.656,210.678 206.255 C 211.143 205.790,211.540 206.932,211.318 208.095 M168.800 206.953 C 168.800 207.038,168.350 207.193,167.800 207.298 C 167.250 207.403,166.800 207.334,166.800 207.145 C 166.800 206.955,167.250 206.800,167.800 206.800 C 168.350 206.800,168.800 206.869,168.800 206.953 M171.435 211.754 C 171.206 212.977,170.981 213.205,169.788 213.429 C 167.838 213.795,166.545 213.224,168.250 212.751 C 170.163 212.219,170.567 211.519,169.983 209.749 C 169.547 208.428,169.576 208.206,170.247 207.712 C 171.180 207.024,171.877 209.396,171.435 211.754 M257.771 210.229 C 258.836 211.294,258.106 212.537,256.166 212.964 C 254.974 213.225,254.000 212.238,254.000 210.768 C 254.000 209.736,256.868 209.325,257.771 210.229 M253.590 211.757 C 253.821 212.780,253.760 213.301,253.372 213.623 C 252.687 214.192,252.185 212.509,252.576 210.953 C 252.897 209.675,253.169 209.891,253.590 211.757 M349.590 211.757 C 349.821 212.780,349.760 213.301,349.372 213.623 C 348.687 214.192,348.185 212.509,348.576 210.953 C 348.897 209.675,349.169 209.891,349.590 211.757 M237.200 211.591 C 237.200 213.063,235.387 214.540,234.772 213.568 C 233.762 211.973,234.405 210.400,236.067 210.400 C 237.057 210.400,237.200 210.550,237.200 211.591 M243.936 211.564 C 244.010 212.089,243.845 212.943,243.568 213.460 C 242.911 214.687,241.600 213.694,241.600 211.971 C 241.600 210.207,243.691 209.842,243.936 211.564 M270.606 210.800 C 271.373 210.800,271.709 212.169,271.397 214.017 C 271.072 215.940,270.857 215.972,269.700 214.273 C 268.623 212.691,268.442 210.177,269.433 210.557 C 269.781 210.691,270.309 210.800,270.606 210.800 M341.772 212.755 C 342.189 213.429,340.953 214.066,340.436 213.444 C 340.074 213.007,340.084 212.831,340.483 212.670 C 341.276 212.352,341.534 212.369,341.772 212.755 M269.473 217.654 C 269.079 218.286,268.976 218.301,268.679 217.769 C 268.243 216.991,269.168 215.701,269.628 216.445 C 269.792 216.711,269.723 217.255,269.473 217.654 M268.200 218.800 C 268.343 219.031,267.972 219.197,267.324 219.194 C 266.451 219.189,266.334 219.101,266.800 218.800 C 267.569 218.303,267.893 218.303,268.200 218.800 M122.397 228.604 C 115.950 236.372,98.339 241.503,87.400 238.800 C 85.640 238.365,83.980 238.007,83.712 238.005 C 83.443 238.002,82.242 237.551,81.042 237.002 C 79.381 236.242,78.637 236.093,77.930 236.377 C 77.065 236.723,77.091 236.751,78.300 236.775 C 79.015 236.789,79.600 236.975,79.600 237.189 C 79.600 237.403,80.635 237.856,81.900 238.197 C 83.165 238.538,85.100 239.128,86.200 239.508 C 89.052 240.495,100.967 240.510,103.600 239.531 C 104.590 239.162,106.030 238.740,106.800 238.593 C 108.138 238.337,112.739 236.417,114.000 235.588 C 114.330 235.372,115.050 234.972,115.600 234.701 C 117.086 233.967,120.878 231.047,122.445 229.429 C 122.856 229.005,123.294 228.761,123.420 228.886 C 123.929 229.395,123.743 244.746,123.220 245.376 C 122.622 246.096,114.937 250.000,114.117 250.000 C 113.811 250.000,113.063 250.257,112.455 250.572 C 109.483 252.108,101.974 253.348,95.477 253.374 C 89.733 253.398,89.275 253.450,90.477 253.948 C 91.915 254.543,101.641 254.305,104.400 253.607 C 105.170 253.412,106.970 252.967,108.400 252.619 C 113.616 251.347,118.825 249.186,122.700 246.686 L 124.400 245.590 124.400 237.275 C 124.400 228.266,124.025 226.642,122.397 228.604 M222.400 231.367 C 222.400 232.235,222.844 233.200,223.243 233.200 C 223.439 233.200,223.600 232.660,223.600 232.000 C 223.600 231.200,223.400 230.800,223.000 230.800 C 222.670 230.800,222.400 231.055,222.400 231.367 M226.595 231.729 C 226.416 232.410,226.472 233.032,226.736 233.296 C 227.380 233.940,227.802 232.570,227.297 231.478 C 226.899 230.618,226.885 230.623,226.595 231.729 M300.715 232.000 C 300.618 232.660,300.687 233.200,300.869 233.200 C 301.051 233.200,301.200 232.660,301.200 232.000 C 301.200 231.340,301.130 230.800,301.045 230.800 C 300.960 230.800,300.812 231.340,300.715 232.000 M320.813 231.900 C 320.825 232.954,320.850 232.967,321.413 232.224 C 322.161 231.234,322.157 230.800,321.400 230.800 C 321.009 230.800,320.804 231.183,320.813 231.900 M182.548 232.198 C 182.195 232.946,182.214 233.197,182.636 233.359 C 183.365 233.638,183.666 233.049,183.300 232.059 C 183.007 231.268,182.985 231.272,182.548 232.198 M242.800 232.124 C 242.800 232.814,243.015 233.200,243.400 233.200 C 244.147 233.200,244.143 232.823,243.387 231.824 C 242.824 231.079,242.800 231.091,242.800 232.124 M316.496 232.394 C 316.142 232.961,316.156 233.174,316.555 233.327 C 317.454 233.672,317.988 233.072,317.444 232.327 C 316.991 231.708,316.922 231.713,316.496 232.394 M194.453 232.536 C 194.081 232.984,194.108 233.156,194.577 233.336 C 195.301 233.613,195.842 232.882,195.308 232.348 C 195.065 232.105,194.754 232.174,194.453 232.536 M216.454 232.534 C 216.081 232.984,216.107 233.155,216.577 233.336 C 217.304 233.615,217.660 233.144,217.238 232.462 C 216.997 232.071,216.826 232.087,216.454 232.534 M258.655 232.600 C 258.488 233.036,258.702 233.200,259.441 233.200 C 260.344 233.200,260.390 233.133,259.857 232.600 C 259.527 232.270,259.174 232.000,259.071 232.000 C 258.969 232.000,258.782 232.270,258.655 232.600 M285.800 232.800 C 285.655 233.034,286.070 233.200,286.800 233.200 C 287.530 233.200,287.945 233.034,287.800 232.800 C 287.664 232.580,287.214 232.400,286.800 232.400 C 286.386 232.400,285.936 232.580,285.800 232.800 M310.967 232.854 C 310.849 233.044,311.303 233.200,311.976 233.200 C 312.649 233.200,313.200 233.131,313.200 233.047 C 313.200 232.707,311.166 232.531,310.967 232.854 " stroke="none" fill="#84accc" fill-rule="evenodd"></path></g></svg>