<?xml version="1.0" standalone="no"?>
<!DOCTYPE svg PUBLIC "-//W3C//DTD SVG 20010904//EN"
 "http://www.w3.org/TR/2001/REC-SVG-20010904/DTD/svg10.dtd">
<svg version="1.0" xmlns="http://www.w3.org/2000/svg"
 width="200.000000pt" height="200.000000pt" viewBox="0 0 200.000000 200.000000"
 preserveAspectRatio="xMidYMid meet">

<g transform="translate(0.000000,200.000000) scale(0.100000,-0.100000)"
fill="#000000" stroke="none">
<path d="M424 1243 c-17 -15 -39 -38 -49 -51 l-18 -22 36 15 c68 28 158 17
205 -27 l22 -21 0 47 c0 45 -2 48 -36 62 -20 8 -57 18 -83 20 -40 5 -50 2 -77
-23z"/>
<path d="M640 1000 c0 -117 3 -211 6 -207 3 3 7 56 7 118 l2 112 40 14 c42 14
85 54 85 79 0 8 -10 14 -22 14 -27 0 -88 -35 -88 -50 0 -5 -5 -10 -11 -10 -6
0 -10 24 -8 65 1 36 -1 68 -4 72 -4 3 -7 -90 -7 -207z"/>
<path d="M227 1102 c-21 -54 -22 -151 -1 -200 l16 -37 15 40 c22 59 23 152 3
199 l-16 40 -17 -42z"/>
<path d="M400 1118 c0 -35 41 -100 78 -124 31 -22 130 -49 140 -40 2 3 0 17
-5 33 -7 21 -18 29 -49 35 -76 15 -84 19 -119 49 -46 41 -45 55 1 24 20 -14
42 -25 49 -25 7 0 28 -3 46 -6 l34 -7 -24 27 c-22 23 -102 56 -138 56 -7 0
-13 -10 -13 -22z"/>
<path d="M791 964 c0 -11 3 -14 6 -6 3 7 2 16 -1 19 -3 4 -6 -2 -5 -13z"/>
<path d="M891 964 c0 -11 3 -14 6 -6 3 7 2 16 -1 19 -3 4 -6 -2 -5 -13z"/>
<path d="M1632 955 c0 -16 2 -22 5 -12 2 9 2 23 0 30 -3 6 -5 -1 -5 -18z"/>
<path d="M941 954 c0 -11 3 -14 6 -6 3 7 2 16 -1 19 -3 4 -6 -2 -5 -13z"/>
<path d="M1011 954 c0 -11 3 -14 6 -6 3 7 2 16 -1 19 -3 4 -6 -2 -5 -13z"/>
<path d="M1532 950 c0 -14 2 -19 5 -12 2 6 2 18 0 25 -3 6 -5 1 -5 -13z"/>
<path d="M846 943 c-6 -14 -5 -15 5 -6 7 7 10 15 7 18 -3 3 -9 -2 -12 -12z"/>
<path d="M604 849 c-22 -37 -151 -62 -195 -39 -29 16 -24 -4 13 -46 31 -35 34
-36 80 -30 27 4 65 14 84 23 31 15 34 21 34 60 0 44 -4 51 -16 32z"/>
</g>
</svg>
