<?xml version="1.0" standalone="yes"?>
<svg xmlns="http://www.w3.org/2000/svg" width="600" height="600">
<path style="fill:#010101; stroke:none;" d="M0 0L0 600L600 600L600 0L0 0z"/>
<path style="fill:#fefffe; stroke:none;" d="M201 201L201 399L399 399L399 201L201 201z"/>
<path style="fill:#77adab; stroke:none;" d="M243 273L244 274L243 273z"/>
<path style="fill:#74ab31; stroke:none;" d="M229 294L246 274C235.396 271.579 221.286 283.781 229 294z"/>
<path style="fill:#125fa0; stroke:none;" d="M237 283C247.09 279.114 252.466 280.57 262 285C261.942 268.478 243.632 272.426 237 283z"/>
<path style="fill:#77adab; stroke:none;" d="M250 273L250 274L254 274L250 273M239 274L240 275L239 274M256 274L257 275L256 274M258.667 275.333L259.333 275.667L258.667 275.333M261 276L262 277L261 276M262 277L261 286C263.641 283.693 263.296 280.089 262 277M264 278L266 280L264 278z"/>
<path style="fill:#125fa0; stroke:none;" d="M264 279L264 321L265 321L266 297C272.244 296.06 276.691 293.47 278 287L266 293L264 279z"/>
<path style="fill:#77adab; stroke:none;" d="M229 280L230 281L229 280M243 280L243 281L246 281L243 280M250 280L250 281L253 281L250 280M228 281L229 282L228 281M240.667 281.333L241.333 281.667L240.667 281.333M254.667 281.333L255.333 281.667L254.667 281.333M238 282L239 283L238 282M257 282L258 283L257 282M260 284L261 285L260 284M225 285L226 286L225 285M234 285L235 286L234 285M233 286L234 287L233 286M240 286L240 287L247 287L240 286z"/>
<path style="fill:#125fa0; stroke:none;" d="M224 287C222.114 295.252 219.442 304.53 225 312C228.149 305.227 231.413 292.059 224 287M240 287C242.926 299.314 250.476 302.829 262 305C260.953 295.714 247.461 296.57 242 289L257 294C253.43 287.493 246.739 287.004 240 287z"/>
<path style="fill:#77adab; stroke:none;" d="M249 287L250 288L249 287M272.667 287.333L273.333 287.667L272.667 287.333M278.333 287.667L278.667 288.333L278.333 287.667M223.333 288.667L223.667 289.333L223.333 288.667z"/>
<path style="fill:#74ab31; stroke:none;" d="M241 288L242 289L241 288z"/>
<path style="fill:#77adab; stroke:none;" d="M251 288L252 289L251 288M270 288L271 289L270 288M240.333 289.667L240.667 290.333L240.333 289.667z"/>
<path style="fill:#74ab31; stroke:none;" d="M242 289C245.417 296.156 252.597 297.846 260 298C257.147 292.776 247.502 290.999 242 289z"/>
<path style="fill:#77adab; stroke:none;" d="M253 289L254 290L253 289M269 289L270 290L269 289M254 290L255 291L254 290M268 290L269 291L268 290M277 290L278 291L277 290M222.333 291.667L222.667 292.333L222.333 291.667M267 291L268 292L267 291M241 292L242 293L241 292M266 292L267 293L266 292M276 292L277 293L276 292M257 293L258 294L257 293M275 293L276 294L275 293M221 294L221 299L222 299L221 294M242 294L243 295L242 294M258 294L259 295L258 294M274 294L275 295L274 294M228 295L228 299L229 299L228 295M272 295L273 296L272 295M243 296L244 297L243 296M269.667 296.333L270.333 296.667L269.667 296.333M244 297L245 298L244 297M266 297L267 298L266 297M245 298L246 299L245 298M260 298L261 299L260 298M287 304L283 305L286 304L285 307L281 307L280 306L281 301L286 302C278.522 290.635 279.324 317.866 287 304M345 299L345 305L343 304L343 305L343 308L350 308L347 299L345 299M353 299L353 308L354 308L355 299L353 299M362 299L362 308L363 308L364 299L362 299M228 300L228 304L229 304L228 300M247 300L248 301L247 300M261 300L262 301L261 300z"/>
<path style="fill:#125fa0; stroke:none;" d="M284 300L285 301L284 300M346 300L347 301L346 300z"/>
<path style="fill:#77adab; stroke:none;" d="M221 301L221 305L222 305L221 301M248 301L249 302L248 301M288 302L288 303L291 304L292 301L288 302M294 302L297 303L297 304L295 304L295 305L299 305C298 301.964 297.137 301.506 294 302M301 302L301 307L306 307L303 306L303 305L306 305L306 302L301 302M308 301L308 308L309 308L313 302L313 301L308 301M315 301L317 308L318 308L319 305L320 305L321 308L322 308L323 301L322 301L322 304L319 304L320 301L319 301L318 304L317 304L315 301M325 302L325 303L328 303L325 305L325 307L326 308L330 308L330 307L327 306L327 305L330 305L329 301L325 302M332 301L335 307L332 310L334 308L337 301L336 301L334 304L332 301M357 301L359 304L360 301L357 301M366 303L371 304C369.392 301.556 368.413 301.338 366 303M373 302L376 303L376 304L373 304L373 305L376 305L376 306L373 307L373 308L377 308C378.559 304.15 377.32 301.34 373 302M250 302L251 303L250 302z"/>
<path style="fill:#125fa0; stroke:none;" d="M289.333 302.667L289.667 303.333L289.333 302.667z"/>
<path style="fill:#74ab31; stroke:none;" d="M297 302L298 303L297 302z"/>
<path style="fill:#125fa0; stroke:none;" d="M312 302L313 303L312 302M319 302L320 303L319 302z"/>
<path style="fill:#74ab31; stroke:none;" d="M322 302L323 303L322 302M326 302L327 303L326 302M329.333 302.667L329.667 303.333L329.333 302.667z"/>
<path style="fill:#125fa0; stroke:none;" d="M336 302L337 303L336 302z"/>
<path style="fill:#fefffe; stroke:none;" d="M346.333 302.667L346.667 303.333L346.333 302.667z"/>
<path style="fill:#74ab31; stroke:none;" d="M347 302L348 303L347 302z"/>
<path style="fill:#125fa0; stroke:none;" d="M357.333 302.667L357.667 303.333L357.333 302.667z"/>
<path style="fill:#74ab31; stroke:none;" d="M376 302L377 303L376 302z"/>
<path style="fill:#77adab; stroke:none;" d="M253 303L254 304L253 303M262.333 303.667L262.667 304.333L262.333 303.667z"/>
<path style="fill:#74ab31; stroke:none;" d="M279 303L280 304L279 303z"/>
<path style="fill:#125fa0; stroke:none;" d="M294 303L295 304L294 303z"/>
<path style="fill:#fefffe; stroke:none;" d="M295.667 303.333L296.333 303.667L295.667 303.333z"/>
<path style="fill:#74ab31; stroke:none;" d="M301 303L302 304L301 303z"/>
<path style="fill:#fefffe; stroke:none;" d="M303 303L304 304L303 303z"/>
<path style="fill:#74ab31; stroke:none;" d="M305 303L306 304L305 303M312 303L312 306L313 306L312 303z"/>
<path style="fill:#77adab; stroke:none;" d="M313 303L312 308L313 308L313 303z"/>
<path style="fill:#74ab31; stroke:none;" d="M319 303L320 304L319 303M344 303L345 304L344 303M366 303L367 304L366 303M228 304C222.727 317.696 232.694 323.506 245 327L228 304z"/>
<path style="fill:#77adab; stroke:none;" d="M256 304L256 305L260 305L256 304z"/>
<path style="fill:#125fa0; stroke:none;" d="M285.333 304.667L285.667 305.333L285.333 304.667z"/>
<path style="fill:#74ab31; stroke:none;" d="M289.333 304.667L289.667 305.333L289.333 304.667z"/>
<path style="fill:#77adab; stroke:none;" d="M293 304L294 305L293 304z"/>
<path style="fill:#74ab31; stroke:none;" d="M294.333 304.667L294.667 305.333L294.333 304.667z"/>
<path style="fill:#125fa0; stroke:none;" d="M344 304L345 305L344 304z"/>
<path style="fill:#74ab31; stroke:none;" d="M357.333 304.667L357.667 305.333L357.333 304.667z"/>
<path style="fill:#125fa0; stroke:none;" d="M366 304L367 305L366 304z"/>
<path style="fill:#74ab31; stroke:none;" d="M280 305L281 306L280 305M301 305L302 306L301 305M317 305L318 306L317 305z"/>
<path style="fill:#fefffe; stroke:none;" d="M327.667 305.333L328.333 305.667L327.667 305.333z"/>
<path style="fill:#74ab31; stroke:none;" d="M329 305L330 306L329 305M366 305L367 306L366 305z"/>
<path style="fill:#77adab; stroke:none;" d="M366 306C368.413 307.662 369.392 307.444 371 305L366 306z"/>
<path style="fill:#125fa0; stroke:none;" d="M373 305L374 306L373 305z"/>
<path style="fill:#fefffe; stroke:none;" d="M374.667 305.333L375.333 305.667L374.667 305.333z"/>
<path style="fill:#74ab31; stroke:none;" d="M281 306L282 307L281 306M284 306L285 307L284 306z"/>
<path style="fill:#77adab; stroke:none;" d="M288 306L290 308L288 306z"/>
<path style="fill:#125fa0; stroke:none;" d="M289 306L290 307L289 306z"/>
<path style="fill:#77adab; stroke:none;" d="M294 306L294 307L299 307L294 306z"/>
<path style="fill:#74ab31; stroke:none;" d="M297 306L298 307L297 306z"/>
<path style="fill:#125fa0; stroke:none;" d="M312 306L313 307L312 306M317 306L318 307L317 306M321 306L322 307L321 306M329 306L330 307L329 306z"/>
<path style="fill:#74ab31; stroke:none;" d="M334 306L335 307L334 306z"/>
<path style="fill:#125fa0; stroke:none;" d="M343 306L344 307L343 306z"/>
<path style="fill:#74ab31; stroke:none;" d="M349 306L350 307L349 306z"/>
<path style="fill:#77adab; stroke:none;" d="M356 306L358 308L356 306z"/>
<path style="fill:#125fa0; stroke:none;" d="M357 306L358 307L357 306z"/>
<path style="fill:#74ab31; stroke:none;" d="M373 306L374 307L373 306M376 306L377 307L376 306z"/>
<path style="fill:#77adab; stroke:none;" d="M222.333 307.667L222.667 308.333L222.333 307.667z"/>
<path style="fill:#74ab31; stroke:none;" d="M334 308L335 309L334 308z"/>
<path style="fill:#77adab; stroke:none;" d="M223 310L224 311L223 310M224 312L225 313L224 312M233 313L234 314L233 313M225 314L226 315L225 314M234 314L235 315L234 314M260 315L260 316C263.249 316 262 320.285 262 323L263 323L263 314L260 315z"/>
<path style="fill:#125fa0; stroke:none;" d="M261 315C253.237 319.883 247.664 319.981 239 318C244.462 327.416 266.83 328.917 261 315z"/>
<path style="fill:#77adab; stroke:none;" d="M277 317L289 317L289 315L277 317M291.333 315.667L291.667 316.333L291.333 315.667M294 315C295.947 317.231 298.053 317.231 300 315L294 315M302 315L302 316L306 317L302 315M307 315L307 317L309 317L309 315L307 315M310 315L310 317L314 317L314 315L310 315M315 315L319 317L315 315M320 315L320 317L327 316L320 315M328 316L328 317L335 317L335 315L328 316M337.333 315.667L337.667 316.333L337.333 315.667M341 315L350 317L341 315M352 315L352 317L363 316L352 315M365 315L365 317L374 317L365 315M375 315L375 317L377 317L377 315L375 315M258 316L259 317L258 316M339 316L340 317L339 316M257 317L258 318L257 317M228 318L229 319L228 318M241 318L242 319L241 318M254 318L255 319L254 318M229 319L230 320L229 319M244 319L244 320L252 320L244 319M265 320L266 321L265 320M233 322L234 323L233 322M260 323L261 324L260 323M258 324L259 325L258 324M239 325L240 326L239 325M255.667 325.333L256.333 325.667L255.667 325.333M243 326L244 327L243 326M245 326L245 327L253 327L245 326z"/>
</svg>
