<?xml version="1.0" standalone="no"?>
<!DOCTYPE svg PUBLIC "-//W3C//DTD SVG 20010904//EN"
 "http://www.w3.org/TR/2001/REC-SVG-20010904/DTD/svg10.dtd">
<svg version="1.0" xmlns="http://www.w3.org/2000/svg"
 width="2480.000000pt" height="1200.000000pt" viewBox="0 0 2480.000000 1200.000000"
 preserveAspectRatio="xMidYMid meet">

<g transform="translate(0.000000,1200.000000) scale(0.100000,-0.100000)"
fill="#000000" stroke="none">
<path d="M11333 6533 c-29 -6 -125 -93 -164 -150 -16 -23 -27 -43 -24 -43 3 0
23 9 44 19 129 66 301 45 424 -51 l38 -30 -3 88 -3 89 -55 27 c-71 35 -202 61
-257 51z"/>
<path d="M11680 6007 c0 -235 4 -427 8 -427 28 0 32 30 32 250 l0 225 72 17
c79 19 125 54 159 120 32 63 28 72 -36 65 -69 -7 -136 -44 -170 -95 l-25 -37
0 136 c0 123 -2 138 -20 154 -20 18 -20 17 -20 -408z"/>
<path d="M10880 6235 c-68 -140 -66 -349 4 -473 12 -23 14 -19 46 65 29 76 34
102 36 188 2 89 -1 109 -28 183 -17 45 -32 82 -33 82 -2 0 -13 -20 -25 -45z"/>
<path d="M11204 6233 c10 -54 59 -151 102 -201 56 -65 153 -107 298 -127 l49
-7 -7 32 c-3 18 -14 51 -25 74 l-18 43 -59 2 c-136 4 -239 58 -307 161 -28 40
-19 44 20 10 56 -49 133 -81 218 -89 41 -4 75 -4 75 -1 0 9 -48 52 -88 80 -48
32 -144 60 -209 60 l-55 0 6 -37z"/>
<path d="M13318 6003 c7 -3 16 -2 19 1 4 3 -2 6 -13 5 -11 0 -14 -3 -6 -6z"/>
<path d="M13468 6003 c6 -2 18 -2 25 0 6 3 1 5 -13 5 -14 0 -19 -2 -12 -5z"/>
<path d="M11999 5983 c-13 -16 -12 -17 4 -4 9 7 17 15 17 17 0 8 -8 3 -21 -13z"/>
<path d="M12216 5962 c-3 -5 1 -9 9 -9 8 0 15 4 15 9 0 4 -4 8 -9 8 -6 0 -12
-4 -15 -8z"/>
<path d="M12318 5963 c7 -3 16 -2 19 1 4 3 -2 6 -13 5 -11 0 -14 -3 -6 -6z"/>
<path d="M12948 5963 c7 -3 16 -2 19 1 4 3 -2 6 -13 5 -11 0 -14 -3 -6 -6z"/>
<path d="M13585 5960 c3 -5 8 -10 11 -10 2 0 4 5 4 10 0 6 -5 10 -11 10 -5 0
-7 -4 -4 -10z"/>
<path d="M13898 5963 c7 -3 16 -2 19 1 4 3 -2 6 -13 5 -11 0 -14 -3 -6 -6z"/>
<path d="M12721 5945 c0 -11 4 -29 9 -40 l9 -20 0 20 c0 11 -4 29 -9 40 l-9
20 0 -20z"/>
<path d="M12846 5945 c-3 -9 -6 -24 -5 -33 0 -9 5 -4 10 12 9 32 6 48 -5 21z"/>
<path d="M12915 5950 c-3 -5 -1 -10 4 -10 6 0 11 5 11 10 0 6 -2 10 -4 10 -3
0 -8 -4 -11 -10z"/>
<path d="M13541 5913 c0 -29 3 -53 7 -53 4 0 6 17 4 38 -6 64 -10 69 -11 15z"/>
<path d="M13865 5950 c-3 -5 -1 -10 4 -10 6 0 11 5 11 10 0 6 -2 10 -4 10 -3
0 -8 -4 -11 -10z"/>
<path d="M12989 5943 c-3 -22 0 -76 5 -81 3 -3 6 16 6 41 0 26 -2 47 -5 47 -3
0 -6 -3 -6 -7z"/>
<path d="M13939 5948 c-6 -23 -5 -69 2 -79 6 -9 9 3 9 34 0 26 -2 47 -5 47 -3
0 -5 -1 -6 -2z"/>
<path d="M12361 5924 c0 -11 3 -14 6 -6 3 7 2 16 -1 19 -3 4 -6 -2 -5 -13z"/>
<path d="M12109 5923 c-5 -25 -4 -61 0 -57 7 6 11 64 5 64 -2 0 -5 -3 -5 -7z"/>
<path d="M12802 5910 c0 -14 2 -19 5 -12 2 6 2 18 0 25 -3 6 -5 1 -5 -13z"/>
<path d="M13720 5909 c0 -11 5 -17 10 -14 6 3 10 13 10 21 0 8 -4 14 -10 14
-5 0 -10 -9 -10 -21z"/>
<path d="M12420 5905 c0 -8 4 -15 10 -15 5 0 7 7 4 15 -4 8 -8 15 -10 15 -2 0
-4 -7 -4 -15z"/>
<path d="M13113 5905 c-3 -9 -3 -18 -1 -21 3 -3 8 4 11 16 6 23 -1 27 -10 5z"/>
<path d="M12919 5908 c-4 -15 -6 -50 -3 -41 3 7 5 15 4 19 -1 4 4 11 12 15 10
7 10 9 1 9 -7 0 -13 -1 -14 -2z"/>
<path d="M13305 5900 c-4 -6 7 -10 27 -10 25 0 29 3 18 10 -19 13 -37 13 -45
0z"/>
<path d="M13865 5900 c-3 -6 1 -7 9 -4 18 7 21 14 7 14 -6 0 -13 -4 -16 -10z"/>
<path d="M12350 5869 c0 -5 5 -7 10 -4 6 3 10 8 10 11 0 2 -4 4 -10 4 -5 0
-10 -5 -10 -11z"/>
<path d="M13370 5869 c0 -5 5 -7 10 -4 6 3 10 8 10 11 0 2 -4 4 -10 4 -5 0
-10 -5 -10 -11z"/>
<path d="M12048 5858 c9 -9 15 -9 24 0 9 9 7 12 -12 12 -19 0 -21 -3 -12 -12z"/>
<path d="M13770 5860 c-9 -6 -10 -10 -3 -10 6 0 15 5 18 10 8 12 4 12 -15 0z"/>
<path d="M13090 5832 c0 -7 -10 -13 -22 -13 -19 -1 -20 -2 -4 -6 20 -5 44 12
33 24 -4 3 -7 1 -7 -5z"/>
<path d="M11616 5701 c-38 -39 -120 -78 -197 -91 -62 -11 -126 -3 -218 25
l-23 8 18 -29 c10 -16 38 -55 63 -86 l44 -58 66 0 c78 0 162 20 231 55 l50 25
0 90 c0 50 -1 90 -3 90 -2 0 -16 -13 -31 -29z"/>
</g>
</svg>
