<svg version="1.1" id="Layer_1" xmlns="http://www.w3.org/2000/svg" xmlns:xlink="http://www.w3.org/1999/xlink" x="0px" y="0px"
	 width="100%" viewBox="0 0 2480 1200" enable-background="new 0 0 2480 1200" xml:space="preserve">
<path fill="#000000" opacity="1.000000" stroke="none" 
	d="
M2305.000000,1201.000000 
	C1536.666626,1201.000000 768.833313,1201.000000 1.000000,1201.000000 
	C1.000000,801.000000 1.000000,401.000000 1.000000,1.000000 
	C827.666687,1.000000 1654.333374,1.000000 2481.000000,1.000000 
	C2481.000000,401.000000 2481.000000,801.000000 2481.000000,1201.000000 
	C2422.500000,1201.000000 2364.000000,1201.000000 2305.000000,1201.000000 
M1439.000000,501.510071 
	C1439.000000,497.406799 1439.000000,493.303528 1439.000000,489.284637 
	C1306.693970,489.284637 1174.959473,489.284637 1043.286133,489.284637 
	C1043.286133,563.305847 1043.286133,637.042114 1043.286133,710.714966 
	C1175.306885,710.714966 1307.041382,710.714966 1439.000000,710.714966 
	C1439.000000,641.122803 1439.000000,571.815308 1439.000000,501.510071 
z"/>
<path fill="#FFFFFF" opacity="1.000000" stroke="none" 
	d="
M1439.000000,502.008972 
	C1439.000000,571.815308 1439.000000,641.122803 1439.000000,710.714966 
	C1307.041382,710.714966 1175.306885,710.714966 1043.286133,710.714966 
	C1043.286133,637.042114 1043.286133,563.305847 1043.286133,489.284637 
	C1174.959473,489.284637 1306.693970,489.284637 1439.000000,489.284637 
	C1439.000000,493.303528 1439.000000,497.406799 1439.000000,502.008972 
M1234.085205,547.224182 
	C1231.848022,547.600037 1229.455933,547.589478 1227.399048,548.414673 
	C1214.145630,553.731567 1208.579834,564.471313 1209.591919,582.001038 
	C1209.944336,584.566772 1209.875977,587.280457 1210.718140,589.673828 
	C1215.763550,604.014160 1227.507324,610.214722 1246.041138,608.715698 
	C1248.284668,608.335266 1250.658081,608.301636 1252.750854,607.518250 
	C1266.574463,602.344055 1272.712769,590.710999 1271.346069,573.807190 
	C1271.101440,571.257690 1271.358643,568.530762 1270.529907,566.187805 
	C1265.444458,551.809448 1253.419312,545.545227 1234.085205,547.224182 
M1247.194336,620.167175 
	C1247.044067,620.035095 1246.893921,619.903015 1247.123779,618.985046 
	C1249.943359,618.483093 1252.762939,617.981140 1255.582397,617.479126 
	C1255.478882,616.807617 1255.375366,616.136108 1255.271851,615.464600 
	C1251.234131,615.829834 1247.196289,616.195068 1242.553833,616.614990 
	C1240.884521,613.856628 1236.920044,615.626038 1233.858276,615.877014 
	C1229.421509,616.240601 1231.321899,622.077209 1227.675171,624.177307 
	C1225.846191,624.083435 1223.481445,623.962036 1220.851196,623.827026 
	C1221.751343,620.869446 1222.492188,618.434998 1223.625244,614.712158 
	C1217.719849,617.771057 1218.844116,622.846680 1216.153564,626.893005 
	C1223.819336,626.893005 1230.445068,626.912659 1237.070435,626.867004 
	C1237.854492,626.861572 1238.627319,626.441895 1239.421509,626.316772 
	C1240.275513,626.182190 1241.335205,625.814941 1241.984131,626.157410 
	C1247.447388,629.041199 1252.496704,626.737976 1254.022827,620.092529 
	C1251.798096,620.259949 1249.717041,620.416565 1247.194336,620.167175 
M1216.032104,632.303162 
	C1215.678833,633.336121 1215.325562,634.369080 1215.117310,634.977905 
	C1220.364136,635.546692 1225.796875,636.480469 1231.250366,636.623413 
	C1236.070557,636.749756 1240.914062,635.994995 1245.747192,635.629211 
	C1244.465820,633.802551 1242.932617,632.727295 1241.318970,632.588989 
	C1237.156372,632.232178 1232.957764,632.185730 1228.774536,632.211304 
	C1224.641479,632.236511 1220.509888,632.501770 1216.032104,632.303162 
M1202.527466,624.772339 
	C1204.690186,627.487854 1212.615845,628.016418 1213.865723,625.356140 
	C1215.167480,622.585571 1215.935913,619.564514 1217.264893,615.701721 
	C1213.312622,615.701721 1210.229736,615.631897 1207.154663,615.755920 
	C1206.475220,615.783386 1205.461060,616.346497 1205.222534,616.921082 
	C1204.258545,619.242676 1203.537476,621.665100 1202.527466,624.772339 
M1283.858643,615.686462 
	C1279.766846,616.081604 1277.958496,619.052185 1277.197876,626.628235 
	C1288.604736,627.468323 1291.331421,625.326233 1290.512573,615.687561 
	C1288.596558,615.687561 1286.640015,615.687561 1283.858643,615.686462 
M1269.012085,636.299011 
	C1272.243164,636.299011 1275.474365,636.299011 1279.301880,636.299011 
	C1278.473999,634.638672 1277.819092,633.325195 1277.064819,631.812622 
	C1275.874756,633.266052 1275.032471,634.294861 1273.522949,636.138489 
	C1273.522949,634.110962 1273.522949,633.170105 1273.522949,632.358643 
	C1268.893188,632.358643 1264.575195,632.358643 1260.501953,632.358643 
	C1260.573608,633.310547 1260.651245,634.341187 1260.678589,634.705505 
	C1263.161133,635.313110 1265.671021,635.927368 1269.012085,636.299011 
M1256.560547,620.984253 
	C1255.953613,622.783875 1255.346680,624.583496 1254.739746,626.383118 
	C1255.254150,626.688293 1255.768677,626.993469 1256.283203,627.298584 
	C1257.173950,625.949951 1258.548828,624.704346 1258.862183,623.232788 
	C1259.715332,619.227051 1261.854492,617.743591 1265.884277,618.241211 
	C1267.242676,618.408875 1268.724487,617.577148 1270.149902,617.202271 
	C1270.044678,616.697266 1269.939331,616.192322 1269.834106,615.687317 
	C1267.745361,615.687317 1265.637573,615.866577 1263.571899,615.647888 
	C1259.921509,615.261414 1257.392578,616.247925 1256.560547,620.984253 
M1202.208740,615.862793 
	C1198.139771,616.001099 1193.875366,614.616699 1188.837769,617.446472 
	C1191.335327,618.114075 1192.620117,618.457520 1194.110596,618.855957 
	C1193.257324,621.543884 1192.486328,623.972412 1191.715454,626.400940 
	C1192.232910,626.684937 1192.750366,626.968933 1193.267944,627.252869 
	C1194.147217,625.910767 1195.309326,624.671753 1195.844116,623.204102 
	C1196.820435,620.525208 1197.291870,617.632996 1201.267578,618.172974 
	C1201.663086,618.226685 1202.226929,617.040405 1202.208740,615.862793 
M1274.729248,621.450684 
	C1275.277466,619.649414 1275.825562,617.848145 1276.373657,616.046936 
	C1271.140991,618.054138 1271.598633,622.783264 1269.815430,626.397888 
	C1270.437500,626.725281 1271.059570,627.052734 1271.681641,627.380188 
	C1272.587891,625.630554 1273.494141,623.880920 1274.729248,621.450684 
M1256.851807,633.894104 
	C1256.966797,633.916321 1257.081665,633.938538 1257.196655,633.960693 
	C1257.118286,633.906006 1257.039795,633.851318 1256.851807,633.894104 
z"/>
<path fill="#13A345" opacity="1.000000" stroke="none" 
	d="
M1247.635986,620.573181 
	C1249.717041,620.416565 1251.798096,620.259949 1254.022827,620.092529 
	C1252.496704,626.737976 1247.447388,629.041199 1241.984131,626.157410 
	C1241.335205,625.814941 1240.275513,626.182190 1239.421509,626.316772 
	C1238.627319,626.441895 1237.854492,626.861572 1237.070435,626.867004 
	C1230.445068,626.912659 1223.819336,626.893005 1216.153564,626.893005 
	C1218.844116,622.846680 1217.719849,617.771057 1223.625244,614.712158 
	C1222.492188,618.434998 1221.751343,620.869446 1220.851196,623.827026 
	C1223.481445,623.962036 1225.846191,624.083435 1227.675171,624.177307 
	C1231.321899,622.077209 1229.421509,616.240601 1233.858276,615.877014 
	C1236.920044,615.626038 1240.884521,613.856628 1242.553833,616.614990 
	C1247.196289,616.195068 1251.234131,615.829834 1255.271851,615.464600 
	C1255.375366,616.136108 1255.478882,616.807617 1255.582397,617.479126 
	C1252.762939,617.981140 1249.943359,618.483093 1246.677246,619.626038 
	C1245.926880,621.425354 1245.623047,622.583679 1245.274170,623.913452 
	C1246.970215,623.913452 1248.246704,623.913452 1248.922852,623.913452 
	C1248.503906,622.825867 1248.069946,621.699524 1247.635986,620.573181 
z"/>
<path fill="#A0D020" opacity="1.000000" stroke="none" 
	d="
M1245.413574,608.237488 
	C1227.507324,610.214722 1215.763550,604.014160 1210.718140,589.673828 
	C1209.875977,587.280457 1209.944336,584.566772 1209.928223,582.053650 
	C1211.844482,585.664124 1213.424438,589.222046 1215.010132,593.112427 
	C1215.362793,593.640747 1215.709595,593.836731 1216.015625,594.027222 
	C1215.974854,594.021729 1215.975098,593.939209 1215.953369,594.290405 
	C1216.976685,595.433716 1218.021851,596.225769 1219.025879,597.018066 
	C1218.984741,597.018372 1218.976440,596.936584 1218.955811,597.259155 
	C1219.313965,597.726746 1219.692749,597.871765 1220.029053,598.015747 
	C1219.986328,598.014648 1219.981934,597.929321 1219.991089,598.234070 
	C1220.359009,598.696899 1220.717651,598.854919 1221.029663,599.017822 
	C1220.982910,599.022583 1220.964722,598.930420 1221.108643,599.222107 
	C1221.859741,599.677917 1222.467041,599.842041 1223.030518,600.013062 
	C1222.986572,600.019958 1222.965210,599.933655 1223.079956,600.277283 
	C1228.598633,601.834595 1234.078979,604.327576 1239.391357,604.009888 
	C1252.655029,603.216736 1261.900024,596.216980 1266.059082,583.404419 
	C1267.068726,593.848267 1256.410889,606.396057 1245.413574,608.237488 
z"/>
<path fill="#13A345" opacity="1.000000" stroke="none" 
	d="
M1245.727295,608.476562 
	C1256.410889,606.396057 1267.068726,593.848267 1266.135620,583.005615 
	C1267.806030,569.340515 1261.212646,560.787598 1250.072510,553.798157 
	C1252.130127,553.929810 1253.088013,553.991089 1254.031494,554.010620 
	C1254.017212,553.968872 1253.930786,553.986450 1254.109863,554.271484 
	C1255.535889,555.057922 1256.783081,555.559387 1258.021240,556.020630 
	C1258.012207,555.980469 1257.930542,555.990845 1258.082520,556.273193 
	C1259.162842,557.058533 1260.091309,557.561462 1261.013916,558.026550 
	C1261.008179,557.988708 1260.931885,557.996033 1261.087402,558.315552 
	C1261.838013,558.781738 1262.433105,558.928467 1263.022217,559.028198 
	C1263.016235,558.981262 1262.921509,558.985291 1262.836548,559.346436 
	C1263.173218,559.830933 1263.594727,559.954285 1264.014771,560.032227 
	C1264.013184,559.986755 1263.922363,559.983704 1263.851685,560.346741 
	C1264.192627,560.832520 1264.604248,560.955261 1265.017822,561.030579 
	C1265.019653,560.983154 1264.925415,560.971375 1264.745605,561.279175 
	C1265.046631,562.080322 1265.527588,562.573608 1266.013428,563.026428 
	C1266.018433,562.985962 1265.938721,562.968933 1266.006104,563.279602 
	C1266.380615,563.869568 1266.687622,564.148926 1267.186768,564.699097 
	C1268.489380,567.926575 1269.600098,570.883057 1270.710693,573.839600 
	C1272.712769,590.710999 1266.574463,602.344055 1252.750854,607.518250 
	C1250.658081,608.301636 1248.284668,608.335266 1245.727295,608.476562 
z"/>
<path fill="#A0D020" opacity="1.000000" stroke="none" 
	d="
M1271.028320,573.823364 
	C1269.600098,570.883057 1268.489380,567.926575 1267.186279,564.328796 
	C1266.642212,563.447998 1266.290405,563.208496 1265.938721,562.968933 
	C1265.938721,562.968933 1266.018433,562.985962 1266.117676,562.702148 
	C1265.786499,561.936035 1265.355957,561.453735 1264.925415,560.971375 
	C1264.925415,560.971375 1265.019653,560.983154 1264.950195,560.752747 
	C1264.561279,560.342773 1264.241821,560.163269 1263.922363,559.983704 
	C1263.922363,559.983704 1264.013184,559.986755 1263.948730,559.753662 
	C1263.563354,559.342102 1263.242432,559.163696 1262.921509,558.985291 
	C1262.921509,558.985291 1263.016235,558.981262 1262.887329,558.713989 
	C1262.149536,558.296509 1261.540771,558.146301 1260.931885,557.996033 
	C1260.931885,557.996033 1261.008179,557.988708 1261.057617,557.661987 
	C1260.048340,556.887085 1258.989380,556.438965 1257.930542,555.990845 
	C1257.930542,555.990845 1258.012207,555.980469 1258.001221,555.654541 
	C1256.637085,554.881226 1255.283936,554.433838 1253.930786,553.986450 
	C1253.930786,553.986450 1254.017212,553.968872 1253.880493,553.666382 
	C1238.245605,548.231750 1225.453979,553.743774 1215.536865,569.345154 
	C1216.689087,565.872498 1217.841309,562.399902 1218.996582,558.962891 
	C1218.999634,558.998413 1218.928223,559.001709 1219.253174,559.055908 
	C1219.718628,558.713501 1219.859009,558.316895 1220.003418,557.963257 
	C1220.007446,558.006226 1219.921997,558.017334 1220.277222,557.914673 
	C1220.750854,557.186523 1220.869141,556.560974 1220.993530,555.968140 
	C1220.999512,556.000793 1220.933350,556.006958 1221.292236,556.114258 
	C1221.769165,555.790833 1221.887207,555.360229 1222.004761,554.966919 
	C1222.004272,555.004333 1221.929565,555.005432 1222.282349,555.075195 
	C1222.758911,554.739929 1222.882568,554.334900 1223.005615,553.967529 
	C1223.004883,554.005127 1222.929688,554.005798 1223.289062,554.076904 
	C1223.770386,553.743774 1223.892334,553.339600 1224.009277,552.970459 
	C1224.004272,553.005432 1223.933960,552.997559 1224.251343,553.169434 
	C1225.054565,552.869568 1225.540283,552.397888 1226.019287,551.970947 
	C1226.012329,552.015686 1225.922241,552.008057 1226.238892,551.980347 
	C1226.709961,551.612976 1226.864380,551.273254 1227.012451,550.971069 
	C1227.005981,551.008606 1226.930542,550.999084 1227.190186,551.093628 
	C1228.059692,550.853577 1228.669800,550.519043 1229.623413,550.063904 
	C1231.614258,549.077637 1233.261353,548.212036 1234.908569,547.346436 
	C1253.419312,545.545227 1265.444458,551.809448 1270.529907,566.187805 
	C1271.358643,568.530762 1271.101440,571.257690 1271.028320,573.823364 
z"/>
<path fill="#13A345" opacity="1.000000" stroke="none" 
	d="
M1234.496826,547.285278 
	C1233.261353,548.212036 1231.614258,549.077637 1229.356445,549.971802 
	C1228.140869,550.333252 1227.535645,550.666199 1226.930542,550.999084 
	C1226.930542,550.999084 1227.005981,551.008606 1226.689941,551.000488 
	C1226.223389,551.330933 1226.072754,551.669495 1225.922241,552.008057 
	C1225.922241,552.008057 1226.012329,552.015686 1225.699951,551.857117 
	C1224.903076,552.131531 1224.418457,552.564514 1223.933960,552.997559 
	C1223.933960,552.997559 1224.004272,553.005432 1223.728027,553.028748 
	C1223.277832,553.369995 1223.103760,553.687927 1222.929688,554.005859 
	C1222.929688,554.005798 1223.004883,554.005127 1222.718384,554.012573 
	C1222.264404,554.348511 1222.096924,554.676941 1221.929443,555.005371 
	C1221.929565,555.005432 1222.004272,555.004333 1221.720215,555.012817 
	C1221.268677,555.349915 1221.100952,555.678406 1220.933350,556.006958 
	C1220.933350,556.006958 1220.999512,556.000793 1220.672119,556.108887 
	C1220.203735,556.817017 1220.062866,557.417175 1219.921997,558.017334 
	C1219.921997,558.017334 1220.007446,558.006226 1219.671387,557.883972 
	C1219.199585,558.175049 1219.063843,558.588379 1218.928223,559.001709 
	C1218.928223,559.001709 1218.999634,558.998413 1218.653687,559.064941 
	C1210.209473,573.743225 1213.390015,588.913635 1226.440796,599.635376 
	C1225.948364,600.091980 1225.758911,600.282593 1225.244141,600.383179 
	C1224.267822,600.173279 1223.616455,600.053467 1222.965210,599.933655 
	C1222.965210,599.933655 1222.986572,600.019958 1222.936035,599.676270 
	C1222.245117,599.198547 1221.604980,599.064514 1220.964722,598.930420 
	C1220.964722,598.930420 1220.982910,599.022583 1221.082520,598.689575 
	C1220.781982,598.214172 1220.381958,598.071777 1219.981934,597.929321 
	C1219.981934,597.929321 1219.986328,598.014648 1219.998291,597.721802 
	C1219.665649,597.264832 1219.321045,597.100708 1218.976440,596.936523 
	C1218.976440,596.936584 1218.984741,597.018372 1218.912231,596.720154 
	C1217.884888,595.594360 1216.929932,594.766785 1215.975098,593.939209 
	C1215.975098,593.939209 1215.974854,594.021729 1215.935059,593.750244 
	C1215.598389,593.245850 1215.301270,593.012939 1215.004395,592.779968 
	C1213.424438,589.222046 1211.844482,585.664124 1210.145020,581.801575 
	C1208.579834,564.471313 1214.145630,553.731567 1227.399048,548.414673 
	C1229.455933,547.589478 1231.848022,547.600037 1234.496826,547.285278 
z"/>
<path fill="#13A345" opacity="1.000000" stroke="none" 
	d="
M1216.204834,632.482422 
	C1220.509888,632.501770 1224.641479,632.236511 1228.774536,632.211304 
	C1232.957764,632.185730 1237.156372,632.232178 1241.318970,632.588989 
	C1242.932617,632.727295 1244.465820,633.802551 1245.747192,635.629211 
	C1240.914062,635.994995 1236.070557,636.749756 1231.250366,636.623413 
	C1225.796875,636.480469 1220.364136,635.546692 1215.117310,634.977905 
	C1215.325562,634.369080 1215.678833,633.336121 1216.204834,632.482422 
M1227.954468,635.398621 
	C1227.122803,635.236938 1226.291138,635.075256 1225.459473,634.913513 
	C1225.430176,635.237915 1225.401001,635.562256 1225.371704,635.886597 
	C1226.121704,636.000244 1226.871582,636.113892 1227.954468,635.398621 
M1220.000000,634.500000 
	C1220.199951,634.633362 1220.400024,634.766724 1220.599854,634.900024 
	C1220.566528,634.600037 1220.533203,634.299988 1220.000000,634.500000 
z"/>
<path fill="#13A345" opacity="1.000000" stroke="none" 
	d="
M1202.627197,624.411377 
	C1203.537476,621.665100 1204.258545,619.242676 1205.222534,616.921082 
	C1205.461060,616.346497 1206.475220,615.783386 1207.154663,615.755920 
	C1210.229736,615.631897 1213.312622,615.701721 1217.264893,615.701721 
	C1215.935913,619.564514 1215.167480,622.585571 1213.865723,625.356140 
	C1212.615845,628.016418 1204.690186,627.487854 1202.627197,624.411377 
z"/>
<path fill="#13A345" opacity="1.000000" stroke="none" 
	d="
M1284.270996,615.687012 
	C1286.640015,615.687561 1288.596558,615.687561 1290.512573,615.687561 
	C1291.331421,625.326233 1288.604736,627.468323 1277.197876,626.628235 
	C1277.958496,619.052185 1279.766846,616.081604 1284.270996,615.687012 
M1283.151245,618.512085 
	C1282.344971,620.171936 1281.538696,621.831787 1280.675293,623.609131 
	C1285.591553,625.119141 1286.838745,622.702393 1287.302856,618.733704 
	C1286.090210,618.587097 1285.012573,618.456787 1283.151245,618.512085 
z"/>
<path fill="#13A345" opacity="1.000000" stroke="none" 
	d="
M1268.596436,636.420288 
	C1265.671021,635.927368 1263.161133,635.313110 1260.678589,634.705505 
	C1260.651245,634.341187 1260.573608,633.310547 1260.501953,632.358643 
	C1264.575195,632.358643 1268.893188,632.358643 1273.522949,632.358643 
	C1273.522949,633.170105 1273.522949,634.110962 1273.522949,636.138489 
	C1275.032471,634.294861 1275.874756,633.266052 1277.064819,631.812622 
	C1277.819092,633.325195 1278.473999,634.638672 1279.301880,636.299011 
	C1275.474365,636.299011 1272.243164,636.299011 1268.596436,636.420288 
M1271.103149,634.179871 
	C1271.479980,634.592468 1271.856689,635.005066 1272.233521,635.417725 
	C1272.569702,634.969299 1272.905884,634.520874 1273.336670,633.586975 
	C1272.729004,633.511841 1272.121460,633.436707 1271.103149,634.179871 
z"/>
<path fill="#13A345" opacity="1.000000" stroke="none" 
	d="
M1256.697021,620.619934 
	C1257.392578,616.247925 1259.921509,615.261414 1263.571899,615.647888 
	C1265.637573,615.866577 1267.745361,615.687317 1269.834106,615.687317 
	C1269.939331,616.192322 1270.044678,616.697266 1270.149902,617.202271 
	C1268.724487,617.577148 1267.242676,618.408875 1265.884277,618.241211 
	C1261.854492,617.743591 1259.715332,619.227051 1258.862183,623.232788 
	C1258.548828,624.704346 1257.173950,625.949951 1256.283203,627.298584 
	C1255.768677,626.993469 1255.254150,626.688293 1254.739746,626.383118 
	C1255.346680,624.583496 1255.953613,622.783875 1256.697021,620.619934 
z"/>
<path fill="#13A345" opacity="1.000000" stroke="none" 
	d="
M1202.460693,616.146240 
	C1202.226929,617.040405 1201.663086,618.226685 1201.267578,618.172974 
	C1197.291870,617.632996 1196.820435,620.525208 1195.844116,623.204102 
	C1195.309326,624.671753 1194.147217,625.910767 1193.267944,627.252869 
	C1192.750366,626.968933 1192.232910,626.684937 1191.715454,626.400940 
	C1192.486328,623.972412 1193.257324,621.543884 1194.110596,618.855957 
	C1192.620117,618.457520 1191.335327,618.114075 1188.837769,617.446472 
	C1193.875366,614.616699 1198.139771,616.001099 1202.460693,616.146240 
z"/>
<path fill="#13A345" opacity="1.000000" stroke="none" 
	d="
M1274.564819,621.791016 
	C1273.494141,623.880920 1272.587891,625.630554 1271.681641,627.380188 
	C1271.059570,627.052734 1270.437500,626.725281 1269.815430,626.397888 
	C1271.598633,622.783264 1271.140991,618.054138 1276.373657,616.046936 
	C1275.825562,617.848145 1275.277466,619.649414 1274.564819,621.791016 
z"/>
<path fill="#13A345" opacity="1.000000" stroke="none" 
	d="
M1256.906616,633.845337 
	C1257.039795,633.851318 1257.118286,633.906006 1257.196655,633.960693 
	C1257.081665,633.938538 1256.966797,633.916321 1256.906616,633.845337 
z"/>
<path fill="#FFFFFF" opacity="1.000000" stroke="none" 
	d="
M1247.415283,620.370178 
	C1248.069946,621.699524 1248.503906,622.825867 1248.922852,623.913452 
	C1248.246704,623.913452 1246.970215,623.913452 1245.274170,623.913452 
	C1245.623047,622.583679 1245.926880,621.425354 1246.487183,620.019043 
	C1246.893921,619.903015 1247.044067,620.035095 1247.415283,620.370178 
z"/>
<path fill="#FFFFFF" opacity="1.000000" stroke="none" 
	d="
M1226.743774,599.369324 
	C1213.390015,588.913635 1210.209473,573.743225 1218.650635,559.029419 
	C1217.841309,562.399902 1216.689087,565.872498 1215.536865,569.345154 
	C1225.453979,553.743774 1238.245605,548.231750 1253.894775,553.708130 
	C1253.088013,553.991089 1252.130127,553.929810 1250.072510,553.798157 
	C1261.212646,560.787598 1267.806030,569.340515 1265.948975,582.698975 
	C1261.900024,596.216980 1252.655029,603.216736 1239.391357,604.009888 
	C1234.078979,604.327576 1228.598633,601.834595 1223.079956,600.277283 
	C1223.616455,600.053467 1224.267822,600.173279 1225.458984,600.593140 
	C1226.580688,601.026978 1227.162476,601.160767 1227.972412,601.552551 
	C1229.096924,601.918030 1229.993164,602.025513 1231.089111,602.429565 
	C1232.334839,602.783569 1233.381104,602.841003 1234.427368,602.898438 
	C1234.434448,602.673157 1234.441528,602.447937 1234.448608,602.222656 
	C1233.384644,602.057373 1232.320557,601.892151 1231.078369,601.463745 
	C1230.102783,600.903137 1229.305420,600.605591 1228.312500,600.150269 
	C1227.659180,599.784729 1227.201416,599.577026 1226.743774,599.369324 
M1236.142700,577.551819 
	C1236.142700,581.996643 1236.142700,586.441406 1236.142700,590.844238 
	C1239.148438,590.844238 1241.538696,590.844238 1244.233398,590.844238 
	C1244.233398,584.696777 1244.233398,578.910278 1244.233398,573.184753 
	C1254.835938,571.441772 1254.835938,571.441772 1257.512207,565.902161 
	C1249.574219,565.902161 1241.765625,566.231201 1234.001343,565.787170 
	C1228.774170,565.488342 1226.903320,568.398682 1224.833862,572.800781 
	C1228.896606,572.800781 1232.321045,572.800781 1236.142578,572.800781 
	C1236.142578,574.307983 1236.142578,575.438721 1236.142700,577.551819 
M1249.353638,552.998718 
	C1248.717407,553.069092 1248.081299,553.139526 1247.445068,553.209961 
	C1247.459961,553.416748 1247.474854,553.623535 1247.489624,553.830322 
	C1248.290771,553.717102 1249.091797,553.603882 1249.353638,552.998718 
z"/>
<path fill="#FFFFFF" opacity="1.000000" stroke="none" 
	d="
M1215.953369,594.290405 
	C1216.929932,594.766785 1217.884888,595.594360 1218.953369,596.719849 
	C1218.021851,596.225769 1216.976685,595.433716 1215.953369,594.290405 
z"/>
<path fill="#FFFFFF" opacity="1.000000" stroke="none" 
	d="
M1221.108643,599.222107 
	C1221.604980,599.064514 1222.245117,599.198547 1222.979858,599.669373 
	C1222.467041,599.842041 1221.859741,599.677917 1221.108643,599.222107 
z"/>
<path fill="#FFFFFF" opacity="1.000000" stroke="none" 
	d="
M1215.010010,593.112427 
	C1215.301270,593.012939 1215.598389,593.245850 1215.975952,593.755737 
	C1215.709595,593.836731 1215.362793,593.640747 1215.010010,593.112427 
z"/>
<path fill="#FFFFFF" opacity="1.000000" stroke="none" 
	d="
M1218.955811,597.259155 
	C1219.321045,597.100708 1219.665649,597.264832 1220.041016,597.722900 
	C1219.692749,597.871765 1219.313965,597.726746 1218.955811,597.259155 
z"/>
<path fill="#FFFFFF" opacity="1.000000" stroke="none" 
	d="
M1219.991089,598.234070 
	C1220.381958,598.071777 1220.781982,598.214172 1221.129150,598.684814 
	C1220.717651,598.854919 1220.359009,598.696899 1219.991089,598.234070 
z"/>
<path fill="#FFFFFF" opacity="1.000000" stroke="none" 
	d="
M1254.109863,554.271484 
	C1255.283936,554.433838 1256.637085,554.881226 1258.010254,555.694702 
	C1256.783081,555.559387 1255.535889,555.057922 1254.109863,554.271484 
z"/>
<path fill="#FFFFFF" opacity="1.000000" stroke="none" 
	d="
M1258.082520,556.273193 
	C1258.989380,556.438965 1260.048340,556.887085 1261.063477,557.699829 
	C1260.091309,557.561462 1259.162842,557.058533 1258.082520,556.273193 
z"/>
<path fill="#FFFFFF" opacity="1.000000" stroke="none" 
	d="
M1264.745605,561.279175 
	C1265.355957,561.453735 1265.786499,561.936035 1266.112793,562.742676 
	C1265.527588,562.573608 1265.046631,562.080322 1264.745605,561.279175 
z"/>
<path fill="#FFFFFF" opacity="1.000000" stroke="none" 
	d="
M1261.087402,558.315552 
	C1261.540771,558.146301 1262.149536,558.296509 1262.893311,558.760986 
	C1262.433105,558.928467 1261.838013,558.781738 1261.087402,558.315552 
z"/>
<path fill="#FFFFFF" opacity="1.000000" stroke="none" 
	d="
M1266.006104,563.279602 
	C1266.290405,563.208496 1266.642212,563.447998 1266.994263,564.057861 
	C1266.687622,564.148926 1266.380615,563.869568 1266.006104,563.279602 
z"/>
<path fill="#FFFFFF" opacity="1.000000" stroke="none" 
	d="
M1263.851685,560.346741 
	C1264.241821,560.163269 1264.561279,560.342773 1264.948242,560.800171 
	C1264.604248,560.955261 1264.192627,560.832520 1263.851685,560.346741 
z"/>
<path fill="#FFFFFF" opacity="1.000000" stroke="none" 
	d="
M1262.836548,559.346436 
	C1263.242432,559.163696 1263.563354,559.342102 1263.950317,559.799072 
	C1263.594727,559.954285 1263.173218,559.830933 1262.836548,559.346436 
z"/>
<path fill="#FFFFFF" opacity="1.000000" stroke="none" 
	d="
M1227.190186,551.093628 
	C1227.535645,550.666199 1228.140869,550.333252 1229.012939,550.092407 
	C1228.669800,550.519043 1228.059692,550.853577 1227.190186,551.093628 
z"/>
<path fill="#FFFFFF" opacity="1.000000" stroke="none" 
	d="
M1220.277222,557.914673 
	C1220.062866,557.417175 1220.203735,556.817017 1220.666138,556.076172 
	C1220.869141,556.560974 1220.750854,557.186523 1220.277222,557.914673 
z"/>
<path fill="#FFFFFF" opacity="1.000000" stroke="none" 
	d="
M1224.251343,553.169434 
	C1224.418457,552.564514 1224.903076,552.131531 1225.706787,551.812378 
	C1225.540283,552.397888 1225.054565,552.869568 1224.251343,553.169434 
z"/>
<path fill="#FFFFFF" opacity="1.000000" stroke="none" 
	d="
M1223.289062,554.076904 
	C1223.103760,553.687927 1223.277832,553.369995 1223.733032,552.993774 
	C1223.892334,553.339600 1223.770386,553.743774 1223.289062,554.076904 
z"/>
<path fill="#FFFFFF" opacity="1.000000" stroke="none" 
	d="
M1226.238892,551.980347 
	C1226.072754,551.669495 1226.223389,551.330933 1226.696411,550.963013 
	C1226.864380,551.273254 1226.709961,551.612976 1226.238892,551.980347 
z"/>
<path fill="#FFFFFF" opacity="1.000000" stroke="none" 
	d="
M1222.282227,555.075195 
	C1222.096924,554.676941 1222.264404,554.348511 1222.718994,553.974976 
	C1222.882568,554.334900 1222.758911,554.739929 1222.282227,555.075195 
z"/>
<path fill="#FFFFFF" opacity="1.000000" stroke="none" 
	d="
M1221.292236,556.114197 
	C1221.100952,555.678406 1221.268677,555.349915 1221.720703,554.975464 
	C1221.887207,555.360229 1221.769165,555.790833 1221.292236,556.114197 
z"/>
<path fill="#FFFFFF" opacity="1.000000" stroke="none" 
	d="
M1219.253174,559.055908 
	C1219.063843,558.588379 1219.199585,558.175049 1219.667236,557.841064 
	C1219.859009,558.316895 1219.718628,558.713501 1219.253174,559.055908 
z"/>
<path fill="#FFFFFF" opacity="1.000000" stroke="none" 
	d="
M1227.788086,635.813110 
	C1226.871582,636.113892 1226.121704,636.000244 1225.371704,635.886597 
	C1225.401001,635.562256 1225.430176,635.237915 1225.459473,634.913513 
	C1226.291138,635.075256 1227.122803,635.236938 1227.788086,635.813110 
z"/>
<path fill="#FFFFFF" opacity="1.000000" stroke="none" 
	d="
M1220.250000,634.250000 
	C1220.533203,634.299988 1220.566528,634.600037 1220.599854,634.900024 
	C1220.400024,634.766724 1220.199951,634.633362 1220.250000,634.250000 
z"/>
<path fill="#FFFFFF" opacity="1.000000" stroke="none" 
	d="
M1283.543213,618.419312 
	C1285.012573,618.456787 1286.090210,618.587097 1287.302856,618.733704 
	C1286.838745,622.702393 1285.591553,625.119141 1280.675293,623.609131 
	C1281.538696,621.831787 1282.344971,620.171936 1283.543213,618.419312 
z"/>
<path fill="#FFFFFF" opacity="1.000000" stroke="none" 
	d="
M1273.241943,634.072388 
	C1272.905884,634.520874 1272.569702,634.969299 1272.233521,635.417725 
	C1271.856689,635.005066 1271.479980,634.592468 1271.695435,634.058105 
	C1272.605713,633.981628 1272.923828,634.026978 1273.241943,634.072388 
z"/>
<path fill="#FFFFFF" opacity="1.000000" stroke="none" 
	d="
M1271.900757,633.648926 
	C1272.121460,633.436707 1272.729004,633.511841 1273.289307,633.829712 
	C1272.923828,634.026978 1272.605713,633.981628 1271.900757,633.648926 
z"/>
<path fill="#13A345" opacity="1.000000" stroke="none" 
	d="
M1236.142578,577.060669 
	C1236.142578,575.438721 1236.142578,574.307983 1236.142578,572.800781 
	C1232.321045,572.800781 1228.896606,572.800781 1224.833862,572.800781 
	C1226.903320,568.398682 1228.774170,565.488342 1234.001343,565.787170 
	C1241.765625,566.231201 1249.574219,565.902161 1257.512207,565.902161 
	C1254.835938,571.441772 1254.835938,571.441772 1244.233398,573.184753 
	C1244.233398,578.910278 1244.233398,584.696777 1244.233398,590.844238 
	C1241.538696,590.844238 1239.148438,590.844238 1236.142700,590.844238 
	C1236.142700,586.441406 1236.142700,581.996643 1236.142578,577.060669 
z"/>
<path fill="#13A345" opacity="1.000000" stroke="none" 
	d="
M1231.256592,601.726868 
	C1232.320557,601.892151 1233.384644,602.057373 1234.448608,602.222656 
	C1234.441528,602.447937 1234.434448,602.673157 1234.427368,602.898438 
	C1233.381104,602.841003 1232.334839,602.783569 1231.179443,602.326904 
	C1231.070435,601.927612 1231.256592,601.726868 1231.256592,601.726868 
z"/>
<path fill="#13A345" opacity="1.000000" stroke="none" 
	d="
M1249.623291,553.244751 
	C1249.091797,553.603882 1248.290771,553.717102 1247.489624,553.830322 
	C1247.474854,553.623535 1247.459961,553.416748 1247.445068,553.209961 
	C1248.081299,553.139526 1248.717407,553.069092 1249.623291,553.244751 
z"/>
<path fill="#13A345" opacity="1.000000" stroke="none" 
	d="
M1230.979980,602.030273 
	C1229.993164,602.025513 1229.096924,601.918030 1228.172119,601.312622 
	C1228.265015,600.645813 1228.386597,600.476868 1228.508179,600.307983 
	C1229.305420,600.605591 1230.102783,600.903137 1231.078369,601.463745 
	C1231.256592,601.726868 1231.070435,601.927612 1230.979980,602.030273 
z"/>
<path fill="#13A345" opacity="1.000000" stroke="none" 
	d="
M1226.440796,599.635376 
	C1227.201416,599.577026 1227.659180,599.784729 1228.312500,600.150269 
	C1228.386597,600.476868 1228.265015,600.645813 1227.943848,601.054626 
	C1227.162476,601.160767 1226.580688,601.026978 1225.784180,600.683228 
	C1225.758911,600.282593 1225.948364,600.091980 1226.440796,599.635376 
z"/>
</svg>