<?xml version="1.0" standalone="no"?>
<!DOCTYPE svg PUBLIC "-//W3C//DTD SVG 20010904//EN"
 "http://www.w3.org/TR/2001/REC-SVG-20010904/DTD/svg10.dtd">
<svg version="1.0" xmlns="http://www.w3.org/2000/svg"
 width="284.000000pt" height="284.000000pt" viewBox="0 0 284.000000 284.000000"
 preserveAspectRatio="xMidYMid meet">

<g transform="translate(0.000000,284.000000) scale(0.100000,-0.100000)"
fill="#000000" stroke="none">
<path d="M996 1581 l-28 -29 61 5 c46 4 66 2 85 -11 33 -21 36 -21 36 10 0 19
-8 28 -35 40 -54 22 -88 18 -119 -15z"/>
<path d="M1160 1420 c0 -84 3 -150 6 -147 4 4 6 42 5 86 -2 78 -2 79 26 86 33
8 63 33 63 52 0 20 -37 16 -60 -7 -28 -28 -32 -26 -29 25 2 24 0 47 -4 51 -4
4 -7 -62 -7 -146z"/>
<path d="M871 1490 c-14 -42 -14 -101 0 -137 l11 -28 9 25 c16 39 18 111 4
143 l-12 29 -12 -32z"/>
<path d="M995 1510 c-10 -16 27 -72 65 -97 32 -22 90 -32 90 -15 0 20 -28 40
-64 45 -24 4 -50 17 -65 33 l-26 26 30 -15 c43 -20 85 -29 85 -17 0 22 -104
58 -115 40z"/>
<path d="M1120 1299 c-20 -17 -35 -20 -81 -17 l-57 4 21 -28 c24 -32 58 -36
112 -14 29 13 35 20 35 45 0 36 2 36 -30 10z"/>
</g>
</svg>
