<?xml version="1.0" standalone="yes"?>
<svg xmlns="http://www.w3.org/2000/svg" width="1240" height="600">
<path style="fill:#010101; stroke:none;" d="M0 0L0 600L1240 600L1240 0L0 0z"/>
<path style="fill:#fefffe; stroke:none;" d="M521 201L521 399L719 399L719 201L521 201z"/>
<path style="fill:#77adab; stroke:none;" d="M563 273L564 274L563 273z"/>
<path style="fill:#74ab31; stroke:none;" d="M549 294L566 274C555.396 271.579 541.286 283.781 549 294z"/>
<path style="fill:#125fa0; stroke:none;" d="M557 283C567.09 279.114 572.466 280.57 582 285C581.942 268.478 563.633 272.426 557 283z"/>
<path style="fill:#77adab; stroke:none;" d="M570 273L570 274L574 274L570 273M559 274L560 275L559 274M576 274L577 275L576 274M578.667 275.333L579.333 275.667L578.667 275.333M581 276L582 277L581 276M582 277L581 286C583.641 283.693 583.296 280.089 582 277M584 278L586 280L584 278z"/>
<path style="fill:#125fa0; stroke:none;" d="M584 279L584 321L585 321L586 297C592.244 296.06 596.691 293.47 598 287L586 293L584 279z"/>
<path style="fill:#77adab; stroke:none;" d="M549 280L550 281L549 280M563 280L563 281L566 281L563 280M570 280L570 281L573 281L570 280M548 281L549 282L548 281M560.667 281.333L561.333 281.667L560.667 281.333M574.667 281.333L575.333 281.667L574.667 281.333M558 282L559 283L558 282M577 282L578 283L577 282M580 284L581 285L580 284M545 285L546 286L545 285M554 285L555 286L554 285M553 286L554 287L553 286M560 286L560 287L567 287L560 286z"/>
<path style="fill:#125fa0; stroke:none;" d="M544 287C542.114 295.252 539.442 304.531 545 312C548.149 305.227 551.413 292.059 544 287M560 287C562.926 299.314 570.477 302.829 582 305C580.953 295.714 567.461 296.57 562 289L577 294C573.43 287.493 566.739 287.004 560 287z"/>
<path style="fill:#77adab; stroke:none;" d="M569 287L570 288L569 287M592.667 287.333L593.333 287.667L592.667 287.333M598.333 287.667L598.667 288.333L598.333 287.667M543.333 288.667L543.667 289.333L543.333 288.667z"/>
<path style="fill:#74ab31; stroke:none;" d="M561 288L562 289L561 288z"/>
<path style="fill:#77adab; stroke:none;" d="M571 288L572 289L571 288M590 288L591 289L590 288M560.333 289.667L560.667 290.333L560.333 289.667z"/>
<path style="fill:#74ab31; stroke:none;" d="M562 289C565.417 296.156 572.597 297.846 580 298C577.147 292.776 567.503 290.999 562 289z"/>
<path style="fill:#77adab; stroke:none;" d="M573 289L574 290L573 289M589 289L590 290L589 289M574 290L575 291L574 290M588 290L589 291L588 290M597 290L598 291L597 290M542.333 291.667L542.667 292.333L542.333 291.667M587 291L588 292L587 291M561 292L562 293L561 292M586 292L587 293L586 292M596 292L597 293L596 292M577 293L578 294L577 293M595 293L596 294L595 293M541 294L541 299L542 299L541 294M562 294L563 295L562 294M578 294L579 295L578 294M594 294L595 295L594 294M548 295L548 299L549 299L548 295M592 295L593 296L592 295M563 296L564 297L563 296M589.667 296.333L590.333 296.667L589.667 296.333M564 297L565 298L564 297M586 297L587 298L586 297M565 298L566 299L565 298M580 298L581 299L580 298M607 304L603 305L606 304L605 307L601 307L600 306L601 301L606 302C598.522 290.636 599.324 317.866 607 304M665 299L665 305L663 304L663 305L663 308L670 308L667 299L665 299M673 299L673 308L674 308L675 299L673 299M682 299L682 308L683 308L684 299L682 299M548 300L548 304L549 304L548 300M567 300L568 301L567 300M581 300L582 301L581 300z"/>
<path style="fill:#125fa0; stroke:none;" d="M604 300L605 301L604 300M666 300L667 301L666 300z"/>
<path style="fill:#77adab; stroke:none;" d="M541 301L541 305L542 305L541 301M568 301L569 302L568 301M608 302L608 303L611 304L612 301L608 302M614 302L617 303L617 304L615 304L615 305L619 305C618 301.964 617.137 301.506 614 302M621 302L621 307L626 307L623 306L623 305L626 305L626 302L621 302M628 301L628 308L629 308L633 302L633 301L628 301M635 301L637 308L638 308L639 305L640 305L641 308L642 308L643 301L642 301L642 304L639 304L640 301L639 301L638 304L637 304L635 301M645 302L645 303L648 303L645 305L645 307L646 308L650 308L650 307L647 306L647 305L650 305L649 301L645 302M652 301L655 307L652 310L654 308L657 301L656 301L654 304L652 301M677 301L679 304L680 301L677 301M686 303L691 304C689.392 301.556 688.413 301.338 686 303M693 302L696 303L696 304L693 304L693 305L696 305L696 306L693 307L693 308L697 308C698.559 304.15 697.32 301.34 693 302M570 302L571 303L570 302z"/>
<path style="fill:#125fa0; stroke:none;" d="M609.333 302.667L609.667 303.333L609.333 302.667z"/>
<path style="fill:#74ab31; stroke:none;" d="M617 302L618 303L617 302z"/>
<path style="fill:#125fa0; stroke:none;" d="M632 302L633 303L632 302M639 302L640 303L639 302z"/>
<path style="fill:#74ab31; stroke:none;" d="M642 302L643 303L642 302M646 302L647 303L646 302M649.333 302.667L649.667 303.333L649.333 302.667z"/>
<path style="fill:#125fa0; stroke:none;" d="M656 302L657 303L656 302z"/>
<path style="fill:#fefffe; stroke:none;" d="M666.333 302.667L666.667 303.333L666.333 302.667z"/>
<path style="fill:#74ab31; stroke:none;" d="M667 302L668 303L667 302z"/>
<path style="fill:#125fa0; stroke:none;" d="M677.333 302.667L677.667 303.333L677.333 302.667z"/>
<path style="fill:#74ab31; stroke:none;" d="M696 302L697 303L696 302z"/>
<path style="fill:#77adab; stroke:none;" d="M573 303L574 304L573 303M582.333 303.667L582.667 304.333L582.333 303.667z"/>
<path style="fill:#74ab31; stroke:none;" d="M599 303L600 304L599 303z"/>
<path style="fill:#125fa0; stroke:none;" d="M614 303L615 304L614 303z"/>
<path style="fill:#fefffe; stroke:none;" d="M615.667 303.333L616.333 303.667L615.667 303.333z"/>
<path style="fill:#74ab31; stroke:none;" d="M621 303L622 304L621 303z"/>
<path style="fill:#fefffe; stroke:none;" d="M623 303L624 304L623 303z"/>
<path style="fill:#74ab31; stroke:none;" d="M625 303L626 304L625 303M632 303L632 306L633 306L632 303z"/>
<path style="fill:#77adab; stroke:none;" d="M633 303L632 308L633 308L633 303z"/>
<path style="fill:#74ab31; stroke:none;" d="M639 303L640 304L639 303M664 303L665 304L664 303M686 303L687 304L686 303M548 304C542.727 317.696 552.694 323.506 565 327L548 304z"/>
<path style="fill:#77adab; stroke:none;" d="M576 304L576 305L580 305L576 304z"/>
<path style="fill:#125fa0; stroke:none;" d="M605.333 304.667L605.667 305.333L605.333 304.667z"/>
<path style="fill:#74ab31; stroke:none;" d="M609.333 304.667L609.667 305.333L609.333 304.667z"/>
<path style="fill:#77adab; stroke:none;" d="M613 304L614 305L613 304z"/>
<path style="fill:#74ab31; stroke:none;" d="M614.333 304.667L614.667 305.333L614.333 304.667z"/>
<path style="fill:#125fa0; stroke:none;" d="M664 304L665 305L664 304z"/>
<path style="fill:#74ab31; stroke:none;" d="M677.333 304.667L677.667 305.333L677.333 304.667z"/>
<path style="fill:#125fa0; stroke:none;" d="M686 304L687 305L686 304z"/>
<path style="fill:#74ab31; stroke:none;" d="M600 305L601 306L600 305M621 305L622 306L621 305M637 305L638 306L637 305z"/>
<path style="fill:#fefffe; stroke:none;" d="M647.667 305.333L648.333 305.667L647.667 305.333z"/>
<path style="fill:#74ab31; stroke:none;" d="M649 305L650 306L649 305M686 305L687 306L686 305z"/>
<path style="fill:#77adab; stroke:none;" d="M686 306C688.413 307.662 689.392 307.444 691 305L686 306z"/>
<path style="fill:#125fa0; stroke:none;" d="M693 305L694 306L693 305z"/>
<path style="fill:#fefffe; stroke:none;" d="M694.667 305.333L695.333 305.667L694.667 305.333z"/>
<path style="fill:#74ab31; stroke:none;" d="M601 306L602 307L601 306M604 306L605 307L604 306z"/>
<path style="fill:#77adab; stroke:none;" d="M608 306L610 308L608 306z"/>
<path style="fill:#125fa0; stroke:none;" d="M609 306L610 307L609 306z"/>
<path style="fill:#77adab; stroke:none;" d="M614 306L614 307L619 307L614 306z"/>
<path style="fill:#74ab31; stroke:none;" d="M617 306L618 307L617 306z"/>
<path style="fill:#125fa0; stroke:none;" d="M632 306L633 307L632 306M637 306L638 307L637 306M641 306L642 307L641 306M649 306L650 307L649 306z"/>
<path style="fill:#74ab31; stroke:none;" d="M654 306L655 307L654 306z"/>
<path style="fill:#125fa0; stroke:none;" d="M663 306L664 307L663 306z"/>
<path style="fill:#74ab31; stroke:none;" d="M669 306L670 307L669 306z"/>
<path style="fill:#77adab; stroke:none;" d="M676 306L678 308L676 306z"/>
<path style="fill:#125fa0; stroke:none;" d="M677 306L678 307L677 306z"/>
<path style="fill:#74ab31; stroke:none;" d="M693 306L694 307L693 306M696 306L697 307L696 306z"/>
<path style="fill:#77adab; stroke:none;" d="M542.333 307.667L542.667 308.333L542.333 307.667z"/>
<path style="fill:#74ab31; stroke:none;" d="M654 308L655 309L654 308z"/>
<path style="fill:#77adab; stroke:none;" d="M543 310L544 311L543 310M544 312L545 313L544 312M553 313L554 314L553 313M545 314L546 315L545 314M554 314L555 315L554 314M580 315L580 316C583.249 316 582 320.285 582 323L583 323L583 314L580 315z"/>
<path style="fill:#125fa0; stroke:none;" d="M581 315C573.237 319.883 567.664 319.981 559 318C564.462 327.416 586.83 328.917 581 315z"/>
<path style="fill:#77adab; stroke:none;" d="M597 317L609 317L609 315L597 317M611.333 315.667L611.667 316.333L611.333 315.667M614 315C615.947 317.231 618.053 317.231 620 315L614 315M622 315L622 316L626 317L622 315M627 315L627 317L629 317L629 315L627 315M630 315L630 317L634 317L634 315L630 315M635 315L639 317L635 315M640 315L640 317L647 316L640 315M648 316L648 317L655 317L655 315L648 316M657.333 315.667L657.667 316.333L657.333 315.667M661 315L670 317L661 315M672 315L672 317L683 316L672 315M685 315L685 317L694 317L685 315M695 315L695 317L697 317L697 315L695 315M578 316L579 317L578 316M659 316L660 317L659 316M577 317L578 318L577 317M548 318L549 319L548 318M561 318L562 319L561 318M574 318L575 319L574 318M549 319L550 320L549 319M564 319L564 320L572 320L564 319M585 320L586 321L585 320M553 322L554 323L553 322M580 323L581 324L580 323M578 324L579 325L578 324M559 325L560 326L559 325M575.667 325.333L576.333 325.667L575.667 325.333M563 326L564 327L563 326M565 326L565 327L573 327L565 326z"/>
</svg>
