<?xml version="1.0" standalone="no"?>
<!DOCTYPE svg PUBLIC "-//W3C//DTD SVG 20010904//EN"
 "http://www.w3.org/TR/2001/REC-SVG-20010904/DTD/svg10.dtd">
<svg version="1.0" xmlns="http://www.w3.org/2000/svg"
 width="2480.000000pt" height="1200.000000pt" viewBox="0 0 2480.000000 1200.000000"
 preserveAspectRatio="xMidYMid meet">

<g transform="translate(0.000000,1200.000000) scale(0.100000,-0.100000)"
fill="#000000" stroke="none">
<path d="M11333 6533 c-29 -6 -125 -93 -164 -150 -16 -23 -27 -43 -24 -43 3 0
23 9 44 19 129 66 301 45 424 -51 l38 -30 -3 88 -3 89 -55 27 c-71 35 -202 61
-257 51z"/>
<path d="M11680 6007 c0 -235 4 -427 8 -427 28 0 32 30 32 250 l0 225 72 17
c79 19 125 54 159 120 32 63 28 72 -36 65 -69 -7 -136 -44 -170 -95 l-25 -37
0 136 c0 123 -2 138 -20 154 -20 18 -20 17 -20 -408z"/>
<path d="M10880 6235 c-68 -140 -66 -349 4 -473 12 -23 14 -19 46 65 29 76 34
102 36 188 2 89 -1 109 -28 183 -17 45 -32 82 -33 82 -2 0 -13 -20 -25 -45z"/>
<path d="M11204 6233 c10 -54 59 -151 102 -201 56 -66 153 -107 298 -127 l49
-7 -7 32 c-3 18 -14 51 -24 73 -19 42 -19 42 -78 45 -139 7 -239 59 -307 162
-28 40 -19 44 20 10 54 -48 132 -80 215 -89 40 -5 75 -7 77 -5 7 7 -32 45 -78
77 -57 39 -148 67 -218 67 l-55 0 6 -37z"/>
<path d="M13318 6003 c7 -3 16 -2 19 1 4 3 -2 6 -13 5 -11 0 -14 -3 -6 -6z"/>
<path d="M13468 6003 c6 -2 18 -2 25 0 6 3 1 5 -13 5 -14 0 -19 -2 -12 -5z"/>
<path d="M13650 5999 c0 -5 5 -7 10 -4 6 3 10 8 10 11 0 2 -4 4 -10 4 -5 0
-10 -5 -10 -11z"/>
<path d="M11999 5983 c-13 -16 -12 -17 4 -4 9 7 17 15 17 17 0 8 -8 3 -21 -13z"/>
<path d="M12209 5953 c-12 -16 -12 -17 2 -6 9 7 19 10 22 6 4 -3 7 -1 7 5 0
17 -16 15 -31 -5z"/>
<path d="M12318 5963 c7 -3 16 -2 19 1 4 3 -2 6 -13 5 -11 0 -14 -3 -6 -6z"/>
<path d="M12948 5963 c7 -3 16 -2 19 1 4 3 -2 6 -13 5 -11 0 -14 -3 -6 -6z"/>
<path d="M13585 5960 c3 -5 8 -10 11 -10 2 0 4 5 4 10 0 6 -5 10 -11 10 -5 0
-7 -4 -4 -10z"/>
<path d="M13898 5963 c7 -3 16 -2 19 1 4 3 -2 6 -13 5 -11 0 -14 -3 -6 -6z"/>
<path d="M12358 5933 c5 -21 7 -23 10 -9 2 10 0 22 -6 28 -6 6 -7 0 -4 -19z"/>
<path d="M12723 5925 c6 -19 12 -33 15 -31 7 7 -9 66 -18 66 -4 0 -3 -16 3
-35z"/>
<path d="M12846 5945 c-3 -9 -6 -24 -5 -33 0 -9 5 -4 10 12 9 32 6 48 -5 21z"/>
<path d="M12915 5950 c-3 -5 -1 -10 4 -10 6 0 11 5 11 10 0 6 -2 10 -4 10 -3
0 -8 -4 -11 -10z"/>
<path d="M13055 5950 c-3 -5 -1 -10 4 -10 6 0 11 5 11 10 0 6 -2 10 -4 10 -3
0 -8 -4 -11 -10z"/>
<path d="M13540 5912 c0 -29 3 -52 8 -52 9 0 7 88 -2 97 -3 4 -6 -17 -6 -45z"/>
<path d="M13865 5950 c-3 -5 -1 -10 4 -10 6 0 11 5 11 10 0 6 -2 10 -4 10 -3
0 -8 -4 -11 -10z"/>
<path d="M12989 5948 c-6 -23 -5 -69 2 -79 6 -9 9 3 9 34 0 26 -2 47 -5 47 -3
0 -5 -1 -6 -2z"/>
<path d="M13119 5923 c-5 -14 -8 -30 -6 -36 1 -5 8 7 14 27 13 42 7 49 -8 9z"/>
<path d="M13939 5943 c-3 -22 0 -76 5 -81 3 -3 6 16 6 41 0 26 -2 47 -5 47 -3
0 -6 -3 -6 -7z"/>
<path d="M12185 5920 c-3 -5 -1 -10 4 -10 6 0 11 5 11 10 0 6 -2 10 -4 10 -3
0 -8 -4 -11 -10z"/>
<path d="M12802 5910 c0 -14 2 -19 5 -12 2 6 2 18 0 25 -3 6 -5 1 -5 -13z"/>
<path d="M13720 5909 c0 -11 5 -17 10 -14 6 3 10 13 10 21 0 8 -4 14 -10 14
-5 0 -10 -9 -10 -21z"/>
<path d="M12420 5911 c0 -6 4 -13 10 -16 6 -3 7 1 4 9 -7 18 -14 21 -14 7z"/>
<path d="M12103 5888 c1 -15 6 -23 11 -18 4 4 4 16 -2 26 -9 16 -10 14 -9 -8z"/>
<path d="M12919 5908 c-4 -15 -6 -50 -3 -41 3 7 5 15 4 19 -1 4 4 11 12 15 10
7 10 9 1 9 -7 0 -13 -1 -14 -2z"/>
<path d="M13305 5900 c-4 -6 7 -10 27 -10 25 0 29 3 18 10 -19 13 -37 13 -45
0z"/>
<path d="M13865 5900 c-3 -6 1 -7 9 -4 18 7 21 14 7 14 -6 0 -13 -4 -16 -10z"/>
<path d="M12350 5869 c0 -5 5 -7 10 -4 6 3 10 8 10 11 0 2 -4 4 -10 4 -5 0
-10 -5 -10 -11z"/>
<path d="M13370 5869 c0 -5 5 -7 10 -4 6 3 10 8 10 11 0 2 -4 4 -10 4 -5 0
-10 -5 -10 -11z"/>
<path d="M13455 5870 c-3 -5 -1 -10 4 -10 6 0 11 5 11 10 0 6 -2 10 -4 10 -3
0 -8 -4 -11 -10z"/>
<path d="M12045 5860 c3 -5 10 -10 16 -10 5 0 9 5 9 10 0 6 -7 10 -16 10 -8 0
-12 -4 -9 -10z"/>
<path d="M13770 5860 c-9 -6 -10 -10 -3 -10 6 0 15 5 18 10 8 12 4 12 -15 0z"/>
<path d="M13090 5832 c0 -7 -10 -13 -22 -13 -19 -1 -20 -2 -4 -6 20 -5 44 12
33 24 -4 3 -7 1 -7 -5z"/>
<path d="M11616 5701 c-38 -39 -120 -78 -197 -91 -62 -11 -126 -3 -218 25
l-23 8 18 -29 c10 -16 38 -55 63 -86 l44 -58 66 0 c78 0 162 20 231 55 l50 25
0 90 c0 50 -1 90 -3 90 -2 0 -16 -13 -31 -29z"/>
</g>
</svg>
